<?xml version="1.0" standalone="no"?>
<!DOCTYPE svg PUBLIC "-//W3C//DTD SVG 1.1//EN" "http://www.w3.org/Graphics/SVG/1.1/DTD/svg11.dtd" >
<svg>
<metadata>
Created by FontForge 20090914 at Sat Oct  4 11:13:45 2014
 By www-data
Copyright (c) 2006 A. Gurskas, O. Aleknavi&#196;&#141;ien&#196;&#151;, L. Grumadien&#196;&#151;, P. Skirmantas, M. Strockis, V. Tumasonis.
</metadata>
<defs>
<font id="Palemonas-Bold" horiz-adv-x="0" >
  <font-face 
    font-family="Palemonas"
    font-weight="700"
    font-stretch="normal"
    units-per-em="2048"
    panose-1="2 3 6 3 6 2 6 2 8 3"
    ascent="1638"
    descent="-410"
    x-height="811"
    cap-height="1274"
    bbox="-1101 -571.001 2675 1976"
    underline-thickness="96"
    underline-position="26"
    unicode-range="U+0020-U+FEFF"
  />
<missing-glyph horiz-adv-x="576" 
d="M63 1274h450v-1274h-450v1274zM134 1203v-1132h308v1132h-308z" />
    <glyph glyph-name="Agrave" unicode="A&#x300;" horiz-adv-x="1487" 
d="M-56 0v48l195 32l540 1194h192l500 -1194l141 -32v-48h-650v49l188 31l-160 387h-473l-155 -387l227 -32v-48h-545zM448 542h411l-207 505zM371 1714c0 6.66699 3.66602 12.501 10.999 17.501s19 7.5 35 7.5h184c17.333 0 30.5 -1.33301 39.5 -4
s17.5 -9.33398 25.5 -20.001l200 -272c5.33301 -6.66699 7 -13.667 5 -21s-11 -11 -27 -11c-12 0 -24.333 4 -37 12l-412 261c-9.33301 5.33301 -15.666 10.833 -18.999 16.5s-5 10.167 -5 13.5z" />
    <glyph glyph-name="Aacute" unicode="A&#x301;" horiz-adv-x="1487" 
d="M-56 0v48l195 32l540 1194h192l500 -1194l141 -32v-48h-650v49l188 31l-160 387h-473l-155 -387l227 -32v-48h-545zM448 542h411l-207 505zM1178 1714c0 -3.33301 -1.66895 -7.83398 -5.00195 -13.501s-9.66602 -11.167 -18.999 -16.5l-412 -261
c-13.333 -8 -25.666 -12 -36.999 -12c-16 0 -25 3.66699 -27 11s-0.333008 14.333 5 21l200 272c8 10.667 16.5 17.334 25.5 20.001s22.167 4 39.5 4h184c16 0 27.667 -2.5 35 -7.5s11 -10.833 11 -17.5z" />
    <glyph glyph-name="Atilde" unicode="A&#x303;" horiz-adv-x="1487" 
d="M-56 0v48l195 32l540 1194h192l500 -1194l141 -32v-48h-650v49l188 31l-160 387h-473l-155 -387l227 -32v-48h-545zM448 542h411l-207 505zM495 1383c2.66699 36.667 8.50293 70.666 17.5029 101.999s20.833 58.333 35.5 81s32.167 40.334 52.5 53.001s43.5 19 69.5 19
s50.167 -5.5 72.5 -16.5s43.333 -23 63 -36l56.5 -36c18 -11 35.667 -16.5 53 -16.5c28 0 50 7.5 66 22.5s25.333 42.5 28 82.5h36c-1.33301 -36 -5.83301 -69.5 -13.5 -100.5s-18.5 -57.667 -32.5 -80s-31.167 -40 -51.5 -53s-43.5 -19.5 -69.5 -19.5
c-26.667 0 -50.334 5.5 -71.001 16.5s-40.334 23 -59.001 36s-37.334 25 -56.001 36s-39 16.5 -61 16.5c-25.333 0 -47.5 -8 -66.5 -24s-30.167 -43.667 -33.5 -83h-36z" />
    <glyph glyph-name="Egrave" unicode="E&#x300;" horiz-adv-x="1382" 
d="M62 0v48l195 32v1114l-195 32v48h1202v-299l-56 -5l-78 214h-568v-498h325l59 153h46v-388h-46l-59 153h-325v-393c0 -28 1.5 -50.167 4.5 -66.5s8.33301 -28.833 16 -37.5s18 -14.167 31 -16.5s29.833 -3.5 50.5 -3.5h483l101 242h60l-29 -329h-1217zM400 1714
c0 6.66699 3.66602 12.501 10.999 17.501s19 7.5 35 7.5h184c17.333 0 30.5 -1.33301 39.5 -4s17.5 -9.33398 25.5 -20.001l200 -272c5.33301 -6.66699 7 -13.667 5 -21s-11 -11 -27 -11c-12 0 -24.333 4 -37 12l-412 261c-9.33301 5.33301 -15.666 10.833 -18.999 16.5
s-5 10.167 -5 13.5z" />
    <glyph glyph-name="Eacute" unicode="E&#x301;" horiz-adv-x="1382" 
d="M62 0v48l195 32v1114l-195 32v48h1202v-299l-56 -5l-78 214h-568v-498h325l59 153h46v-388h-46l-59 153h-325v-393c0 -28 1.5 -50.167 4.5 -66.5s8.33301 -28.833 16 -37.5s18 -14.167 31 -16.5s29.833 -3.5 50.5 -3.5h483l101 242h60l-29 -329h-1217zM1067 1714
c0 -3.33301 -1.66895 -7.83398 -5.00195 -13.501s-9.66602 -11.167 -18.999 -16.5l-412 -261c-13.333 -8 -25.666 -12 -36.999 -12c-16 0 -25 3.66699 -27 11s-0.333008 14.333 5 21l200 272c8 10.667 16.5 17.334 25.5 20.001s22.167 4 39.5 4h184
c16 0 27.667 -2.5 35 -7.5s11 -10.833 11 -17.5z" />
    <glyph glyph-name="Igrave" unicode="I&#x300;" horiz-adv-x="791" 
d="M549 99l194 -51v-48h-696v48l195 51v1095l-197 32v48h698v-48l-194 -32v-1095zM40 1714c0 6.66699 3.66602 12.501 10.999 17.501s19 7.5 35 7.5h184c17.333 0 30.5 -1.33301 39.5 -4s17.5 -9.33398 25.5 -20.001l200 -272c5.33301 -6.66699 7 -13.667 5 -21
s-11 -11 -27 -11c-12 0 -24.333 4 -37 12l-412 261c-9.33301 5.33301 -15.666 10.833 -18.999 16.5s-5 10.167 -5 13.5z" />
    <glyph glyph-name="Iacute" unicode="I&#x301;" horiz-adv-x="791" 
d="M549 99l194 -51v-48h-696v48l195 51v1095l-197 32v48h698v-48l-194 -32v-1095zM746 1714c0 -3.33301 -1.66895 -7.83398 -5.00195 -13.501s-9.66602 -11.167 -18.999 -16.5l-412 -261c-13.333 -8 -25.666 -12 -36.999 -12c-16 0 -25 3.66699 -27 11
s-0.333008 14.333 5 21l200 272c8 10.667 16.5 17.334 25.5 20.001s22.167 4 39.5 4h184c16 0 27.667 -2.5 35 -7.5s11 -10.833 11 -17.5z" />
    <glyph glyph-name="Ntilde" unicode="N&#x303;" horiz-adv-x="1693" 
d="M386 80l167 -32v-48h-489v48l188 32l35 1114l-192 32v50h394l802 -893l-15 811l-207 32v48h489v-48l-150 -32l-54 -1200h-69l-935 1010zM567 1383c2.66699 36.667 8.50293 70.666 17.5029 101.999s20.833 58.333 35.5 81s32.167 40.334 52.5 53.001s43.5 19 69.5 19
s50.167 -5.5 72.5 -16.5s43.333 -23 63 -36l56.5 -36c18 -11 35.667 -16.5 53 -16.5c28 0 50 7.5 66 22.5s25.333 42.5 28 82.5h36c-1.33301 -36 -5.83301 -69.5 -13.5 -100.5s-18.5 -57.667 -32.5 -80s-31.167 -40 -51.5 -53s-43.5 -19.5 -69.5 -19.5
c-26.667 0 -50.334 5.5 -71.001 16.5s-40.334 23 -59.001 36s-37.334 25 -56.001 36s-39 16.5 -61 16.5c-25.333 0 -47.5 -8 -66.5 -24s-30.167 -43.667 -33.5 -83h-36z" />
    <glyph glyph-name="Ograve" unicode="O&#x300;" horiz-adv-x="1757" 
d="M799 -33c-106.667 0 -204.332 16.832 -292.999 50.499s-164.834 79.667 -228.501 138s-113.167 126.5 -148.5 204.5s-53 161.667 -53 251c0 62.667 8.66699 123.167 26 181.5s42 112.833 74 163.5s70.5 97.167 115.5 139.5s95 78.5 150 108.5s114.5 53.333 178.5 70
s130.667 25 200 25c105.333 0 202.166 -16.833 290.499 -50.5s164.333 -79.5 228 -137.5s113.334 -126.167 149.001 -204.5s53.5 -162.166 53.5 -251.499c0 -70 -9.83301 -135.667 -29.5 -197s-46.667 -117.5 -81 -168.5s-75 -96.5 -122 -136.5s-98 -73.833 -153 -101.5
s-112.833 -48.667 -173.5 -63s-121.667 -21.5 -183 -21.5zM407.002 686.999c0 -94 9.33301 -180.329 28 -258.996s45.834 -146.334 81.501 -203.001s79.334 -100.834 131.001 -132.501s110.5 -47.5 176.5 -47.5c64.667 0 121 12.667 169 38s88 61.666 120 108.999
s56 104.833 72 172.5s24 144.167 24 229.5c0 90 -9.66699 172.833 -29 248.5s-47.166 141 -83.499 196s-80.333 97.833 -132 128.5s-109.834 46 -174.501 46c-61.333 0 -115.833 -12.5 -163.5 -37.5s-87.834 -60.333 -120.501 -106s-57.334 -100.834 -74.001 -165.501
s-25 -137 -25 -217zM459.002 1714c0 6.66699 3.66602 12.501 10.999 17.501s19 7.5 35 7.5h184c17.333 0 30.5 -1.33301 39.5 -4s17.5 -9.33398 25.5 -20.001l200 -272c5.33301 -6.66699 7 -13.667 5 -21s-11 -11 -27 -11c-12 0 -24.333 4 -37 12l-412 261
c-9.33301 5.33301 -15.666 10.833 -18.999 16.5s-5 10.167 -5 13.5z" />
    <glyph glyph-name="Oacute" unicode="O&#x301;" horiz-adv-x="1757" 
d="M799 -33c-106.667 0 -204.332 16.832 -292.999 50.499s-164.834 79.667 -228.501 138s-113.167 126.5 -148.5 204.5s-53 161.667 -53 251c0 62.667 8.66699 123.167 26 181.5s42 112.833 74 163.5s70.5 97.167 115.5 139.5s95 78.5 150 108.5s114.5 53.333 178.5 70
s130.667 25 200 25c105.333 0 202.166 -16.833 290.499 -50.5s164.333 -79.5 228 -137.5s113.334 -126.167 149.001 -204.5s53.5 -162.166 53.5 -251.499c0 -70 -9.83301 -135.667 -29.5 -197s-46.667 -117.5 -81 -168.5s-75 -96.5 -122 -136.5s-98 -73.833 -153 -101.5
s-112.833 -48.667 -173.5 -63s-121.667 -21.5 -183 -21.5zM407.002 686.999c0 -94 9.33301 -180.329 28 -258.996s45.834 -146.334 81.501 -203.001s79.334 -100.834 131.001 -132.501s110.5 -47.5 176.5 -47.5c64.667 0 121 12.667 169 38s88 61.666 120 108.999
s56 104.833 72 172.5s24 144.167 24 229.5c0 90 -9.66699 172.833 -29 248.5s-47.166 141 -83.499 196s-80.333 97.833 -132 128.5s-109.834 46 -174.501 46c-61.333 0 -115.833 -12.5 -163.5 -37.5s-87.834 -60.333 -120.501 -106s-57.334 -100.834 -74.001 -165.501
s-25 -137 -25 -217zM1197 1714c0 -3.33301 -1.66895 -7.83398 -5.00195 -13.501s-9.66602 -11.167 -18.999 -16.5l-412 -261c-13.333 -8 -25.666 -12 -36.999 -12c-16 0 -25 3.66699 -27 11s-0.333008 14.333 5 21l200 272c8 10.667 16.5 17.334 25.5 20.001
s22.167 4 39.5 4h184c16 0 27.667 -2.5 35 -7.5s11 -10.833 11 -17.5z" />
    <glyph glyph-name="Otilde" unicode="O&#x303;" horiz-adv-x="1757" 
d="M799 -33c-106.667 0 -204.332 16.832 -292.999 50.499s-164.834 79.667 -228.501 138s-113.167 126.5 -148.5 204.5s-53 161.667 -53 251c0 62.667 8.66699 123.167 26 181.5s42 112.833 74 163.5s70.5 97.167 115.5 139.5s95 78.5 150 108.5s114.5 53.333 178.5 70
s130.667 25 200 25c105.333 0 202.166 -16.833 290.499 -50.5s164.333 -79.5 228 -137.5s113.334 -126.167 149.001 -204.5s53.5 -162.166 53.5 -251.499c0 -70 -9.83301 -135.667 -29.5 -197s-46.667 -117.5 -81 -168.5s-75 -96.5 -122 -136.5s-98 -73.833 -153 -101.5
s-112.833 -48.667 -173.5 -63s-121.667 -21.5 -183 -21.5zM407.002 686.999c0 -94 9.33301 -180.329 28 -258.996s45.834 -146.334 81.501 -203.001s79.334 -100.834 131.001 -132.501s110.5 -47.5 176.5 -47.5c64.667 0 121 12.667 169 38s88 61.666 120 108.999
s56 104.833 72 172.5s24 144.167 24 229.5c0 90 -9.66699 172.833 -29 248.5s-47.166 141 -83.499 196s-80.333 97.833 -132 128.5s-109.834 46 -174.501 46c-61.333 0 -115.833 -12.5 -163.5 -37.5s-87.834 -60.333 -120.501 -106s-57.334 -100.834 -74.001 -165.501
s-25 -137 -25 -217zM538.002 1383c2.66699 36.667 8.50293 70.666 17.5029 101.999s20.833 58.333 35.5 81s32.167 40.334 52.5 53.001s43.5 19 69.5 19s50.167 -5.5 72.5 -16.5s43.333 -23 63 -36l56.5 -36c18 -11 35.667 -16.5 53 -16.5c28 0 50 7.5 66 22.5
s25.333 42.5 28 82.5h36c-1.33301 -36 -5.83301 -69.5 -13.5 -100.5s-18.5 -57.667 -32.5 -80s-31.167 -40 -51.5 -53s-43.5 -19.5 -69.5 -19.5c-26.667 0 -50.334 5.5 -71.001 16.5s-40.334 23 -59.001 36s-37.334 25 -56.001 36s-39 16.5 -61 16.5
c-25.333 0 -47.5 -8 -66.5 -24s-30.167 -43.667 -33.5 -83h-36z" />
    <glyph glyph-name="Ugrave" unicode="U&#x300;" horiz-adv-x="1662" 
d="M1376 530c-3.33301 -97.333 -14.499 -181.001 -33.499 -251.001s-49.667 -127.667 -92 -173s-98.833 -78.833 -169.5 -100.5s-159 -32.5 -265 -32.5c-103.333 0 -190.833 10.5 -262.5 31.5s-129.834 52.667 -174.501 95s-77.167 95.333 -97.5 159
s-30.5 138.5 -30.5 224.5v711l-194 32v48h690v-48l-195 -32v-687c0 -63.333 3.83301 -121 11.5 -173s23.5 -96.5 47.5 -133.5s58.833 -65.5 104.5 -85.5s106.5 -30 182.5 -30c138 0 239.833 39.833 305.5 119.5s95.167 204.834 88.5 375.501l-25 614l-176 32v48h507v-48
l-199 -32zM488.001 1714c0 6.66699 3.66602 12.501 10.999 17.501s19 7.5 35 7.5h184c17.333 0 30.5 -1.33301 39.5 -4s17.5 -9.33398 25.5 -20.001l200 -272c5.33301 -6.66699 7 -13.667 5 -21s-11 -11 -27 -11c-12 0 -24.333 4 -37 12l-412 261
c-9.33301 5.33301 -15.666 10.833 -18.999 16.5s-5 10.167 -5 13.5z" />
    <glyph glyph-name="Uacute" unicode="U&#x301;" horiz-adv-x="1662" 
d="M1376 530c-3.33301 -97.333 -14.499 -181.001 -33.499 -251.001s-49.667 -127.667 -92 -173s-98.833 -78.833 -169.5 -100.5s-159 -32.5 -265 -32.5c-103.333 0 -190.833 10.5 -262.5 31.5s-129.834 52.667 -174.501 95s-77.167 95.333 -97.5 159
s-30.5 138.5 -30.5 224.5v711l-194 32v48h690v-48l-195 -32v-687c0 -63.333 3.83301 -121 11.5 -173s23.5 -96.5 47.5 -133.5s58.833 -65.5 104.5 -85.5s106.5 -30 182.5 -30c138 0 239.833 39.833 305.5 119.5s95.167 204.834 88.5 375.501l-25 614l-176 32v48h507v-48
l-199 -32zM1256 1714c0 -3.33301 -1.66895 -7.83398 -5.00195 -13.501s-9.66602 -11.167 -18.999 -16.5l-412 -261c-13.333 -8 -25.666 -12 -36.999 -12c-16 0 -25 3.66699 -27 11s-0.333008 14.333 5 21l200 272c8 10.667 16.5 17.334 25.5 20.001s22.167 4 39.5 4h184
c16 0 27.667 -2.5 35 -7.5s11 -10.833 11 -17.5z" />
    <glyph glyph-name="Yacute" unicode="Y&#x301;" horiz-adv-x="1520" 
d="M632 557l-387 637l-138 32v48h676v-48l-178 -32l285 -541l282 541l-192 32v48h474v-48l-143 -32l-372 -610v-504l197 -32v-48h-698v48l194 31v478zM1242 1714c0 -3.33301 -1.66895 -7.83398 -5.00195 -13.501s-9.66602 -11.167 -18.999 -16.5l-412 -261
c-13.333 -8 -25.666 -12 -36.999 -12c-16 0 -25 3.66699 -27 11s-0.333008 14.333 5 21l200 272c8 10.667 16.5 17.334 25.5 20.001s22.167 4 39.5 4h184c16 0 27.667 -2.5 35 -7.5s11 -10.833 11 -17.5z" />
    <glyph glyph-name="agrave" unicode="a&#x300;" horiz-adv-x="1049" 
d="M144 524l0.00195312 166.003c20.667 25.333 45.334 47.166 74.001 65.499s59.167 33.333 91.5 45s65.666 20.167 99.999 25.5s67.5 8 99.5 8c49.333 0 96.166 -4 140.499 -12s83.333 -22 117 -42s60.5 -47.167 80.5 -81.5s30 -77.5 30 -129.5v-489l107 -32v-48h-295
c-29.333 0 -50.833 7.5 -64.5 22.5s-20.834 31.5 -21.501 49.5c-38.667 -36.667 -79 -62 -121 -76s-88 -21 -138 -21c-80.667 0 -143.5 19.5 -188.5 58.5s-67.5 93.5 -67.5 163.5c0 40 8.33301 74.167 25 102.5s38.834 52.166 66.501 71.499s59.5 35.333 95.5 48
s73.167 24 111.5 34s76.333 19.333 114 28s72.167 18.667 103.5 30v78c0 30.667 -4.5 57.167 -13.5 79.5s-20.333 40.5 -34 54.5s-28.167 24.333 -43.5 31s-29.333 10 -42 10c-31.333 0 -58.5 -6.33301 -81.5 -19s-42.5 -29.834 -58.5 -51.501s-28.833 -47 -38.5 -76
s-16.834 -60.167 -21.501 -93.5h-127zM604.002 429.003c-46 -5.33301 -85.835 -15.499 -119.502 -30.499s-61.5 -32.5 -83.5 -52.5s-38.333 -41.5 -49 -64.5s-16 -45.5 -16 -67.5c0 -16 2.83301 -31.333 8.5 -46s14.334 -27.334 26.001 -38.001s25.834 -19.167 42.501 -25.5
s36 -9.5 58 -9.5c22.667 0 45 8 67 24s44 37 66 63v247zM159 1304c0 6.66699 3.66602 12.501 10.999 17.501s19 7.5 35 7.5h184c17.333 0 30.5 -1.33301 39.5 -4s17.5 -9.33398 25.5 -20.001l200 -272c5.33301 -6.66699 7 -13.667 5 -21s-11 -11 -27 -11
c-12 0 -24.333 4 -37 12l-412 261c-9.33301 5.33301 -15.666 10.833 -18.999 16.5s-5 10.167 -5 13.5z" />
    <glyph glyph-name="aacute" unicode="a&#x301;" horiz-adv-x="1049" 
d="M144 524l0.00195312 166.003c20.667 25.333 45.334 47.166 74.001 65.499s59.167 33.333 91.5 45s65.666 20.167 99.999 25.5s67.5 8 99.5 8c49.333 0 96.166 -4 140.499 -12s83.333 -22 117 -42s60.5 -47.167 80.5 -81.5s30 -77.5 30 -129.5v-489l107 -32v-48h-295
c-29.333 0 -50.833 7.5 -64.5 22.5s-20.834 31.5 -21.501 49.5c-38.667 -36.667 -79 -62 -121 -76s-88 -21 -138 -21c-80.667 0 -143.5 19.5 -188.5 58.5s-67.5 93.5 -67.5 163.5c0 40 8.33301 74.167 25 102.5s38.834 52.166 66.501 71.499s59.5 35.333 95.5 48
s73.167 24 111.5 34s76.333 19.333 114 28s72.167 18.667 103.5 30v78c0 30.667 -4.5 57.167 -13.5 79.5s-20.333 40.5 -34 54.5s-28.167 24.333 -43.5 31s-29.333 10 -42 10c-31.333 0 -58.5 -6.33301 -81.5 -19s-42.5 -29.834 -58.5 -51.501s-28.833 -47 -38.5 -76
s-16.834 -60.167 -21.501 -93.5h-127zM604.002 429.003c-46 -5.33301 -85.835 -15.499 -119.502 -30.499s-61.5 -32.5 -83.5 -52.5s-38.333 -41.5 -49 -64.5s-16 -45.5 -16 -67.5c0 -16 2.83301 -31.333 8.5 -46s14.334 -27.334 26.001 -38.001s25.834 -19.167 42.501 -25.5
s36 -9.5 58 -9.5c22.667 0 45 8 67 24s44 37 66 63v247zM840 1304c0 -3.33301 -1.66895 -7.83398 -5.00195 -13.501s-9.66602 -11.167 -18.999 -16.5l-412 -261c-13.333 -8 -25.666 -12 -36.999 -12c-16 0 -25 3.66699 -27 11s-0.333008 14.333 5 21l200 272
c8 10.667 16.5 17.334 25.5 20.001s22.167 4 39.5 4h184c16 0 27.667 -2.5 35 -7.5s11 -10.833 11 -17.5z" />
    <glyph glyph-name="atilde" unicode="a&#x303;" horiz-adv-x="1049" 
d="M144 524l0.00195312 166.003c20.667 25.333 45.334 47.166 74.001 65.499s59.167 33.333 91.5 45s65.666 20.167 99.999 25.5s67.5 8 99.5 8c49.333 0 96.166 -4 140.499 -12s83.333 -22 117 -42s60.5 -47.167 80.5 -81.5s30 -77.5 30 -129.5v-489l107 -32v-48h-295
c-29.333 0 -50.833 7.5 -64.5 22.5s-20.834 31.5 -21.501 49.5c-38.667 -36.667 -79 -62 -121 -76s-88 -21 -138 -21c-80.667 0 -143.5 19.5 -188.5 58.5s-67.5 93.5 -67.5 163.5c0 40 8.33301 74.167 25 102.5s38.834 52.166 66.501 71.499s59.5 35.333 95.5 48
s73.167 24 111.5 34s76.333 19.333 114 28s72.167 18.667 103.5 30v78c0 30.667 -4.5 57.167 -13.5 79.5s-20.333 40.5 -34 54.5s-28.167 24.333 -43.5 31s-29.333 10 -42 10c-31.333 0 -58.5 -6.33301 -81.5 -19s-42.5 -29.834 -58.5 -51.501s-28.833 -47 -38.5 -76
s-16.834 -60.167 -21.501 -93.5h-127zM604.002 429.003c-46 -5.33301 -85.835 -15.499 -119.502 -30.499s-61.5 -32.5 -83.5 -52.5s-38.333 -41.5 -49 -64.5s-16 -45.5 -16 -67.5c0 -16 2.83301 -31.333 8.5 -46s14.334 -27.334 26.001 -38.001s25.834 -19.167 42.501 -25.5
s36 -9.5 58 -9.5c22.667 0 45 8 67 24s44 37 66 63v247zM241 1005c2.66699 36.667 8.50293 70.666 17.5029 101.999s20.833 58.333 35.5 81s32.167 40.334 52.5 53.001s43.5 19 69.5 19s50.167 -5.5 72.5 -16.5s43.333 -23 63 -36l56.5 -36c18 -11 35.667 -16.5 53 -16.5
c28 0 50 7.5 66 22.5s25.333 42.5 28 82.5h36c-1.33301 -36 -5.83301 -69.5 -13.5 -100.5s-18.5 -57.667 -32.5 -80s-31.167 -40 -51.5 -53s-43.5 -19.5 -69.5 -19.5c-26.667 0 -50.334 5.5 -71.001 16.5s-40.334 23 -59.001 36s-37.334 25 -56.001 36s-39 16.5 -61 16.5
c-25.333 0 -47.5 -8 -66.5 -24s-30.167 -43.667 -33.5 -83h-36z" />
    <glyph glyph-name="egrave" unicode="e&#x300;" horiz-adv-x="1044" 
d="M366 485l327.001 0.00195312c-0.666992 83.333 -15.834 146.166 -45.501 188.499s-70.5 63.5 -122.5 63.5c-54 0 -94 -22.333 -120 -67s-39 -106.334 -39 -185.001zM945.001 198.002c-65.333 -75.333 -131.997 -131.333 -199.997 -168s-142.333 -55 -223 -55
c-64 0 -123.167 10.333 -177.5 31s-101.333 49.5 -141 86.5s-70.5 81 -92.5 132s-33 106.5 -33 166.5c0 68.667 12.333 130.5 37 185.5s58.5 101.5 101.5 139.5s93.667 67.167 152 87.5s121.5 30.5 189.5 30.5c66 0 123 -10.833 171 -32.5s87.667 -51.5 119 -89.5
s54.666 -82.667 69.999 -134s23.666 -107 24.999 -167h-577c5.33301 -100 32.666 -175.167 81.999 -225.5s116.333 -75.5 201 -75.5c24 0 46.667 2.5 68 7.5s42 12.5 62 22.5s40 23 60 39s41 35 63 57zM206.004 1304c0 6.66699 3.66602 12.501 10.999 17.501s19 7.5 35 7.5
h184c17.333 0 30.5 -1.33301 39.5 -4s17.5 -9.33398 25.5 -20.001l200 -272c5.33301 -6.66699 7 -13.667 5 -21s-11 -11 -27 -11c-12 0 -24.333 4 -37 12l-412 261c-9.33301 5.33301 -15.666 10.833 -18.999 16.5s-5 10.167 -5 13.5z" />
    <glyph glyph-name="eacute" unicode="e&#x301;" horiz-adv-x="1044" 
d="M366 485l327.001 0.00195312c-0.666992 83.333 -15.834 146.166 -45.501 188.499s-70.5 63.5 -122.5 63.5c-54 0 -94 -22.333 -120 -67s-39 -106.334 -39 -185.001zM945.001 198.002c-65.333 -75.333 -131.997 -131.333 -199.997 -168s-142.333 -55 -223 -55
c-64 0 -123.167 10.333 -177.5 31s-101.333 49.5 -141 86.5s-70.5 81 -92.5 132s-33 106.5 -33 166.5c0 68.667 12.333 130.5 37 185.5s58.5 101.5 101.5 139.5s93.667 67.167 152 87.5s121.5 30.5 189.5 30.5c66 0 123 -10.833 171 -32.5s87.667 -51.5 119 -89.5
s54.666 -82.667 69.999 -134s23.666 -107 24.999 -167h-577c5.33301 -100 32.666 -175.167 81.999 -225.5s116.333 -75.5 201 -75.5c24 0 46.667 2.5 68 7.5s42 12.5 62 22.5s40 23 60 39s41 35 63 57zM894.004 1304c0 -3.33301 -1.66895 -7.83398 -5.00195 -13.501
s-9.66602 -11.167 -18.999 -16.5l-412 -261c-13.333 -8 -25.666 -12 -36.999 -12c-16 0 -25 3.66699 -27 11s-0.333008 14.333 5 21l200 272c8 10.667 16.5 17.334 25.5 20.001s22.167 4 39.5 4h184c16 0 27.667 -2.5 35 -7.5s11 -10.833 11 -17.5z" />
    <glyph glyph-name="ntilde" unicode="n&#x303;" horiz-adv-x="1249" 
d="M455 80l127 -32.001v-48h-530v48l129 32v650h-129v48l338 56h65v-112c32 17.333 62.5 33 91.5 47s58.667 25.833 89 35.5s61.833 17 94.5 22s68.334 7.5 107.001 7.5s73.5 -5.66699 104.5 -17s57.167 -27.666 78.5 -48.999s37.833 -47.333 49.5 -78s17.5 -65 17.5 -103
v-507l127 -32v-48h-530v48l129 32v399c0 44.667 -3.5 82.167 -10.5 112.5s-16.5 54.833 -28.5 73.5s-26.333 32 -43 40s-34.667 12 -54 12c-32 0 -66.833 -9 -104.5 -27s-76.834 -39 -117.501 -63v-547zM359 1005c2.66699 36.667 8.50293 70.666 17.5029 101.999
s20.833 58.333 35.5 81s32.167 40.334 52.5 53.001s43.5 19 69.5 19s50.167 -5.5 72.5 -16.5s43.333 -23 63 -36l56.5 -36c18 -11 35.667 -16.5 53 -16.5c28 0 50 7.5 66 22.5s25.333 42.5 28 82.5h36c-1.33301 -36 -5.83301 -69.5 -13.5 -100.5s-18.5 -57.667 -32.5 -80
s-31.167 -40 -51.5 -53s-43.5 -19.5 -69.5 -19.5c-26.667 0 -50.334 5.5 -71.001 16.5s-40.334 23 -59.001 36s-37.334 25 -56.001 36s-39 16.5 -61 16.5c-25.333 0 -47.5 -8 -66.5 -24s-30.167 -43.667 -33.5 -83h-36z" />
    <glyph glyph-name="ograve" unicode="o&#x300;" horiz-adv-x="1130" 
d="M74 401c0 66.667 12.667 126.834 38 180.501s60.333 99.167 105 136.5s97.667 66.166 159 86.499s128 30.5 200 30.5c71.333 0 136.5 -9.66699 195.5 -29s109.5 -47.166 151.5 -83.499s74.5 -80.333 97.5 -132s34.5 -109.834 34.5 -174.501c0 -66 -12.333 -126 -37 -180
s-59.334 -100.167 -104.001 -138.5s-97.667 -68.166 -159 -89.499s-128.666 -32 -201.999 -32c-71.333 0 -136.333 9.83301 -195 29.5s-109 48 -151 85s-74.667 81.667 -98 134s-35 111.166 -35 176.499zM600 47c62 0 107.832 21.168 137.499 63.501
s44.5 103.833 44.5 184.5c0 72.667 -6.16699 138.334 -18.5 197.001s-29.666 108.5 -51.999 149.5s-49.5 72.5 -81.5 94.5s-67.333 33 -106 33c-58.667 0 -103.834 -20.333 -135.501 -61s-47.5 -95 -47.5 -163c0 -78 6 -147.833 18 -209.5s29.333 -113.834 52 -156.501
s49.834 -75.334 81.501 -98.001s67.5 -34 107.5 -34zM217.999 1304c0 6.66699 3.66602 12.501 10.999 17.501s19 7.5 35 7.5h184c17.333 0 30.5 -1.33301 39.5 -4s17.5 -9.33398 25.5 -20.001l200 -272c5.33301 -6.66699 7 -13.667 5 -21s-11 -11 -27 -11
c-12 0 -24.333 4 -37 12l-412 261c-9.33301 5.33301 -15.666 10.833 -18.999 16.5s-5 10.167 -5 13.5z" />
    <glyph glyph-name="oacute" unicode="o&#x301;" horiz-adv-x="1130" 
d="M74 401c0 66.667 12.667 126.834 38 180.501s60.333 99.167 105 136.5s97.667 66.166 159 86.499s128 30.5 200 30.5c71.333 0 136.5 -9.66699 195.5 -29s109.5 -47.166 151.5 -83.499s74.5 -80.333 97.5 -132s34.5 -109.834 34.5 -174.501c0 -66 -12.333 -126 -37 -180
s-59.334 -100.167 -104.001 -138.5s-97.667 -68.166 -159 -89.499s-128.666 -32 -201.999 -32c-71.333 0 -136.333 9.83301 -195 29.5s-109 48 -151 85s-74.667 81.667 -98 134s-35 111.166 -35 176.499zM600 47c62 0 107.832 21.168 137.499 63.501
s44.5 103.833 44.5 184.5c0 72.667 -6.16699 138.334 -18.5 197.001s-29.666 108.5 -51.999 149.5s-49.5 72.5 -81.5 94.5s-67.333 33 -106 33c-58.667 0 -103.834 -20.333 -135.501 -61s-47.5 -95 -47.5 -163c0 -78 6 -147.833 18 -209.5s29.333 -113.834 52 -156.501
s49.834 -75.334 81.501 -98.001s67.5 -34 107.5 -34zM906.999 1304c0 -3.33301 -1.66895 -7.83398 -5.00195 -13.501s-9.66602 -11.167 -18.999 -16.5l-412 -261c-13.333 -8 -25.666 -12 -36.999 -12c-16 0 -25 3.66699 -27 11s-0.333008 14.333 5 21l200 272
c8 10.667 16.5 17.334 25.5 20.001s22.167 4 39.5 4h184c16 0 27.667 -2.5 35 -7.5s11 -10.833 11 -17.5z" />
    <glyph glyph-name="otilde" unicode="o&#x303;" horiz-adv-x="1130" 
d="M74 401c0 66.667 12.667 126.834 38 180.501s60.333 99.167 105 136.5s97.667 66.166 159 86.499s128 30.5 200 30.5c71.333 0 136.5 -9.66699 195.5 -29s109.5 -47.166 151.5 -83.499s74.5 -80.333 97.5 -132s34.5 -109.834 34.5 -174.501c0 -66 -12.333 -126 -37 -180
s-59.334 -100.167 -104.001 -138.5s-97.667 -68.166 -159 -89.499s-128.666 -32 -201.999 -32c-71.333 0 -136.333 9.83301 -195 29.5s-109 48 -151 85s-74.667 81.667 -98 134s-35 111.166 -35 176.499zM600 47c62 0 107.832 21.168 137.499 63.501
s44.5 103.833 44.5 184.5c0 72.667 -6.16699 138.334 -18.5 197.001s-29.666 108.5 -51.999 149.5s-49.5 72.5 -81.5 94.5s-67.333 33 -106 33c-58.667 0 -103.834 -20.333 -135.501 -61s-47.5 -95 -47.5 -163c0 -78 6 -147.833 18 -209.5s29.333 -113.834 52 -156.501
s49.834 -75.334 81.501 -98.001s67.5 -34 107.5 -34zM289.999 1005c2.66699 36.667 8.50293 70.666 17.5029 101.999s20.833 58.333 35.5 81s32.167 40.334 52.5 53.001s43.5 19 69.5 19s50.167 -5.5 72.5 -16.5s43.333 -23 63 -36l56.5 -36c18 -11 35.667 -16.5 53 -16.5
c28 0 50 7.5 66 22.5s25.333 42.5 28 82.5h36c-1.33301 -36 -5.83301 -69.5 -13.5 -100.5s-18.5 -57.667 -32.5 -80s-31.167 -40 -51.5 -53s-43.5 -19.5 -69.5 -19.5c-26.667 0 -50.334 5.5 -71.001 16.5s-40.334 23 -59.001 36s-37.334 25 -56.001 36s-39 16.5 -61 16.5
c-25.333 0 -47.5 -8 -66.5 -24s-30.167 -43.667 -33.5 -83h-36z" />
    <glyph glyph-name="ugrave" unicode="u&#x300;" horiz-adv-x="1237" 
d="M166 324l-0.00195312 406.001h-129v48l338 66h65v-477c0 -48 3 -88 9 -120s15 -57.5 27 -76.5s26.833 -32.333 44.5 -40s37.834 -11.5 60.501 -11.5c32.667 0 66.667 9.33301 102 28s69 42 101 70v513h-129v49l338 65h65v-764l132 -32v-48h-406v123
c-40 -26.667 -76.5 -49.334 -109.5 -68.001s-64.167 -34 -93.5 -46s-58.166 -20.667 -86.499 -26s-58.5 -8 -90.5 -8c-44 0 -81.167 7.83301 -111.5 23.5s-54.833 38.5 -73.5 68.5s-32.167 66.667 -40.5 110s-12.5 92.333 -12.5 147zM264.998 1304
c0 6.66699 3.66602 12.501 10.999 17.501s19 7.5 35 7.5h184c17.333 0 30.5 -1.33301 39.5 -4s17.5 -9.33398 25.5 -20.001l200 -272c5.33301 -6.66699 7 -13.667 5 -21s-11 -11 -27 -11c-12 0 -24.333 4 -37 12l-412 261c-9.33301 5.33301 -15.666 10.833 -18.999 16.5
s-5 10.167 -5 13.5z" />
    <glyph glyph-name="uacute" unicode="u&#x301;" horiz-adv-x="1237" 
d="M166 324l-0.00195312 406.001h-129v48l338 66h65v-477c0 -48 3 -88 9 -120s15 -57.5 27 -76.5s26.833 -32.333 44.5 -40s37.834 -11.5 60.501 -11.5c32.667 0 66.667 9.33301 102 28s69 42 101 70v513h-129v49l338 65h65v-764l132 -32v-48h-406v123
c-40 -26.667 -76.5 -49.334 -109.5 -68.001s-64.167 -34 -93.5 -46s-58.166 -20.667 -86.499 -26s-58.5 -8 -90.5 -8c-44 0 -81.167 7.83301 -111.5 23.5s-54.833 38.5 -73.5 68.5s-32.167 66.667 -40.5 110s-12.5 92.333 -12.5 147zM993.998 1304
c0 -3.33301 -1.66895 -7.83398 -5.00195 -13.501s-9.66602 -11.167 -18.999 -16.5l-412 -261c-13.333 -8 -25.666 -12 -36.999 -12c-16 0 -25 3.66699 -27 11s-0.333008 14.333 5 21l200 272c8 10.667 16.5 17.334 25.5 20.001s22.167 4 39.5 4h184
c16 0 27.667 -2.5 35 -7.5s11 -10.833 11 -17.5z" />
    <glyph glyph-name="yacute" unicode="y&#x301;" horiz-adv-x="1016" 
d="M598 294l228.999 436l-176 32v49h424v-49l-141 -32l-480 -927c-14.667 -28 -33.667 -57.833 -57 -89.5s-49 -61.167 -77 -88.5s-57.5 -50.5 -88.5 -69.5s-61.5 -29.833 -91.5 -32.5l-111 180c12.667 -4 27.667 -6 45 -6c26 0 54.5 4.83301 85.5 14.5
s61.333 23.334 91 41.001s57.334 39.167 83.001 64.5s46.167 53.666 61.5 84.999l51 103l-363 725l-135 32v49h560v-49l-141 -32zM932.999 1304c0 -3.33301 -1.66895 -7.83398 -5.00195 -13.501s-9.66602 -11.167 -18.999 -16.5l-412 -261
c-13.333 -8 -25.666 -12 -36.999 -12c-16 0 -25 3.66699 -27 11s-0.333008 14.333 5 21l200 272c8 10.667 16.5 17.334 25.5 20.001s22.167 4 39.5 4h184c16 0 27.667 -2.5 35 -7.5s11 -10.833 11 -17.5z" />
    <glyph glyph-name="Itilde" unicode="I&#x303;" horiz-adv-x="791" 
d="M549 99l194 -51v-48h-696v48l195 51v1095l-197 32v48h698v-48l-194 -32v-1095zM120 1383c2.66699 36.667 8.50293 70.666 17.5029 101.999s20.833 58.333 35.5 81s32.167 40.334 52.5 53.001s43.5 19 69.5 19s50.167 -5.5 72.5 -16.5s43.333 -23 63 -36l56.5 -36
c18 -11 35.667 -16.5 53 -16.5c28 0 50 7.5 66 22.5s25.333 42.5 28 82.5h36c-1.33301 -36 -5.83301 -69.5 -13.5 -100.5s-18.5 -57.667 -32.5 -80s-31.167 -40 -51.5 -53s-43.5 -19.5 -69.5 -19.5c-26.667 0 -50.334 5.5 -71.001 16.5s-40.334 23 -59.001 36
s-37.334 25 -56.001 36s-39 16.5 -61 16.5c-25.333 0 -47.5 -8 -66.5 -24s-30.167 -43.667 -33.5 -83h-36z" />
    <glyph glyph-name="Utilde" unicode="U&#x303;" horiz-adv-x="1662" 
d="M1376 530c-3.33301 -97.333 -14.499 -181.001 -33.499 -251.001s-49.667 -127.667 -92 -173s-98.833 -78.833 -169.5 -100.5s-159 -32.5 -265 -32.5c-103.333 0 -190.833 10.5 -262.5 31.5s-129.834 52.667 -174.501 95s-77.167 95.333 -97.5 159
s-30.5 138.5 -30.5 224.5v711l-194 32v48h690v-48l-195 -32v-687c0 -63.333 3.83301 -121 11.5 -173s23.5 -96.5 47.5 -133.5s58.833 -65.5 104.5 -85.5s106.5 -30 182.5 -30c138 0 239.833 39.833 305.5 119.5s95.167 204.834 88.5 375.501l-25 614l-176 32v48h507v-48
l-199 -32zM646.001 1383c2.66699 36.667 8.50293 70.666 17.5029 101.999s20.833 58.333 35.5 81s32.167 40.334 52.5 53.001s43.5 19 69.5 19s50.167 -5.5 72.5 -16.5s43.333 -23 63 -36l56.5 -36c18 -11 35.667 -16.5 53 -16.5c28 0 50 7.5 66 22.5s25.333 42.5 28 82.5
h36c-1.33301 -36 -5.83301 -69.5 -13.5 -100.5s-18.5 -57.667 -32.5 -80s-31.167 -40 -51.5 -53s-43.5 -19.5 -69.5 -19.5c-26.667 0 -50.334 5.5 -71.001 16.5s-40.334 23 -59.001 36s-37.334 25 -56.001 36s-39 16.5 -61 16.5c-25.333 0 -47.5 -8 -66.5 -24
s-30.167 -43.667 -33.5 -83h-36z" />
    <glyph glyph-name="utilde" unicode="u&#x303;" horiz-adv-x="1237" 
d="M166 324l-0.00195312 406.001h-129v48l338 66h65v-477c0 -48 3 -88 9 -120s15 -57.5 27 -76.5s26.833 -32.333 44.5 -40s37.834 -11.5 60.501 -11.5c32.667 0 66.667 9.33301 102 28s69 42 101 70v513h-129v49l338 65h65v-764l132 -32v-48h-406v123
c-40 -26.667 -76.5 -49.334 -109.5 -68.001s-64.167 -34 -93.5 -46s-58.166 -20.667 -86.499 -26s-58.5 -8 -90.5 -8c-44 0 -81.167 7.83301 -111.5 23.5s-54.833 38.5 -73.5 68.5s-32.167 66.667 -40.5 110s-12.5 92.333 -12.5 147zM331.998 1005
c2.66699 36.667 8.50293 70.666 17.5029 101.999s20.833 58.333 35.5 81s32.167 40.334 52.5 53.001s43.5 19 69.5 19s50.167 -5.5 72.5 -16.5s43.333 -23 63 -36l56.5 -36c18 -11 35.667 -16.5 53 -16.5c28 0 50 7.5 66 22.5s25.333 42.5 28 82.5h36
c-1.33301 -36 -5.83301 -69.5 -13.5 -100.5s-18.5 -57.667 -32.5 -80s-31.167 -40 -51.5 -53s-43.5 -19.5 -69.5 -19.5c-26.667 0 -50.334 5.5 -71.001 16.5s-40.334 23 -59.001 36s-37.334 25 -56.001 36s-39 16.5 -61 16.5c-25.333 0 -47.5 -8 -66.5 -24
s-30.167 -43.667 -33.5 -83h-36z" />
    <glyph glyph-name="Etilde" unicode="E&#x303;" horiz-adv-x="1382" 
d="M62 0v48l195 32v1114l-195 32v48h1202v-299l-56 -5l-78 214h-568v-498h325l59 153h46v-388h-46l-59 153h-325v-393c0 -28 1.5 -50.167 4.5 -66.5s8.33301 -28.833 16 -37.5s18 -14.167 31 -16.5s29.833 -3.5 50.5 -3.5h483l101 242h60l-29 -329h-1217zM534 1383
c2.66699 36.667 8.50293 70.666 17.5029 101.999s20.833 58.333 35.5 81s32.167 40.334 52.5 53.001s43.5 19 69.5 19s50.167 -5.5 72.5 -16.5s43.333 -23 63 -36l56.5 -36c18 -11 35.667 -16.5 53 -16.5c28 0 50 7.5 66 22.5s25.333 42.5 28 82.5h36
c-1.33301 -36 -5.83301 -69.5 -13.5 -100.5s-18.5 -57.667 -32.5 -80s-31.167 -40 -51.5 -53s-43.5 -19.5 -69.5 -19.5c-26.667 0 -50.334 5.5 -71.001 16.5s-40.334 23 -59.001 36s-37.334 25 -56.001 36s-39 16.5 -61 16.5c-25.333 0 -47.5 -8 -66.5 -24
s-30.167 -43.667 -33.5 -83h-36z" />
    <glyph glyph-name="etilde" unicode="e&#x303;" horiz-adv-x="1044" 
d="M366 485l327.001 0.00195312c-0.666992 83.333 -15.834 146.166 -45.501 188.499s-70.5 63.5 -122.5 63.5c-54 0 -94 -22.333 -120 -67s-39 -106.334 -39 -185.001zM945.001 198.002c-65.333 -75.333 -131.997 -131.333 -199.997 -168s-142.333 -55 -223 -55
c-64 0 -123.167 10.333 -177.5 31s-101.333 49.5 -141 86.5s-70.5 81 -92.5 132s-33 106.5 -33 166.5c0 68.667 12.333 130.5 37 185.5s58.5 101.5 101.5 139.5s93.667 67.167 152 87.5s121.5 30.5 189.5 30.5c66 0 123 -10.833 171 -32.5s87.667 -51.5 119 -89.5
s54.666 -82.667 69.999 -134s23.666 -107 24.999 -167h-577c5.33301 -100 32.666 -175.167 81.999 -225.5s116.333 -75.5 201 -75.5c24 0 46.667 2.5 68 7.5s42 12.5 62 22.5s40 23 60 39s41 35 63 57zM262.004 1005c2.66699 36.667 8.50293 70.666 17.5029 101.999
s20.833 58.333 35.5 81s32.167 40.334 52.5 53.001s43.5 19 69.5 19s50.167 -5.5 72.5 -16.5s43.333 -23 63 -36l56.5 -36c18 -11 35.667 -16.5 53 -16.5c28 0 50 7.5 66 22.5s25.333 42.5 28 82.5h36c-1.33301 -36 -5.83301 -69.5 -13.5 -100.5s-18.5 -57.667 -32.5 -80
s-31.167 -40 -51.5 -53s-43.5 -19.5 -69.5 -19.5c-26.667 0 -50.334 5.5 -71.001 16.5s-40.334 23 -59.001 36s-37.334 25 -56.001 36s-39 16.5 -61 16.5c-25.333 0 -47.5 -8 -66.5 -24s-30.167 -43.667 -33.5 -83h-36z" />
    <glyph glyph-name="Ytilde" unicode="Y&#x303;" horiz-adv-x="1520" 
d="M632 557l-387 637l-138 32v48h676v-48l-178 -32l285 -541l282 541l-192 32v48h474v-48l-143 -32l-372 -610v-504l197 -32v-48h-698v48l194 31v478zM610 1383c2.66699 36.667 8.50293 70.666 17.5029 101.999s20.833 58.333 35.5 81s32.167 40.334 52.5 53.001
s43.5 19 69.5 19s50.167 -5.5 72.5 -16.5s43.333 -23 63 -36l56.5 -36c18 -11 35.667 -16.5 53 -16.5c28 0 50 7.5 66 22.5s25.333 42.5 28 82.5h36c-1.33301 -36 -5.83301 -69.5 -13.5 -100.5s-18.5 -57.667 -32.5 -80s-31.167 -40 -51.5 -53s-43.5 -19.5 -69.5 -19.5
c-26.667 0 -50.334 5.5 -71.001 16.5s-40.334 23 -59.001 36s-37.334 25 -56.001 36s-39 16.5 -61 16.5c-25.333 0 -47.5 -8 -66.5 -24s-30.167 -43.667 -33.5 -83h-36z" />
    <glyph glyph-name="ytilde" unicode="y&#x303;" horiz-adv-x="1016" 
d="M598 294l228.999 436l-176 32v49h424v-49l-141 -32l-480 -927c-14.667 -28 -33.667 -57.833 -57 -89.5s-49 -61.167 -77 -88.5s-57.5 -50.5 -88.5 -69.5s-61.5 -29.833 -91.5 -32.5l-111 180c12.667 -4 27.667 -6 45 -6c26 0 54.5 4.83301 85.5 14.5
s61.333 23.334 91 41.001s57.334 39.167 83.001 64.5s46.167 53.666 61.5 84.999l51 103l-363 725l-135 32v49h560v-49l-141 -32zM303.999 1005c2.66699 36.667 8.50293 70.666 17.5029 101.999s20.833 58.333 35.5 81s32.167 40.334 52.5 53.001s43.5 19 69.5 19
s50.167 -5.5 72.5 -16.5s43.333 -23 63 -36l56.5 -36c18 -11 35.667 -16.5 53 -16.5c28 0 50 7.5 66 22.5s25.333 42.5 28 82.5h36c-1.33301 -36 -5.83301 -69.5 -13.5 -100.5s-18.5 -57.667 -32.5 -80s-31.167 -40 -51.5 -53s-43.5 -19.5 -69.5 -19.5
c-26.667 0 -50.334 5.5 -71.001 16.5s-40.334 23 -59.001 36s-37.334 25 -56.001 36s-39 16.5 -61 16.5c-25.333 0 -47.5 -8 -66.5 -24s-30.167 -43.667 -33.5 -83h-36z" />
    <glyph glyph-name="Aogonekacute" unicode="&#x104;&#x301;" horiz-adv-x="1428" 
d="M1403 -404c-22 -8 -45.0059 -14.6699 -69.0059 -20.0029s-47.667 -9.5 -71 -12.5s-45.666 -5.16699 -66.999 -6.5s-40 -2 -56 -2c-35.333 0 -66.166 4.66699 -92.499 14s-48.5 22 -66.5 38s-31.5 34.667 -40.5 56s-13.5 44 -13.5 68c0 23.333 3.33301 43.333 10 60
s14.834 31.334 24.501 44.001s20.334 24.5 32.001 35.5s22.334 22.667 32.001 35s17.834 26 24.501 41s10 33.167 10 54.5c0 16 -2.16699 34.167 -6.5 54.5s-11.833 43.5 -22.5 69.5l-142 342h-473l-155 -387l227 -32v-48h-545v48l213 32l482 1194h232l500 -1194l141 -32
v-48h-127c-53.333 0 -95.666 -7.33301 -126.999 -22s-55.333 -33.667 -72 -57s-27.334 -49.166 -32.001 -77.499s-7 -56.166 -7 -83.499c0 -25.333 4 -46.666 12 -63.999s18.5 -31.333 31.5 -42s28.167 -18.334 45.5 -23.001s35.666 -7 54.999 -7
c16.667 0 33.334 1.33301 50.001 4s32.667 6.66699 48 12zM446.994 541.997h411l-207 505zM1177.99 1714c0 -3.33301 -1.66895 -7.83398 -5.00195 -13.501s-9.66602 -11.167 -18.999 -16.5l-412 -261c-13.333 -8 -25.666 -12 -36.999 -12c-16 0 -25 3.66699 -27 11
s-0.333008 14.333 5 21l200 272c8 10.667 16.5 17.334 25.5 20.001s22.167 4 39.5 4h184c16 0 27.667 -2.5 35 -7.5s11 -10.833 11 -17.5z" />
    <glyph glyph-name="aogonekacute" unicode="&#x105;&#x301;" horiz-adv-x="1126" 
d="M973 -404c-22 -8 -45.0049 -14.667 -69.0049 -20s-47.667 -9.5 -71 -12.5s-45.666 -5.16699 -66.999 -6.5s-40 -2 -56 -2c-35.333 0 -66.166 4.66699 -92.499 14s-48.5 22 -66.5 38s-31.5 34.667 -40.5 56s-13.5 44 -13.5 68c0 32 5.33301 61.333 16 88
s25.334 51 44.001 73s40.834 42 66.501 60s53.834 34 84.501 48c-14 -0 -27.333 2.33301 -40 7s-23.834 10.5 -33.501 17.5s-17.334 14.667 -23.001 23s-8.5 16.5 -8.5 24.5c-38.667 -36.667 -79 -62 -121 -76s-88 -21 -138 -21c-80.667 0 -143.5 19.333 -188.5 58
s-67.5 93.334 -67.5 164.001c0 40 8.33301 74.167 25 102.5s38.834 52.166 66.501 71.499s59.5 35.333 95.5 48s73.167 24 111.5 34s76.333 19.333 114 28s72.167 18.667 103.5 30v78c0 30.667 -4.5 57.167 -13.5 79.5s-20.333 40.5 -34 54.5s-28.167 24.333 -43.5 31
s-29.333 10 -42 10c-31.333 0 -58.5 -6.33301 -81.5 -19s-42.5 -29.834 -58.5 -51.501s-28.833 -47.167 -38.5 -76.5s-16.834 -60.333 -21.501 -93h-127v166c20.667 25.333 45.334 47.166 74.001 65.499s59.167 33.333 91.5 45s65.666 20.167 99.999 25.5s67.5 8 99.5 8
c48.667 0 95.334 -4 140.001 -12s83.834 -22 117.501 -42s60.5 -47.167 80.5 -81.5s30 -77.5 30 -129.5v-489l107 -32v-48h-78c-32.667 0 -61 -7.33301 -85 -22s-43.667 -33.667 -59 -57s-26.833 -49.166 -34.5 -77.499s-11.5 -56.166 -11.5 -83.499
c0 -25.333 4 -46.666 12 -63.999s18.5 -31.333 31.5 -42s28.167 -18.334 45.5 -23.001s35.666 -7 54.999 -7c16.667 0 33.334 1.33301 50.001 4s32.667 6.66699 48 12zM603.995 429c-46 -5.33301 -85.835 -15.499 -119.502 -30.499s-61.5 -32.5 -83.5 -52.5
s-38.333 -41.5 -49 -64.5s-16 -45.5 -16 -67.5c0 -16 2.83301 -31.333 8.5 -46s14.334 -27.334 26.001 -38.001s25.834 -19.167 42.501 -25.5s36 -9.5 58 -9.5c22.667 0 45 8 67 24s44 37 66 63v247zM839.993 1304c0 -3.33301 -1.66895 -7.83398 -5.00195 -13.501
s-9.66602 -11.167 -18.999 -16.5l-412 -261c-13.333 -8 -25.666 -12 -36.999 -12c-16 0 -25 3.66699 -27 11s-0.333008 14.333 5 21l200 272c8 10.667 16.5 17.334 25.5 20.001s22.167 4 39.5 4h184c16 0 27.667 -2.5 35 -7.5s11 -10.833 11 -17.5z" />
    <glyph glyph-name="Aogonektilde" unicode="&#x104;&#x303;" horiz-adv-x="1428" 
d="M1403 -404c-22 -8 -45.0059 -14.6699 -69.0059 -20.0029s-47.667 -9.5 -71 -12.5s-45.666 -5.16699 -66.999 -6.5s-40 -2 -56 -2c-35.333 0 -66.166 4.66699 -92.499 14s-48.5 22 -66.5 38s-31.5 34.667 -40.5 56s-13.5 44 -13.5 68c0 23.333 3.33301 43.333 10 60
s14.834 31.334 24.501 44.001s20.334 24.5 32.001 35.5s22.334 22.667 32.001 35s17.834 26 24.501 41s10 33.167 10 54.5c0 16 -2.16699 34.167 -6.5 54.5s-11.833 43.5 -22.5 69.5l-142 342h-473l-155 -387l227 -32v-48h-545v48l213 32l482 1194h232l500 -1194l141 -32
v-48h-127c-53.333 0 -95.666 -7.33301 -126.999 -22s-55.333 -33.667 -72 -57s-27.334 -49.166 -32.001 -77.499s-7 -56.166 -7 -83.499c0 -25.333 4 -46.666 12 -63.999s18.5 -31.333 31.5 -42s28.167 -18.334 45.5 -23.001s35.666 -7 54.999 -7
c16.667 0 33.334 1.33301 50.001 4s32.667 6.66699 48 12zM446.994 541.997h411l-207 505zM475.994 1383c2.66699 36.667 8.50293 70.666 17.5029 101.999s20.833 58.333 35.5 81s32.167 40.334 52.5 53.001s43.5 19 69.5 19s50.167 -5.5 72.5 -16.5s43.333 -23 63 -36
l56.5 -36c18 -11 35.667 -16.5 53 -16.5c28 0 50 7.5 66 22.5s25.333 42.5 28 82.5h36c-1.33301 -36 -5.83301 -69.5 -13.5 -100.5s-18.5 -57.667 -32.5 -80s-31.167 -40 -51.5 -53s-43.5 -19.5 -69.5 -19.5c-26.667 0 -50.334 5.5 -71.001 16.5s-40.334 23 -59.001 36
s-37.334 25 -56.001 36s-39 16.5 -61 16.5c-25.333 0 -47.5 -8 -66.5 -24s-30.167 -43.667 -33.5 -83h-36z" />
    <glyph glyph-name="aogonektilde" unicode="&#x105;&#x303;" horiz-adv-x="842" 
d="M973 -404c-22 -8 -45.0049 -14.667 -69.0049 -20s-47.667 -9.5 -71 -12.5s-45.666 -5.16699 -66.999 -6.5s-40 -2 -56 -2c-35.333 0 -66.166 4.66699 -92.499 14s-48.5 22 -66.5 38s-31.5 34.667 -40.5 56s-13.5 44 -13.5 68c0 32 5.33301 61.333 16 88
s25.334 51 44.001 73s40.834 42 66.501 60s53.834 34 84.501 48c-14 -0 -27.333 2.33301 -40 7s-23.834 10.5 -33.501 17.5s-17.334 14.667 -23.001 23s-8.5 16.5 -8.5 24.5c-38.667 -36.667 -79 -62 -121 -76s-88 -21 -138 -21c-80.667 0 -143.5 19.333 -188.5 58
s-67.5 93.334 -67.5 164.001c0 40 8.33301 74.167 25 102.5s38.834 52.166 66.501 71.499s59.5 35.333 95.5 48s73.167 24 111.5 34s76.333 19.333 114 28s72.167 18.667 103.5 30v78c0 30.667 -4.5 57.167 -13.5 79.5s-20.333 40.5 -34 54.5s-28.167 24.333 -43.5 31
s-29.333 10 -42 10c-31.333 0 -58.5 -6.33301 -81.5 -19s-42.5 -29.834 -58.5 -51.501s-28.833 -47.167 -38.5 -76.5s-16.834 -60.333 -21.501 -93h-127v166c20.667 25.333 45.334 47.166 74.001 65.499s59.167 33.333 91.5 45s65.666 20.167 99.999 25.5s67.5 8 99.5 8
c48.667 0 95.334 -4 140.001 -12s83.834 -22 117.501 -42s60.5 -47.167 80.5 -81.5s30 -77.5 30 -129.5v-489l107 -32v-48h-78c-32.667 0 -61 -7.33301 -85 -22s-43.667 -33.667 -59 -57s-26.833 -49.166 -34.5 -77.499s-11.5 -56.166 -11.5 -83.499
c0 -25.333 4 -46.666 12 -63.999s18.5 -31.333 31.5 -42s28.167 -18.334 45.5 -23.001s35.666 -7 54.999 -7c16.667 0 33.334 1.33301 50.001 4s32.667 6.66699 48 12zM603.995 429c-46 -5.33301 -85.835 -15.499 -119.502 -30.499s-61.5 -32.5 -83.5 -52.5
s-38.333 -41.5 -49 -64.5s-16 -45.5 -16 -67.5c0 -16 2.83301 -31.333 8.5 -46s14.334 -27.334 26.001 -38.001s25.834 -19.167 42.501 -25.5s36 -9.5 58 -9.5c22.667 0 45 8 67 24s44 37 66 63v247zM240.993 1005c2.66699 36.667 8.50293 70.666 17.5029 101.999
s20.833 58.333 35.5 81s32.167 40.334 52.5 53.001s43.5 19 69.5 19s50.167 -5.5 72.5 -16.5s43.333 -23 63 -36l56.5 -36c18 -11 35.667 -16.5 53 -16.5c28 0 50 7.5 66 22.5s25.333 42.5 28 82.5h36c-1.33301 -36 -5.83301 -69.5 -13.5 -100.5s-18.5 -57.667 -32.5 -80
s-31.167 -40 -51.5 -53s-43.5 -19.5 -69.5 -19.5c-26.667 0 -50.334 5.5 -71.001 16.5s-40.334 23 -59.001 36s-37.334 25 -56.001 36s-39 16.5 -61 16.5c-25.333 0 -47.5 -8 -66.5 -24s-30.167 -43.667 -33.5 -83h-36z" />
    <glyph glyph-name="Eogonekacute" unicode="&#x118;&#x301;" horiz-adv-x="1294" 
d="M997 -404c-22 -8 -45.002 -14.665 -69.002 -19.998s-47.667 -9.5 -71 -12.5s-45.666 -5.16699 -66.999 -6.5s-40 -2 -56 -2c-35.333 0 -66.166 4.66699 -92.499 14s-48.5 22 -66.5 38s-31.5 34.667 -40.5 56s-13.5 44 -13.5 68c0 32 5.5 61.333 16.5 88
s26.833 51 47.5 73s45.5 42 74.5 60s61.167 34 96.5 48h-694v48l195 32v1114l-195 32v48h1202v-299l-56 -5l-78 214h-568v-498h325l59 153h46v-388h-46l-59 153h-325v-393c0 -28 1.5 -50.167 4.5 -66.5s8.33301 -28.833 16 -37.5s18 -14.167 31 -16.5s29.833 -3.5 50.5 -3.5
h483l101 242h60l-29 -329h-369c-28 0 -52.667 -6.83301 -74 -20.5s-39 -31.834 -53 -54.501s-24.667 -48.334 -32 -77.001s-11 -58 -11 -88c0 -25.333 4 -46.666 12 -63.999s18.5 -31.333 31.5 -42s28.167 -18.334 45.5 -23.001s35.666 -7 54.999 -7
c16.667 0 33.334 1.33301 50.001 4s32.667 6.66699 48 12zM1040 1714c0 -3.33301 -1.66895 -7.83398 -5.00195 -13.501s-9.66602 -11.167 -18.999 -16.5l-412 -261c-13.333 -8 -25.666 -12 -36.999 -12c-16 0 -25 3.66699 -27 11s-0.333008 14.333 5 21l200 272
c8 10.667 16.5 17.334 25.5 20.001s22.167 4 39.5 4h184c16 0 27.667 -2.5 35 -7.5s11 -10.833 11 -17.5z" />
    <glyph glyph-name="eogonekacute" unicode="&#x119;&#x301;" horiz-adv-x="916" 
d="M779 -404c-22 -8 -44.999 -14.6641 -68.999 -19.9971s-47.667 -9.5 -71 -12.5s-45.666 -5.16699 -66.999 -6.5s-40 -2 -56 -2c-35.333 0 -66.166 4.66699 -92.499 14s-48.5 22 -66.5 38s-31.5 34.667 -40.5 56s-13.5 44 -13.5 68c0 56 15.667 104 47 144s75 74 131 102
c-59.333 4.66699 -113.666 18.167 -162.999 40.5s-91.833 51.666 -127.5 87.999s-63.334 78.666 -83.001 126.999s-29.5 101.166 -29.5 158.499c0 68.667 12.333 130.5 37 185.5s58.5 101.5 101.5 139.5s93.667 67.167 152 87.5s121.5 30.5 189.5 30.5
c66 0 123 -10.833 171 -32.5s87.667 -51.5 119 -89.5s54.666 -82.667 69.999 -134s23.666 -107 24.999 -167h-577c5.33301 -100 32.666 -175.167 81.999 -225.5s116.333 -75.5 201 -75.5c24 0 46.667 2.5 68 7.5s42 12.5 62 22.5s40 23 60 39s41 35 63 57l43 -38
c-31.333 -41.333 -63.5 -74.333 -96.5 -99s-65.167 -45.334 -96.5 -62.001s-61 -31.667 -89 -45s-52.333 -29.333 -73 -48s-37.167 -42.167 -49.5 -70.5s-18.5 -66.166 -18.5 -113.499c0 -25.333 4 -46.666 12 -63.999s18.5 -31.333 31.5 -42s28.167 -18.334 45.5 -23.001
s35.666 -7 54.999 -7c16.667 0 33.334 1.33301 50.001 4s32.667 6.66699 48 12zM366.001 485.003h327.001c-0.666992 84.667 -15.834 147.834 -45.501 189.501s-70.5 62.5 -122.5 62.5c-54 0 -94 -22.333 -120 -67s-39 -106.334 -39 -185.001zM894.002 1304
c0 -3.33301 -1.66895 -7.83398 -5.00195 -13.501s-9.66602 -11.167 -18.999 -16.5l-412 -261c-13.333 -8 -25.666 -12 -36.999 -12c-16 0 -25 3.66699 -27 11s-0.333008 14.333 5 21l200 272c8 10.667 16.5 17.334 25.5 20.001s22.167 4 39.5 4h184
c16 0 27.667 -2.5 35 -7.5s11 -10.833 11 -17.5z" />
    <glyph glyph-name="Eogonektilde" unicode="&#x118;&#x303;" horiz-adv-x="1294" 
d="M534 1383c2.66699 36.667 8.50293 70.666 17.5029 101.999s20.833 58.333 35.5 81s32.167 40.334 52.5 53.001s43.5 19 69.5 19s50.167 -5.5 72.5 -16.5s43.333 -23 63 -36l56.5 -36c18 -11 35.667 -16.5 53 -16.5c28 0 50 7.5 66 22.5s25.333 42.5 28 82.5h36
c-1.33301 -36 -5.83301 -69.5 -13.5 -100.5s-18.5 -57.667 -32.5 -80s-31.167 -40 -51.5 -53s-43.5 -19.5 -69.5 -19.5c-26.667 0 -50.334 5.5 -71.001 16.5s-40.334 23 -59.001 36s-37.334 25 -56.001 36s-39 16.5 -61 16.5c-25.333 0 -47.5 -8 -66.5 -24
s-30.167 -43.667 -33.5 -83h-36zM997.003 -404.001c-22 -8 -45.002 -14.665 -69.002 -19.998s-47.667 -9.5 -71 -12.5s-45.666 -5.16699 -66.999 -6.5s-40 -2 -56 -2c-35.333 0 -66.166 4.66699 -92.499 14s-48.5 22 -66.5 38s-31.5 34.667 -40.5 56s-13.5 44 -13.5 68
c0 32 5.5 61.333 16.5 88s26.833 51 47.5 73s45.5 42 74.5 60s61.167 34 96.5 48h-694v48l195 32v1114l-195 32v48h1202v-299l-56 -5l-78 214h-568v-498h325l59 153h46v-388h-46l-59 153h-325v-393c0 -28 1.5 -50.167 4.5 -66.5s8.33301 -28.833 16 -37.5
s18 -14.167 31 -16.5s29.833 -3.5 50.5 -3.5h483l101 242h60l-29 -329h-369c-28 0 -52.667 -6.83301 -74 -20.5s-39 -31.834 -53 -54.501s-24.667 -48.334 -32 -77.001s-11 -58 -11 -88c0 -25.333 4 -46.666 12 -63.999s18.5 -31.333 31.5 -42s28.167 -18.334 45.5 -23.001
s35.666 -7 54.999 -7c16.667 0 33.334 1.33301 50.001 4s32.667 6.66699 48 12z" />
    <glyph glyph-name="eogonektilde" unicode="&#x119;&#x303;" horiz-adv-x="916" 
d="M779 -404c-22 -8 -44.999 -14.6641 -68.999 -19.9971s-47.667 -9.5 -71 -12.5s-45.666 -5.16699 -66.999 -6.5s-40 -2 -56 -2c-35.333 0 -66.166 4.66699 -92.499 14s-48.5 22 -66.5 38s-31.5 34.667 -40.5 56s-13.5 44 -13.5 68c0 56 15.667 104 47 144s75 74 131 102
c-59.333 4.66699 -113.666 18.167 -162.999 40.5s-91.833 51.666 -127.5 87.999s-63.334 78.666 -83.001 126.999s-29.5 101.166 -29.5 158.499c0 68.667 12.333 130.5 37 185.5s58.5 101.5 101.5 139.5s93.667 67.167 152 87.5s121.5 30.5 189.5 30.5
c66 0 123 -10.833 171 -32.5s87.667 -51.5 119 -89.5s54.666 -82.667 69.999 -134s23.666 -107 24.999 -167h-577c5.33301 -100 32.666 -175.167 81.999 -225.5s116.333 -75.5 201 -75.5c24 0 46.667 2.5 68 7.5s42 12.5 62 22.5s40 23 60 39s41 35 63 57l43 -38
c-31.333 -41.333 -63.5 -74.333 -96.5 -99s-65.167 -45.334 -96.5 -62.001s-61 -31.667 -89 -45s-52.333 -29.333 -73 -48s-37.167 -42.167 -49.5 -70.5s-18.5 -66.166 -18.5 -113.499c0 -25.333 4 -46.666 12 -63.999s18.5 -31.333 31.5 -42s28.167 -18.334 45.5 -23.001
s35.666 -7 54.999 -7c16.667 0 33.334 1.33301 50.001 4s32.667 6.66699 48 12zM366.001 485.003h327.001c-0.666992 84.667 -15.834 147.834 -45.501 189.501s-70.5 62.5 -122.5 62.5c-54 0 -94 -22.333 -120 -67s-39 -106.334 -39 -185.001zM262.002 1005
c2.66699 36.667 8.50293 70.666 17.5029 101.999s20.833 58.333 35.5 81s32.167 40.334 52.5 53.001s43.5 19 69.5 19s50.167 -5.5 72.5 -16.5s43.333 -23 63 -36l56.5 -36c18 -11 35.667 -16.5 53 -16.5c28 0 50 7.5 66 22.5s25.333 42.5 28 82.5h36
c-1.33301 -36 -5.83301 -69.5 -13.5 -100.5s-18.5 -57.667 -32.5 -80s-31.167 -40 -51.5 -53s-43.5 -19.5 -69.5 -19.5c-26.667 0 -50.334 5.5 -71.001 16.5s-40.334 23 -59.001 36s-37.334 25 -56.001 36s-39 16.5 -61 16.5c-25.333 0 -47.5 -8 -66.5 -24
s-30.167 -43.667 -33.5 -83h-36z" />
    <glyph glyph-name="Edotacute" unicode="&#x116;&#x301;" horiz-adv-x="1382" 
d="M62 0v48l195 32v1114l-195 32v48h1202v-299l-56 -5l-78 214h-568v-498h325l59 153h46v-388h-46l-59 153h-325v-393c0 -28 1.5 -50.167 4.5 -66.5s8.33301 -28.833 16 -37.5s18 -14.167 31 -16.5s29.833 -3.5 50.5 -3.5h483l101 242h60l-29 -329h-1217zM612 1461
c0 20.667 3.83301 40.165 11.5 58.498s18.334 34.166 32.001 47.499s29.5 23.833 47.5 31.5s37.333 11.5 58 11.5c21.333 0 41.166 -4 59.499 -12s34.333 -18.667 48 -32s24.5 -29.166 32.5 -47.499s12 -37.5 12 -57.5c0 -20.667 -4 -40.167 -12 -58.5
s-18.833 -34.5 -32.5 -48.5s-29.667 -25 -48 -33s-38.166 -12 -59.499 -12c-20.667 0 -40 3.83301 -58 11.5s-33.833 18.334 -47.5 32.001s-24.334 29.834 -32.001 48.501s-11.5 38.667 -11.5 60zM1118 1951c0 -3.33301 -1.66895 -7.83398 -5.00195 -13.501
s-9.66602 -11.167 -18.999 -16.5l-412 -261c-13.333 -8 -25.666 -12 -36.999 -12c-16 0 -25 3.66699 -27 11s-0.333008 14.333 5 21l200 272c8 10.667 16.5 17.334 25.5 20.001s22.167 4 39.5 4h184c16 0 27.667 -2.5 35 -7.5s11 -10.833 11 -17.5z" />
    <glyph glyph-name="edotacute" unicode="&#x117;&#x301;" horiz-adv-x="1044" 
d="M366 485l327.001 0.00195312c-0.666992 83.333 -15.834 146.166 -45.501 188.499s-70.5 63.5 -122.5 63.5c-54 0 -94 -22.333 -120 -67s-39 -106.334 -39 -185.001zM945.001 198.002c-65.333 -75.333 -131.997 -131.333 -199.997 -168s-142.333 -55 -223 -55
c-64 0 -123.167 10.333 -177.5 31s-101.333 49.5 -141 86.5s-70.5 81 -92.5 132s-33 106.5 -33 166.5c0 68.667 12.333 130.5 37 185.5s58.5 101.5 101.5 139.5s93.667 67.167 152 87.5s121.5 30.5 189.5 30.5c66 0 123 -10.833 171 -32.5s87.667 -51.5 119 -89.5
s54.666 -82.667 69.999 -134s23.666 -107 24.999 -167h-577c5.33301 -100 32.666 -175.167 81.999 -225.5s116.333 -75.5 201 -75.5c24 0 46.667 2.5 68 7.5s42 12.5 62 22.5s40 23 60 39s41 35 63 57zM388.004 1056c0 20.667 3.83301 40.165 11.5 58.498
s18.334 34.166 32.001 47.499s29.5 23.833 47.5 31.5s37.333 11.5 58 11.5c21.333 0 41.166 -4 59.499 -12s34.333 -18.667 48 -32s24.5 -29.166 32.5 -47.499s12 -37.5 12 -57.5c0 -20.667 -4 -40.167 -12 -58.5s-18.833 -34.5 -32.5 -48.5s-29.667 -25 -48 -33
s-38.166 -12 -59.499 -12c-20.667 0 -40 3.83301 -58 11.5s-33.833 18.334 -47.5 32.001s-24.334 29.834 -32.001 48.501s-11.5 38.667 -11.5 60zM899.004 1555c0 -3.33301 -1.66895 -7.83398 -5.00195 -13.501s-9.66602 -11.167 -18.999 -16.5l-412 -261
c-13.333 -8 -25.666 -12 -36.999 -12c-16 0 -25 3.66699 -27 11s-0.333008 14.333 5 21l200 272c8 10.667 16.5 17.334 25.5 20.001s22.167 4 39.5 4h184c16 0 27.667 -2.5 35 -7.5s11 -10.833 11 -17.5z" />
    <glyph glyph-name="Edottilde" unicode="&#x116;&#x303;" horiz-adv-x="1382" 
d="M62 0v48l195 32v1114l-195 32v48h1202v-299l-56 -5l-78 214h-568v-498h325l59 153h46v-388h-46l-59 153h-325v-393c0 -28 1.5 -50.167 4.5 -66.5s8.33301 -28.833 16 -37.5s18 -14.167 31 -16.5s29.833 -3.5 50.5 -3.5h483l101 242h60l-29 -329h-1217zM612 1482
c0 20.667 3.83301 40.165 11.5 58.498s18.334 34.166 32.001 47.499s29.5 23.833 47.5 31.5s37.333 11.5 58 11.5c21.333 0 41.166 -4 59.499 -12s34.333 -18.667 48 -32s24.5 -29.166 32.5 -47.499s12 -37.5 12 -57.5c0 -20.667 -4 -40.167 -12 -58.5
s-18.833 -34.5 -32.5 -48.5s-29.667 -25 -48 -33s-38.166 -12 -59.499 -12c-20.667 0 -40 3.83301 -58 11.5s-33.833 18.334 -47.5 32.001s-24.334 29.834 -32.001 48.501s-11.5 38.667 -11.5 60zM516 1676c2.66699 36.667 8.50293 70.666 17.5029 101.999
s20.833 58.333 35.5 81s32.167 40.334 52.5 53.001s43.5 19 69.5 19s50.167 -5.5 72.5 -16.5s43.333 -23 63 -36l56.5 -36c18 -11 35.667 -16.5 53 -16.5c28 0 50 7.5 66 22.5s25.333 42.5 28 82.5h36c-1.33301 -36 -5.83301 -69.5 -13.5 -100.5s-18.5 -57.667 -32.5 -80
s-31.167 -40 -51.5 -53s-43.5 -19.5 -69.5 -19.5c-26.667 0 -50.334 5.5 -71.001 16.5s-40.334 23 -59.001 36s-37.334 25 -56.001 36s-39 16.5 -61 16.5c-25.333 0 -47.5 -8 -66.5 -24s-30.167 -43.667 -33.5 -83h-36z" />
    <glyph glyph-name="edottilde" unicode="&#x117;&#x303;" horiz-adv-x="1044" 
d="M366 485l327.001 0.00195312c-0.666992 83.333 -15.834 146.166 -45.501 188.499s-70.5 63.5 -122.5 63.5c-54 0 -94 -22.333 -120 -67s-39 -106.334 -39 -185.001zM945.001 198.002c-65.333 -75.333 -131.997 -131.333 -199.997 -168s-142.333 -55 -223 -55
c-64 0 -123.167 10.333 -177.5 31s-101.333 49.5 -141 86.5s-70.5 81 -92.5 132s-33 106.5 -33 166.5c0 68.667 12.333 130.5 37 185.5s58.5 101.5 101.5 139.5s93.667 67.167 152 87.5s121.5 30.5 189.5 30.5c66 0 123 -10.833 171 -32.5s87.667 -51.5 119 -89.5
s54.666 -82.667 69.999 -134s23.666 -107 24.999 -167h-577c5.33301 -100 32.666 -175.167 81.999 -225.5s116.333 -75.5 201 -75.5c24 0 46.667 2.5 68 7.5s42 12.5 62 22.5s40 23 60 39s41 35 63 57zM388.004 1073c0 20.667 3.83301 40.165 11.5 58.498
s18.334 34.166 32.001 47.499s29.5 23.833 47.5 31.5s37.333 11.5 58 11.5c21.333 0 41.166 -4 59.499 -12s34.333 -18.667 48 -32s24.5 -29.166 32.5 -47.499s12 -37.5 12 -57.5c0 -20.667 -4 -40.167 -12 -58.5s-18.833 -34.5 -32.5 -48.5s-29.667 -25 -48 -33
s-38.166 -12 -59.499 -12c-20.667 0 -40 3.83301 -58 11.5s-33.833 18.334 -47.5 32.001s-24.334 29.834 -32.001 48.501s-11.5 38.667 -11.5 60zM292.004 1284c2.66699 36.667 8.50293 70.666 17.5029 101.999s20.833 58.333 35.5 81s32.167 40.334 52.5 53.001
s43.5 19 69.5 19s50.167 -5.5 72.5 -16.5s43.333 -23 63 -36l56.5 -36c18 -11 35.667 -16.5 53 -16.5c28 0 50 7.5 66 22.5s25.333 42.5 28 82.5h36c-1.33301 -36 -5.83301 -69.5 -13.5 -100.5s-18.5 -57.667 -32.5 -80s-31.167 -40 -51.5 -53s-43.5 -19.5 -69.5 -19.5
c-26.667 0 -50.334 5.5 -71.001 16.5s-40.334 23 -59.001 36s-37.334 25 -56.001 36s-39 16.5 -61 16.5c-25.333 0 -47.5 -8 -66.5 -24s-30.167 -43.667 -33.5 -83h-36z" />
    <glyph glyph-name="idotgrave" unicode="i&#x307;&#x300;" horiz-adv-x="647" 
d="M469 80l127 -32v-48h-530v48l129 32v650h-129v48l338 66h65v-764zM181 1056c0 20.667 3.83301 40.165 11.5 58.498s18.334 34.166 32.001 47.499s29.5 23.833 47.5 31.5s37.333 11.5 58 11.5c21.333 0 41.166 -4 59.499 -12s34.333 -18.667 48 -32
s24.5 -29.166 32.5 -47.499s12 -37.5 12 -57.5c0 -20.667 -4 -40.167 -12 -58.5s-18.833 -34.5 -32.5 -48.5s-29.667 -25 -48 -33s-38.166 -12 -59.499 -12c-20.667 0 -40 3.83301 -58 11.5s-33.833 18.334 -47.5 32.001s-24.334 29.834 -32.001 48.501
s-11.5 38.667 -11.5 60zM-39 1555c0 6.66699 3.66602 12.501 10.999 17.501s19 7.5 35 7.5h184c17.333 0 30.5 -1.33301 39.5 -4s17.5 -9.33398 25.5 -20.001l200 -272c5.33301 -6.66699 7 -13.667 5 -21s-11 -11 -27 -11c-12 0 -24.333 4 -37 12l-412 261
c-9.33301 5.33301 -15.666 10.833 -18.999 16.5s-5 10.167 -5 13.5z" />
    <glyph glyph-name="idotacute" unicode="i&#x307;&#x301;" horiz-adv-x="647" 
d="M469 80l127 -32v-48h-530v48l129 32v650h-129v48l338 66h65v-764zM181 1056c0 20.667 3.83301 40.165 11.5 58.498s18.334 34.166 32.001 47.499s29.5 23.833 47.5 31.5s37.333 11.5 58 11.5c21.333 0 41.166 -4 59.499 -12s34.333 -18.667 48 -32
s24.5 -29.166 32.5 -47.499s12 -37.5 12 -57.5c0 -20.667 -4 -40.167 -12 -58.5s-18.833 -34.5 -32.5 -48.5s-29.667 -25 -48 -33s-38.166 -12 -59.499 -12c-20.667 0 -40 3.83301 -58 11.5s-33.833 18.334 -47.5 32.001s-24.334 29.834 -32.001 48.501
s-11.5 38.667 -11.5 60zM665 1555c0 -3.33301 -1.66895 -7.83398 -5.00195 -13.501s-9.66602 -11.167 -18.999 -16.5l-412 -261c-13.333 -8 -25.666 -12 -36.999 -12c-16 0 -25 3.66699 -27 11s-0.333008 14.333 5 21l200 272c8 10.667 16.5 17.334 25.5 20.001
s22.167 4 39.5 4h184c16 0 27.667 -2.5 35 -7.5s11 -10.833 11 -17.5z" />
    <glyph glyph-name="idottilde" unicode="i&#x307;&#x303;" horiz-adv-x="647" 
d="M469 80l127 -32v-48h-530v48l129 32v650h-129v48l338 66h65v-764zM181 1073c0 20.667 3.83301 40.165 11.5 58.498s18.334 34.166 32.001 47.499s29.5 23.833 47.5 31.5s37.333 11.5 58 11.5c21.333 0 41.166 -4 59.499 -12s34.333 -18.667 48 -32
s24.5 -29.166 32.5 -47.499s12 -37.5 12 -57.5c0 -20.667 -4 -40.167 -12 -58.5s-18.833 -34.5 -32.5 -48.5s-29.667 -25 -48 -33s-38.166 -12 -59.499 -12c-20.667 0 -40 3.83301 -58 11.5s-33.833 18.334 -47.5 32.001s-24.334 29.834 -32.001 48.501
s-11.5 38.667 -11.5 60zM81 1284c2.66699 36.667 8.50293 70.666 17.5029 101.999s20.833 58.333 35.5 81s32.167 40.334 52.5 53.001s43.5 19 69.5 19s50.167 -5.5 72.5 -16.5s43.333 -23 63 -36l56.5 -36c18 -11 35.667 -16.5 53 -16.5c28 0 50 7.5 66 22.5
s25.333 42.5 28 82.5h36c-1.33301 -36 -5.83301 -69.5 -13.5 -100.5s-18.5 -57.667 -32.5 -80s-31.167 -40 -51.5 -53s-43.5 -19.5 -69.5 -19.5c-26.667 0 -50.334 5.5 -71.001 16.5s-40.334 23 -59.001 36s-37.334 25 -56.001 36s-39 16.5 -61 16.5
c-25.333 0 -47.5 -8 -66.5 -24s-30.167 -43.667 -33.5 -83h-36z" />
    <glyph glyph-name="Iogonekacute" unicode="&#x12e;&#x301;" horiz-adv-x="678" 
d="M636 -404c-22 -8 -45.001 -14.667 -69.001 -20s-47.667 -9.5 -71 -12.5s-45.666 -5.16699 -66.999 -6.5s-40 -2 -56 -2c-35.333 0 -66.166 4.66699 -92.499 14s-48.5 22 -66.5 38s-31.5 34.667 -40.5 56s-13.5 44 -13.5 68c0 34.667 6 66.5 18 95.5s29 54.667 51 77
s48.167 41.666 78.5 57.999s64.166 29.166 101.499 38.499h-362v48l195 51v1095l-197 32v48h698v-48l-194 -32v-1095l194 -51v-48h-159c-36.667 0 -68 -7.33301 -94 -22s-47.167 -33.667 -63.5 -57s-28.333 -49.166 -36 -77.499s-11.5 -56.166 -11.5 -83.499
c0 -25.333 4 -46.666 12 -63.999s18.5 -31.333 31.5 -42s28.167 -18.334 45.5 -23.001s35.666 -7 54.999 -7c16.667 0 33.334 1.33301 50.001 4s32.667 6.66699 48 12zM745.999 1714c0 -3.33301 -1.66895 -7.83398 -5.00195 -13.501s-9.66602 -11.167 -18.999 -16.5
l-412 -261c-13.333 -8 -25.666 -12 -36.999 -12c-16 0 -25 3.66699 -27 11s-0.333008 14.333 5 21l200 272c8 10.667 16.5 17.334 25.5 20.001s22.167 4 39.5 4h184c16 0 27.667 -2.5 35 -7.5s11 -10.833 11 -17.5z" />
    <glyph glyph-name="iogonekdotacute" unicode="&#x12f;&#x307;&#x301;" horiz-adv-x="647" 
d="M570 -404c-22 -8 -45.002 -14.667 -69.002 -20s-47.667 -9.5 -71 -12.5s-45.666 -5.16699 -66.999 -6.5s-40 -2 -56 -2c-35.333 0 -66.166 4.66699 -92.499 14s-48.5 22 -66.5 38s-31.5 34.667 -40.5 56s-13.5 44 -13.5 68c0 63.333 20.5 116.833 61.5 160.5
s96.833 79.834 167.5 108.501h-257v48l129 32v650h-129v48l338 66h65v-764l127 -32v-48h-92c-67.333 0 -116 -21.333 -146 -64s-45 -101.334 -45 -176.001c0 -25.333 4 -46.666 12 -63.999s18.5 -31.333 31.5 -42s28.167 -18.334 45.5 -23.001s35.666 -7 54.999 -7
c16.667 0 33.334 1.33301 50.001 4s32.667 6.66699 48 12zM180.998 1056c0 20.667 3.83301 40.165 11.5 58.498s18.334 34.166 32.001 47.499s29.5 23.833 47.5 31.5s37.333 11.5 58 11.5c21.333 0 41.166 -4 59.499 -12s34.333 -18.667 48 -32s24.5 -29.166 32.5 -47.499
s12 -37.5 12 -57.5c0 -20.667 -4 -40.167 -12 -58.5s-18.833 -34.5 -32.5 -48.5s-29.667 -25 -48 -33s-38.166 -12 -59.499 -12c-20.667 0 -40 3.83301 -58 11.5s-33.833 18.334 -47.5 32.001s-24.334 29.834 -32.001 48.501s-11.5 38.667 -11.5 60zM664.998 1555
c0 -3.33301 -1.66895 -7.83398 -5.00195 -13.501s-9.66602 -11.167 -18.999 -16.5l-412 -261c-13.333 -8 -25.666 -12 -36.999 -12c-16 0 -25 3.66699 -27 11s-0.333008 14.333 5 21l200 272c8 10.667 16.5 17.334 25.5 20.001s22.167 4 39.5 4h184
c16 0 27.667 -2.5 35 -7.5s11 -10.833 11 -17.5z" />
    <glyph glyph-name="Iogonektilde" unicode="&#x12e;&#x303;" horiz-adv-x="678" 
d="M636 -404c-22 -8 -45.001 -14.667 -69.001 -20s-47.667 -9.5 -71 -12.5s-45.666 -5.16699 -66.999 -6.5s-40 -2 -56 -2c-35.333 0 -66.166 4.66699 -92.499 14s-48.5 22 -66.5 38s-31.5 34.667 -40.5 56s-13.5 44 -13.5 68c0 34.667 6 66.5 18 95.5s29 54.667 51 77
s48.167 41.666 78.5 57.999s64.166 29.166 101.499 38.499h-362v48l195 51v1095l-197 32v48h698v-48l-194 -32v-1095l194 -51v-48h-159c-36.667 0 -68 -7.33301 -94 -22s-47.167 -33.667 -63.5 -57s-28.333 -49.166 -36 -77.499s-11.5 -56.166 -11.5 -83.499
c0 -25.333 4 -46.666 12 -63.999s18.5 -31.333 31.5 -42s28.167 -18.334 45.5 -23.001s35.666 -7 54.999 -7c16.667 0 33.334 1.33301 50.001 4s32.667 6.66699 48 12zM119.999 1383c2.66699 36.667 8.50293 70.666 17.5029 101.999s20.833 58.333 35.5 81
s32.167 40.334 52.5 53.001s43.5 19 69.5 19s50.167 -5.5 72.5 -16.5s43.333 -23 63 -36l56.5 -36c18 -11 35.667 -16.5 53 -16.5c28 0 50 7.5 66 22.5s25.333 42.5 28 82.5h36c-1.33301 -36 -5.83301 -69.5 -13.5 -100.5s-18.5 -57.667 -32.5 -80s-31.167 -40 -51.5 -53
s-43.5 -19.5 -69.5 -19.5c-26.667 0 -50.334 5.5 -71.001 16.5s-40.334 23 -59.001 36s-37.334 25 -56.001 36s-39 16.5 -61 16.5c-25.333 0 -47.5 -8 -66.5 -24s-30.167 -43.667 -33.5 -83h-36z" />
    <glyph glyph-name="iogonekdottilde" unicode="&#x12f;&#x307;&#x303;" horiz-adv-x="647" 
d="M570 -404c-22 -8 -45.002 -14.667 -69.002 -20s-47.667 -9.5 -71 -12.5s-45.666 -5.16699 -66.999 -6.5s-40 -2 -56 -2c-35.333 0 -66.166 4.66699 -92.499 14s-48.5 22 -66.5 38s-31.5 34.667 -40.5 56s-13.5 44 -13.5 68c0 63.333 20.5 116.833 61.5 160.5
s96.833 79.834 167.5 108.501h-257v48l129 32v650h-129v48l338 66h65v-764l127 -32v-48h-92c-67.333 0 -116 -21.333 -146 -64s-45 -101.334 -45 -176.001c0 -25.333 4 -46.666 12 -63.999s18.5 -31.333 31.5 -42s28.167 -18.334 45.5 -23.001s35.666 -7 54.999 -7
c16.667 0 33.334 1.33301 50.001 4s32.667 6.66699 48 12zM180.998 1073c0 20.667 3.83301 40.165 11.5 58.498s18.334 34.166 32.001 47.499s29.5 23.833 47.5 31.5s37.333 11.5 58 11.5c21.333 0 41.166 -4 59.499 -12s34.333 -18.667 48 -32s24.5 -29.166 32.5 -47.499
s12 -37.5 12 -57.5c0 -20.667 -4 -40.167 -12 -58.5s-18.833 -34.5 -32.5 -48.5s-29.667 -25 -48 -33s-38.166 -12 -59.499 -12c-20.667 0 -40 3.83301 -58 11.5s-33.833 18.334 -47.5 32.001s-24.334 29.834 -32.001 48.501s-11.5 38.667 -11.5 60zM80.998 1284
c2.66699 36.667 8.50293 70.666 17.5029 101.999s20.833 58.333 35.5 81s32.167 40.334 52.5 53.001s43.5 19 69.5 19s50.167 -5.5 72.5 -16.5s43.333 -23 63 -36l56.5 -36c18 -11 35.667 -16.5 53 -16.5c28 0 50 7.5 66 22.5s25.333 42.5 28 82.5h36
c-1.33301 -36 -5.83301 -69.5 -13.5 -100.5s-18.5 -57.667 -32.5 -80s-31.167 -40 -51.5 -53s-43.5 -19.5 -69.5 -19.5c-26.667 0 -50.334 5.5 -71.001 16.5s-40.334 23 -59.001 36s-37.334 25 -56.001 36s-39 16.5 -61 16.5c-25.333 0 -47.5 -8 -66.5 -24
s-30.167 -43.667 -33.5 -83h-36z" />
    <glyph glyph-name="Jtilde" unicode="J&#x303;" horiz-adv-x="780" 
d="M140 -397c25.333 30.667 44.833 63.833 58.5 99.5s23.5 72 29.5 109s9.5 74.167 10.5 111.5s1.5 73 1.5 107v1164l-195 32v48h698v-48l-194 -31v-1175l-376 -497zM118 1383c2.66699 36.667 8.50293 70.666 17.5029 101.999s20.833 58.333 35.5 81
s32.167 40.334 52.5 53.001s43.5 19 69.5 19s50.167 -5.5 72.5 -16.5s43.333 -23 63 -36l56.5 -36c18 -11 35.667 -16.5 53 -16.5c28 0 50 7.5 66 22.5s25.333 42.5 28 82.5h36c-1.33301 -36 -5.83301 -69.5 -13.5 -100.5s-18.5 -57.667 -32.5 -80s-31.167 -40 -51.5 -53
s-43.5 -19.5 -69.5 -19.5c-26.667 0 -50.334 5.5 -71.001 16.5s-40.334 23 -59.001 36s-37.334 25 -56.001 36s-39 16.5 -61 16.5c-25.333 0 -47.5 -8 -66.5 -24s-30.167 -43.667 -33.5 -83h-36z" />
    <glyph glyph-name="jdottilde" unicode="j&#x307;&#x303;" horiz-adv-x="552" 
d="M180 730h-128.999v48l338 56h65v-834l-275 -483l-82 35c18.667 30.667 33.667 58.667 45 84s19.666 51.5 24.999 78.5s8.83301 56.333 10.5 88s2.5 69.167 2.5 112.5v815zM64.001 1284c2.66699 36.667 8.50293 70.666 17.5029 101.999s20.833 58.333 35.5 81
s32.167 40.334 52.5 53.001s43.5 19 69.5 19s50.167 -5.5 72.5 -16.5s43.333 -23 63 -36l56.5 -36c18 -11 35.667 -16.5 53 -16.5c28 0 50 7.5 66 22.5s25.333 42.5 28 82.5h36c-1.33301 -36 -5.83301 -69.5 -13.5 -100.5s-18.5 -57.667 -32.5 -80s-31.167 -40 -51.5 -53
s-43.5 -19.5 -69.5 -19.5c-26.667 0 -50.334 5.5 -71.001 16.5s-40.334 23 -59.001 36s-37.334 25 -56.001 36s-39 16.5 -61 16.5c-25.333 0 -47.5 -8 -66.5 -24s-30.167 -43.667 -33.5 -83h-36zM170.004 1072c0 20.667 3.83301 40.165 11.5 58.498
s18.334 34.166 32.001 47.499s29.5 23.833 47.5 31.5s37.333 11.5 58 11.5c21.333 0 41.166 -4 59.499 -12s34.333 -18.667 48 -32s24.5 -29.166 32.5 -47.499s12 -37.5 12 -57.5c0 -20.667 -4 -40.167 -12 -58.5s-18.833 -34.5 -32.5 -48.5s-29.667 -25 -48 -33
s-38.166 -12 -59.499 -12c-20.667 0 -40 3.83301 -58 11.5s-33.833 18.334 -47.5 32.001s-24.334 29.834 -32.001 48.501s-11.5 38.667 -11.5 60z" />
    <glyph glyph-name="Ltilde" unicode="L&#x303;" horiz-adv-x="1317" 
d="M603 87h444l159 271h70l-70 -358h-1105v48l195 32v1114l-195 32v48h696v-48l-194 -32v-1107zM172 1383c2.66699 36.667 8.50293 70.666 17.5029 101.999s20.833 58.333 35.5 81s32.167 40.334 52.5 53.001s43.5 19 69.5 19s50.167 -5.5 72.5 -16.5s43.333 -23 63 -36
l56.5 -36c18 -11 35.667 -16.5 53 -16.5c28 0 50 7.5 66 22.5s25.333 42.5 28 82.5h36c-1.33301 -36 -5.83301 -69.5 -13.5 -100.5s-18.5 -57.667 -32.5 -80s-31.167 -40 -51.5 -53s-43.5 -19.5 -69.5 -19.5c-26.667 0 -50.334 5.5 -71.001 16.5s-40.334 23 -59.001 36
s-37.334 25 -56.001 36s-39 16.5 -61 16.5c-25.333 0 -47.5 -8 -66.5 -24s-30.167 -43.667 -33.5 -83h-36z" />
    <glyph glyph-name="ltilde" unicode="l&#x303;" horiz-adv-x="638" 
d="M461 80l127 -32v-48h-530v48l129 32v1146h-129v48l338 88h65v-1282zM46 1471c2.66699 36.667 8.50293 70.666 17.5029 101.999s20.833 58.333 35.5 81s32.167 40.334 52.5 53.001s43.5 19 69.5 19s50.167 -5.5 72.5 -16.5s43.333 -23 63 -36l56.5 -36
c18 -11 35.667 -16.5 53 -16.5c28 0 50 7.5 66 22.5s25.333 42.5 28 82.5h36c-1.33301 -36 -5.83301 -69.5 -13.5 -100.5s-18.5 -57.667 -32.5 -80s-31.167 -40 -51.5 -53s-43.5 -19.5 -69.5 -19.5c-26.667 0 -50.334 5.5 -71.001 16.5s-40.334 23 -59.001 36
s-37.334 25 -56.001 36s-39 16.5 -61 16.5c-25.333 0 -47.5 -8 -66.5 -24s-30.167 -43.667 -33.5 -83h-36z" />
    <glyph glyph-name="Mtilde" unicode="M&#x303;" horiz-adv-x="1984" 
d="M79 48l167 32l103 1114l-192 32v48h451l413 -922l419 922h416v-48l-155 -32l60 -1114l171 -32v-48h-680v48l206 32l-44 937l-470 -1017h-59l-477 1029l-41 -949l171 -32v-48h-459v48zM743 1383c2.66699 36.667 8.50293 70.666 17.5029 101.999s20.833 58.333 35.5 81
s32.167 40.334 52.5 53.001s43.5 19 69.5 19s50.167 -5.5 72.5 -16.5s43.333 -23 63 -36l56.5 -36c18 -11 35.667 -16.5 53 -16.5c28 0 50 7.5 66 22.5s25.333 42.5 28 82.5h36c-1.33301 -36 -5.83301 -69.5 -13.5 -100.5s-18.5 -57.667 -32.5 -80s-31.167 -40 -51.5 -53
s-43.5 -19.5 -69.5 -19.5c-26.667 0 -50.334 5.5 -71.001 16.5s-40.334 23 -59.001 36s-37.334 25 -56.001 36s-39 16.5 -61 16.5c-25.333 0 -47.5 -8 -66.5 -24s-30.167 -43.667 -33.5 -83h-36z" />
    <glyph glyph-name="mtilde" unicode="m&#x303;" horiz-adv-x="1927" 
d="M461 80l127.003 -32v-48h-530v48l129 32v650h-129v48l338 56h65v-112c32 17.333 62.5 33 91.5 47s58.667 25.833 89 35.5s61.833 17 94.5 22s68.334 7.5 107.001 7.5c54 0 100.167 -10.833 138.5 -32.5s67.166 -52.5 86.499 -92.5c34.667 19.333 67.667 36.666 99 51.999
s63 28.5 95 39.5s65.167 19.333 99.5 25s72.166 8.5 113.499 8.5c38.667 0 73.5 -5.66699 104.5 -17s57.167 -27.666 78.5 -48.999s37.833 -47.333 49.5 -78s17.5 -65 17.5 -103v-507l127 -32v-48h-530v48l129 32v399c0 44.667 -3.5 82.167 -10.5 112.5
s-16.5 54.833 -28.5 73.5s-26.333 32 -43 40s-34.667 12 -54 12c-32 0 -66.833 -9 -104.5 -27s-76.834 -39 -117.501 -63v-547l127 -32v-48h-530v48l129 32v399c0 44.667 -3.5 82.167 -10.5 112.5s-16.5 54.833 -28.5 73.5s-26.333 32 -43 40s-34.667 12 -54 12
c-32 0 -66.833 -9 -104.5 -27s-76.834 -39 -117.501 -63v-547zM673.003 1005c2.66699 36.667 8.50293 70.666 17.5029 101.999s20.833 58.333 35.5 81s32.167 40.334 52.5 53.001s43.5 19 69.5 19s50.167 -5.5 72.5 -16.5s43.333 -23 63 -36l56.5 -36
c18 -11 35.667 -16.5 53 -16.5c28 0 50 7.5 66 22.5s25.333 42.5 28 82.5h36c-1.33301 -36 -5.83301 -69.5 -13.5 -100.5s-18.5 -57.667 -32.5 -80s-31.167 -40 -51.5 -53s-43.5 -19.5 -69.5 -19.5c-26.667 0 -50.334 5.5 -71.001 16.5s-40.334 23 -59.001 36
s-37.334 25 -56.001 36s-39 16.5 -61 16.5c-25.333 0 -47.5 -8 -66.5 -24s-30.167 -43.667 -33.5 -83h-36z" />
    <glyph glyph-name="Rtilde" unicode="R&#x303;" horiz-adv-x="1520" 
d="M551 77l192.004 -29.001v-49h-696v49l195 32v1114l-195 32v48c173.333 8 315 13.5 425 16.5s190.333 4.5 241 4.5c158.667 0 280.334 -26.167 365.001 -78.5s127 -134.5 127 -246.5c0 -37.333 -6.33301 -72 -19 -104s-31 -61.333 -55 -88s-53 -50.834 -87 -72.501
s-72.333 -41.5 -115 -59.5c33.333 -4 62.666 -15.167 87.999 -33.5s48.166 -41.166 68.499 -68.499s38.833 -58.166 55.5 -92.499l51 -104.5c17.333 -35.333 35.333 -70 54 -104s40.167 -64.833 64.5 -92.5s52.166 -50.667 83.499 -69s67.666 -29.5 108.999 -33.5v-48h-431
c-20.667 38 -40.834 79.833 -60.501 125.5l-62.5 138.5c-22 46.667 -45.5 92 -70.5 136s-52.833 83 -83.5 117s-64.667 61.333 -102 82s-79 31 -125 31h-17v-553zM551.004 1212l-0.000976562 -511.997c14 -2 27.833 -3.33301 41.5 -4s26.834 -1 39.501 -1
c42.667 0 81 5.16699 115 15.5s63 26.166 87 47.499s42.333 48.833 55 82.5s19 73.5 19 119.5c0 44 -5.83301 82.667 -17.5 116s-28.167 61.166 -49.5 83.499s-47 39.166 -77 50.499s-63.333 17 -100 17c-35.333 0 -73 -5 -113 -15zM435.003 1383
c2.66699 36.667 8.50293 70.666 17.5029 101.999s20.833 58.333 35.5 81s32.167 40.334 52.5 53.001s43.5 19 69.5 19s50.167 -5.5 72.5 -16.5s43.333 -23 63 -36l56.5 -36c18 -11 35.667 -16.5 53 -16.5c28 0 50 7.5 66 22.5s25.333 42.5 28 82.5h36
c-1.33301 -36 -5.83301 -69.5 -13.5 -100.5s-18.5 -57.667 -32.5 -80s-31.167 -40 -51.5 -53s-43.5 -19.5 -69.5 -19.5c-26.667 0 -50.334 5.5 -71.001 16.5s-40.334 23 -59.001 36s-37.334 25 -56.001 36s-39 16.5 -61 16.5c-25.333 0 -47.5 -8 -66.5 -24
s-30.167 -43.667 -33.5 -83h-36z" />
    <glyph glyph-name="rtilde" unicode="r&#x303;" horiz-adv-x="905" 
d="M456 80l127.001 -32v-48h-530v48l129 32v650h-129v48l338 66h65v-252c28.667 53.333 53.5 95.833 74.5 127.5s39.667 56 56 73s30.833 28.167 43.5 33.5s25 8 37 8c17.333 0 35 -2 53 -6s39 -10.667 63 -20l93 -39l-108 -216c-48.667 20.667 -85.334 34.5 -110.001 41.5
s-43.667 10.5 -57 10.5c-17.333 0 -38.833 -10.167 -64.5 -30.5s-52.5 -51.5 -80.5 -93.5v-401zM182.001 1005c2.66699 36.667 8.50293 70.666 17.5029 101.999s20.833 58.333 35.5 81s32.167 40.334 52.5 53.001s43.5 19 69.5 19s50.167 -5.5 72.5 -16.5s43.333 -23 63 -36
l56.5 -36c18 -11 35.667 -16.5 53 -16.5c28 0 50 7.5 66 22.5s25.333 42.5 28 82.5h36c-1.33301 -36 -5.83301 -69.5 -13.5 -100.5s-18.5 -57.667 -32.5 -80s-31.167 -40 -51.5 -53s-43.5 -19.5 -69.5 -19.5c-26.667 0 -50.334 5.5 -71.001 16.5s-40.334 23 -59.001 36
s-37.334 25 -56.001 36s-39 16.5 -61 16.5c-25.333 0 -47.5 -8 -66.5 -24s-30.167 -43.667 -33.5 -83h-36z" />
    <glyph glyph-name="Uogonekacute" unicode="&#x172;&#x301;" horiz-adv-x="1585" 
d="M1100 12c-30 -12 -58.668 -24.166 -86.001 -36.499s-51.166 -27.833 -71.499 -46.5s-36.666 -41.334 -48.999 -68.001s-18.5 -60.334 -18.5 -101.001c0 -25.333 4 -46.666 12 -63.999s18.5 -31.333 31.5 -42s28.167 -18.334 45.5 -23.001s35.666 -7 54.999 -7
c16.667 0 33.334 1.33301 50.001 4s32.667 6.66699 48 12l15 -44c-22 -8 -45 -14.667 -69 -20s-47.667 -9.5 -71 -12.5s-45.666 -5.16699 -66.999 -6.5s-40 -2 -56 -2c-35.333 0 -66.166 4.66699 -92.499 14s-48.5 22 -66.5 38s-31.5 34.667 -40.5 56s-13.5 44 -13.5 68
c0 28.667 5.5 55.167 16.5 79.5s26.167 46.5 45.5 66.5s42.166 38 68.499 54s54.5 30.667 84.5 44c-9.33301 -0.666992 -18.5 -1.16699 -27.5 -1.5s-18.167 -0.5 -27.5 -0.5c-103.333 0 -190.833 10.5 -262.5 31.5s-129.834 52.667 -174.501 95s-77.167 95.333 -97.5 159
s-30.5 138.5 -30.5 224.5v711l-194 32v48h690v-48l-195 -32v-687c0 -63.333 3.83301 -121 11.5 -173s23.5 -96.5 47.5 -133.5s58.833 -65.5 104.5 -85.5s106.5 -30 182.5 -30c138 0 239.833 39.833 305.5 119.5s95.167 204.834 88.5 375.501l-25 614l-176 32v48h507v-48
l-199 -32l-23 -664c-2 -63.333 -7.5 -121.833 -16.5 -175.5s-23.833 -102.5 -44.5 -146.5s-48.334 -82.5 -83.001 -115.5s-78.667 -59.833 -132 -80.5zM1256 1714c0 -3.33301 -1.66895 -7.83398 -5.00195 -13.501s-9.66602 -11.167 -18.999 -16.5l-412 -261
c-13.333 -8 -25.666 -12 -36.999 -12c-16 0 -25 3.66699 -27 11s-0.333008 14.333 5 21l200 272c8 10.667 16.5 17.334 25.5 20.001s22.167 4 39.5 4h184c16 0 27.667 -2.5 35 -7.5s11 -10.833 11 -17.5z" />
    <glyph glyph-name="uogonekacute" unicode="&#x173;&#x301;" horiz-adv-x="1086" 
d="M1159 -404c-22 -8 -45.0029 -14.668 -69.0029 -20.001s-47.667 -9.5 -71 -12.5s-45.666 -5.16699 -66.999 -6.5s-40 -2 -56 -2c-35.333 0 -66.166 4.66699 -92.499 14s-48.5 22 -66.5 38s-31.5 34.667 -40.5 56s-13.5 44 -13.5 68c0 62.667 19.333 116.167 58 160.5
s92.334 80.5 161.001 108.5c-28.667 0 -54.5 10.5 -77.5 31.5s-36.5 51.5 -40.5 91.5c-40 -26.667 -76.5 -49.334 -109.5 -68.001s-64.167 -34 -93.5 -46s-58.166 -20.667 -86.499 -26s-58.5 -8 -90.5 -8c-44 0 -81.167 7.83301 -111.5 23.5s-54.833 38.5 -73.5 68.5
s-32.167 66.5 -40.5 109.5s-12.5 92.167 -12.5 147.5v406h-129v48l338 66h65v-477c0 -48 3 -88 9 -120s15 -57.5 27 -76.5s26.667 -32.333 44 -40s37.666 -11.5 60.999 -11.5c32.667 0 66.667 9.33301 102 28s69 42 101 70v513h-129v49l338 65h65v-764l132 -32v-48h-79
c-35.333 0 -66 -6.16699 -92 -18.5s-47.667 -29.166 -65 -50.499s-30.333 -46.666 -39 -75.999s-13 -61 -13 -95c0 -25.333 4 -46.666 12 -63.999s18.5 -31.333 31.5 -42s28.167 -18.334 45.5 -23.001s35.666 -7 54.999 -7c16.667 0 33.334 1.33301 50.001 4
s32.667 6.66699 48 12zM993.997 1304c0 -3.33301 -1.66895 -7.83398 -5.00195 -13.501s-9.66602 -11.167 -18.999 -16.5l-412 -261c-13.333 -8 -25.666 -12 -36.999 -12c-16 0 -25 3.66699 -27 11s-0.333008 14.333 5 21l200 272c8 10.667 16.5 17.334 25.5 20.001
s22.167 4 39.5 4h184c16 0 27.667 -2.5 35 -7.5s11 -10.833 11 -17.5z" />
    <glyph glyph-name="Uogonektilde" unicode="&#x172;&#x303;" horiz-adv-x="1585" 
d="M1100 12c-30 -12 -58.668 -24.166 -86.001 -36.499s-51.166 -27.833 -71.499 -46.5s-36.666 -41.334 -48.999 -68.001s-18.5 -60.334 -18.5 -101.001c0 -25.333 4 -46.666 12 -63.999s18.5 -31.333 31.5 -42s28.167 -18.334 45.5 -23.001s35.666 -7 54.999 -7
c16.667 0 33.334 1.33301 50.001 4s32.667 6.66699 48 12l15 -44c-22 -8 -45 -14.667 -69 -20s-47.667 -9.5 -71 -12.5s-45.666 -5.16699 -66.999 -6.5s-40 -2 -56 -2c-35.333 0 -66.166 4.66699 -92.499 14s-48.5 22 -66.5 38s-31.5 34.667 -40.5 56s-13.5 44 -13.5 68
c0 28.667 5.5 55.167 16.5 79.5s26.167 46.5 45.5 66.5s42.166 38 68.499 54s54.5 30.667 84.5 44c-9.33301 -0.666992 -18.5 -1.16699 -27.5 -1.5s-18.167 -0.5 -27.5 -0.5c-103.333 0 -190.833 10.5 -262.5 31.5s-129.834 52.667 -174.501 95s-77.167 95.333 -97.5 159
s-30.5 138.5 -30.5 224.5v711l-194 32v48h690v-48l-195 -32v-687c0 -63.333 3.83301 -121 11.5 -173s23.5 -96.5 47.5 -133.5s58.833 -65.5 104.5 -85.5s106.5 -30 182.5 -30c138 0 239.833 39.833 305.5 119.5s95.167 204.834 88.5 375.501l-25 614l-176 32v48h507v-48
l-199 -32l-23 -664c-2 -63.333 -7.5 -121.833 -16.5 -175.5s-23.833 -102.5 -44.5 -146.5s-48.334 -82.5 -83.001 -115.5s-78.667 -59.833 -132 -80.5zM645.999 1383c2.66699 36.667 8.50293 70.666 17.5029 101.999s20.833 58.333 35.5 81s32.167 40.334 52.5 53.001
s43.5 19 69.5 19s50.167 -5.5 72.5 -16.5s43.333 -23 63 -36l56.5 -36c18 -11 35.667 -16.5 53 -16.5c28 0 50 7.5 66 22.5s25.333 42.5 28 82.5h36c-1.33301 -36 -5.83301 -69.5 -13.5 -100.5s-18.5 -57.667 -32.5 -80s-31.167 -40 -51.5 -53s-43.5 -19.5 -69.5 -19.5
c-26.667 0 -50.334 5.5 -71.001 16.5s-40.334 23 -59.001 36s-37.334 25 -56.001 36s-39 16.5 -61 16.5c-25.333 0 -47.5 -8 -66.5 -24s-30.167 -43.667 -33.5 -83h-36z" />
    <glyph glyph-name="uogonektilde" unicode="&#x173;&#x303;" horiz-adv-x="1086" 
d="M1159 -404c-22 -8 -45.0029 -14.668 -69.0029 -20.001s-47.667 -9.5 -71 -12.5s-45.666 -5.16699 -66.999 -6.5s-40 -2 -56 -2c-35.333 0 -66.166 4.66699 -92.499 14s-48.5 22 -66.5 38s-31.5 34.667 -40.5 56s-13.5 44 -13.5 68c0 62.667 19.333 116.167 58 160.5
s92.334 80.5 161.001 108.5c-28.667 0 -54.5 10.5 -77.5 31.5s-36.5 51.5 -40.5 91.5c-40 -26.667 -76.5 -49.334 -109.5 -68.001s-64.167 -34 -93.5 -46s-58.166 -20.667 -86.499 -26s-58.5 -8 -90.5 -8c-44 0 -81.167 7.83301 -111.5 23.5s-54.833 38.5 -73.5 68.5
s-32.167 66.5 -40.5 109.5s-12.5 92.167 -12.5 147.5v406h-129v48l338 66h65v-477c0 -48 3 -88 9 -120s15 -57.5 27 -76.5s26.667 -32.333 44 -40s37.666 -11.5 60.999 -11.5c32.667 0 66.667 9.33301 102 28s69 42 101 70v513h-129v49l338 65h65v-764l132 -32v-48h-79
c-35.333 0 -66 -6.16699 -92 -18.5s-47.667 -29.166 -65 -50.499s-30.333 -46.666 -39 -75.999s-13 -61 -13 -95c0 -25.333 4 -46.666 12 -63.999s18.5 -31.333 31.5 -42s28.167 -18.334 45.5 -23.001s35.666 -7 54.999 -7c16.667 0 33.334 1.33301 50.001 4
s32.667 6.66699 48 12zM331.997 1005c2.66699 36.667 8.50293 70.666 17.5029 101.999s20.833 58.333 35.5 81s32.167 40.334 52.5 53.001s43.5 19 69.5 19s50.167 -5.5 72.5 -16.5s43.333 -23 63 -36l56.5 -36c18 -11 35.667 -16.5 53 -16.5c28 0 50 7.5 66 22.5
s25.333 42.5 28 82.5h36c-1.33301 -36 -5.83301 -69.5 -13.5 -100.5s-18.5 -57.667 -32.5 -80s-31.167 -40 -51.5 -53s-43.5 -19.5 -69.5 -19.5c-26.667 0 -50.334 5.5 -71.001 16.5s-40.334 23 -59.001 36s-37.334 25 -56.001 36s-39 16.5 -61 16.5
c-25.333 0 -47.5 -8 -66.5 -24s-30.167 -43.667 -33.5 -83h-36z" />
    <glyph glyph-name="Umacronacute" unicode="&#x16a;&#x301;" horiz-adv-x="1662" 
d="M1376 530c-3.33301 -97.333 -14.499 -181.001 -33.499 -251.001s-49.667 -127.667 -92 -173s-98.833 -78.833 -169.5 -100.5s-159 -32.5 -265 -32.5c-103.333 0 -190.833 10.5 -262.5 31.5s-129.834 52.667 -174.501 95s-77.167 95.333 -97.5 159
s-30.5 138.5 -30.5 224.5v711l-194 32v48h690v-48l-195 -32v-687c0 -63.333 3.83301 -121 11.5 -173s23.5 -96.5 47.5 -133.5s58.833 -65.5 104.5 -85.5s106.5 -30 182.5 -30c138 0 239.833 39.833 305.5 119.5s95.167 204.834 88.5 375.501l-25 614l-176 32v48h507v-48
l-199 -32zM629.001 1483h594v-112h-594v112zM1313 1924c0 -3.33301 -1.66895 -7.83398 -5.00195 -13.501s-9.66602 -11.167 -18.999 -16.5l-412 -261c-13.333 -8 -25.666 -12 -36.999 -12c-16 0 -25 3.66699 -27 11s-0.333008 14.333 5 21l200 272
c8 10.667 16.5 17.334 25.5 20.001s22.167 4 39.5 4h184c16 0 27.667 -2.5 35 -7.5s11 -10.833 11 -17.5z" />
    <glyph glyph-name="umacronacute" unicode="&#x16b;&#x301;" horiz-adv-x="1237" 
d="M166 324l-0.00195312 406.001h-129v48l338 66h65v-477c0 -48 3 -88 9 -120s15 -57.5 27 -76.5s26.833 -32.333 44.5 -40s37.834 -11.5 60.501 -11.5c32.667 0 66.667 9.33301 102 28s69 42 101 70v513h-129v49l338 65h65v-764l132 -32v-48h-406v123
c-40 -26.667 -76.5 -49.334 -109.5 -68.001s-64.167 -34 -93.5 -46s-58.166 -20.667 -86.499 -26s-58.5 -8 -90.5 -8c-44 0 -81.167 7.83301 -111.5 23.5s-54.833 38.5 -73.5 68.5s-32.167 66.667 -40.5 110s-12.5 92.333 -12.5 147zM318.998 1093h594v-112h-594v112z
M995.998 1541c0 -3.33301 -1.66895 -7.83398 -5.00195 -13.501s-9.66602 -11.167 -18.999 -16.5l-412 -261c-13.333 -8 -25.666 -12 -36.999 -12c-16 0 -25 3.66699 -27 11s-0.333008 14.333 5 21l200 272c8 10.667 16.5 17.334 25.5 20.001s22.167 4 39.5 4h184
c16 0 27.667 -2.5 35 -7.5s11 -10.833 11 -17.5z" />
    <glyph glyph-name="Umacrontilde" unicode="&#x16a;&#x303;" horiz-adv-x="1662" 
d="M1376 530c-3.33301 -97.333 -14.499 -181.001 -33.499 -251.001s-49.667 -127.667 -92 -173s-98.833 -78.833 -169.5 -100.5s-159 -32.5 -265 -32.5c-103.333 0 -190.833 10.5 -262.5 31.5s-129.834 52.667 -174.501 95s-77.167 95.333 -97.5 159
s-30.5 138.5 -30.5 224.5v711l-194 32v48h690v-48l-195 -32v-687c0 -63.333 3.83301 -121 11.5 -173s23.5 -96.5 47.5 -133.5s58.833 -65.5 104.5 -85.5s106.5 -30 182.5 -30c138 0 239.833 39.833 305.5 119.5s95.167 204.834 88.5 375.501l-25 614l-176 32v48h507v-48
l-199 -32zM629.001 1483h594v-112h-594v112zM654.001 1582c2.66699 36.667 8.50293 70.666 17.5029 101.999s20.833 58.333 35.5 81s32.167 40.334 52.5 53.001s43.5 19 69.5 19s50.167 -5.5 72.5 -16.5s43.333 -23 63 -36l56.5 -36c18 -11 35.667 -16.5 53 -16.5
c28 0 50 7.5 66 22.5s25.333 42.5 28 82.5h36c-1.33301 -36 -5.83301 -69.5 -13.5 -100.5s-18.5 -57.667 -32.5 -80s-31.167 -40 -51.5 -53s-43.5 -19.5 -69.5 -19.5c-26.667 0 -50.334 5.5 -71.001 16.5s-40.334 23 -59.001 36s-37.334 25 -56.001 36s-39 16.5 -61 16.5
c-25.333 0 -47.5 -8 -66.5 -24s-30.167 -43.667 -33.5 -83h-36z" />
    <glyph glyph-name="umacrontilde" unicode="&#x16b;&#x303;" horiz-adv-x="1237" 
d="M166 324l-0.00195312 406.001h-129v48l338 66h65v-477c0 -48 3 -88 9 -120s15 -57.5 27 -76.5s26.833 -32.333 44.5 -40s37.834 -11.5 60.501 -11.5c32.667 0 66.667 9.33301 102 28s69 42 101 70v513h-129v49l338 65h65v-764l132 -32v-48h-406v123
c-40 -26.667 -76.5 -49.334 -109.5 -68.001s-64.167 -34 -93.5 -46s-58.166 -20.667 -86.499 -26s-58.5 -8 -90.5 -8c-44 0 -81.167 7.83301 -111.5 23.5s-54.833 38.5 -73.5 68.5s-32.167 66.667 -40.5 110s-12.5 92.333 -12.5 147zM318.998 1093h594v-112h-594v112z
M340.998 1222c2.66699 36.667 8.50293 70.666 17.5029 101.999s20.833 58.333 35.5 81s32.167 40.334 52.5 53.001s43.5 19 69.5 19s50.167 -5.5 72.5 -16.5s43.333 -23 63 -36l56.5 -36c18 -11 35.667 -16.5 53 -16.5c28 0 50 7.5 66 22.5s25.333 42.5 28 82.5h36
c-1.33301 -36 -5.83301 -69.5 -13.5 -100.5s-18.5 -57.667 -32.5 -80s-31.167 -40 -51.5 -53s-43.5 -19.5 -69.5 -19.5c-26.667 0 -50.334 5.5 -71.001 16.5s-40.334 23 -59.001 36s-37.334 25 -56.001 36s-39 16.5 -61 16.5c-25.333 0 -47.5 -8 -66.5 -24
s-30.167 -43.667 -33.5 -83h-36z" />
    <glyph glyph-name=".notdef" horiz-adv-x="576" 
d="M63 1274h450v-1274h-450v1274zM134 1203v-1132h308v1132h-308z" />
    <glyph glyph-name="uni0000" horiz-adv-x="576" 
d="M63 1274h450v-1274h-450v1274zM134 1203v-1132h308v1132h-308z" />
    <glyph glyph-name="uni0000" horiz-adv-x="576" 
d="M63 1274h450v-1274h-450v1274zM134 1203v-1132h308v1132h-308z" />
    <glyph glyph-name="space" unicode=" " horiz-adv-x="576" 
 />
    <glyph glyph-name="exclam" unicode="!" horiz-adv-x="647" 
d="M266 375l-100.999 879c-2 16.667 -2 31.834 0 45.501s7.16699 25 15.5 34s20.166 16 35.499 21s35 7.5 59 7.5h96c24.667 0 44.667 -2.5 60 -7.5s27 -12 35 -21s13 -20.333 15 -34s2 -28.834 0 -45.501l-101 -879h-114zM443.001 94
c0 -18.667 -3.33301 -35.834 -10 -51.501s-15.834 -29.334 -27.501 -41.001s-25.334 -20.667 -41.001 -27s-32.834 -9.5 -51.501 -9.5s-35.834 3.16699 -51.501 9.5s-29.334 15.333 -41.001 27s-20.667 25.334 -27 41.001s-9.5 32.834 -9.5 51.501
s3.16699 35.834 9.5 51.501s15.333 29.334 27 41.001s25.334 20.834 41.001 27.501s32.834 10 51.501 10s35.834 -3.33301 51.501 -10s29.334 -15.834 41.001 -27.501s20.834 -25.334 27.501 -41.001s10 -32.834 10 -51.501z" />
    <glyph glyph-name="quotedbl" unicode="&#x22;" horiz-adv-x="886" 
d="M575 795l-91.001 473c-2 8 -3 15.667 -3 23c0 26 10 44.333 30 55s49.333 16 88 16h53c38.667 0 67.834 -5.33301 87.501 -16s29.5 -29 29.5 -55c0 -3.33301 -0.166992 -7 -0.5 -11s-0.833008 -8 -1.5 -12l-90 -473h-102zM186.999 795l-91.001 473c-2 8 -3 15.667 -3 23
c0 26 10 44.333 30 55s49.333 16 88 16h53c38.667 0 67.834 -5.33301 87.501 -16s29.5 -29 29.5 -55c0 -3.33301 -0.166992 -7 -0.5 -11s-0.833008 -8 -1.5 -12l-90 -473h-102z" />
    <glyph glyph-name="numbersign" unicode="#" horiz-adv-x="1142" 
d="M1093 1010l-41 -178h-236l-68 -293h236l-41 -178h-236l-90 -388h-105l90 388h-226l-90 -388h-105l90 388h-236l41 178h236l68 293h-236l41 178h236l81 353h105l-81 -353h226l81 353h105l-81 -353h236zM485 832l-68 -293h226l68 293h-226z" />
    <glyph glyph-name="dollar" unicode="$" horiz-adv-x="1188" 
d="M610 -137l-58.9971 -0.000976562v113c-45.333 0 -86.166 2.33301 -122.499 7s-69.833 11.334 -100.5 20.001s-58.834 18.667 -84.501 30s-49.834 24 -72.501 38c-5.33301 2.66699 -11 5.66699 -17 9s-11.5 7.16602 -16.5 11.499s-9.33301 9.66602 -13 15.999
s-5.5 13.5 -5.5 21.5c0 13.333 5 28.333 15 45l70 119c13.333 22.667 28.333 34 45 34c8.66699 0 17.167 -3.66699 25.5 -11s15.5 -19.666 21.5 -36.999c12 -32.667 25.5 -62.834 40.5 -90.501s32.667 -51.667 53 -72s43.833 -36.5 70.5 -48.5s57 -19 91 -21v485l-99 51
c-33.333 17.333 -65.5 35.5 -96.5 54.5s-60.167 39.333 -87.5 61s-51.166 45.334 -71.499 71.001s-36.333 53.5 -48 83.5s-17.5 63 -17.5 99c0 107.333 36 190.166 108 248.499s176 89.833 312 94.5v111h59v-111c41.333 -1.33301 78.666 -4.66602 111.999 -9.99902
s64 -12.166 92 -20.499s54.167 -17.5 78.5 -27.5l71.5 -30c9.33301 -4 19.5 -9.33301 30.5 -16s16.5 -17.334 16.5 -32.001c0 -8 -2.33301 -17 -7 -27l-70 -143c-8.66699 -16.667 -19.334 -25 -32.001 -25c-10 0 -20 4.5 -30 13.5s-17.667 20.167 -23 33.5
c-25.333 61.333 -56.833 110.666 -94.5 147.999s-85.834 58 -144.501 62v-395l107 -52c36.667 -18 72.167 -37.333 106.5 -58s67 -43 98 -67s58 -50.833 81 -80.5s41.167 -62.5 54.5 -98.5s20 -75.667 20 -119c0 -55.333 -10.667 -105.666 -32 -150.999
s-52.166 -84.5 -92.499 -117.5s-89.333 -58.667 -147 -77s-122.834 -28.166 -195.501 -29.499v-113zM829.003 265.999c0 25.333 -5.66504 48.833 -16.998 70.5s-26.833 42 -46.5 61s-42.834 37 -69.501 54s-55.334 33.833 -86.001 50.5v-454
c33.333 2.66699 63.5 10.667 90.5 24s50 30 69 50s33.667 42.5 44 67.5s15.5 50.5 15.5 76.5zM355.005 1056c0 -20.667 5 -40 15 -58s23.667 -35.167 41 -51.5s38 -32 62 -47s50 -29.833 78 -44.5v365c-24 -2 -47.667 -6.5 -71 -13.5s-44.333 -17 -63 -30
s-33.667 -29.333 -45 -49s-17 -43.5 -17 -71.5z" />
    <glyph glyph-name="percent" unicode="%" horiz-adv-x="1836" 
d="M58 938c0 61.333 10.666 115 31.999 161s49.333 84.167 84 114.5s74 53.166 118 68.499s88.333 23 133 23s89.167 -7.66699 133.5 -23s84 -38.166 119 -68.499s63.333 -68.5 85 -114.5s32.5 -99.667 32.5 -161c0 -60.667 -10.833 -113.834 -32.5 -159.501
s-50 -83.834 -85 -114.501s-74.667 -53.667 -119 -69s-88.833 -23 -133.5 -23c-45.333 0 -90 7.66699 -134 23s-83.167 38.333 -117.5 69s-62.166 68.834 -83.499 114.501s-32 98.834 -32 159.501zM276.999 938c0 -112 11.333 -194.167 34 -246.5s61 -78.5 115 -78.5
c54.667 0 93.834 26.167 117.501 78.5s35.5 134.5 35.5 246.5s-11.833 194.333 -35.5 247s-62.834 79 -117.501 79c-54 0 -92.333 -26.333 -115 -79s-34 -135 -34 -247zM1280 1305l-643 -1338h-98l643 1338h98zM1036 341c0 61.333 10.666 115 31.999 161
s49.333 84.167 84 114.5s74 53.166 118 68.499s88.333 23 133 23s89.167 -7.66699 133.5 -23s84 -38.166 119 -68.499s63.333 -68.5 85 -114.5s32.5 -99.667 32.5 -161c0 -60.667 -10.833 -113.834 -32.5 -159.501s-50 -83.834 -85 -114.501s-74.667 -53.667 -119 -69
s-88.833 -23 -133.5 -23c-45.333 0 -90 7.66699 -134 23s-83.167 38.333 -117.5 69s-62.166 68.834 -83.499 114.501s-32 98.834 -32 159.501zM1255 341c0 -112 11.333 -194.167 34 -246.5s61 -78.5 115 -78.5c54.667 0 93.834 26.167 117.501 78.5s35.5 134.5 35.5 246.5
s-11.833 194.333 -35.5 247s-62.834 79 -117.501 79c-54 0 -92.333 -26.333 -115 -79s-34 -135 -34 -247z" />
    <glyph glyph-name="ampersand" unicode="&#x26;" horiz-adv-x="1422" 
d="M1214 603c-12.667 0 -26.1621 1.00098 -40.4951 3.00098s-26.833 3 -37.5 3c-32.667 0 -59.334 -5 -80.001 -15s-37.834 -26.833 -51.501 -50.5s-25.334 -54.834 -35.001 -93.501s-19.834 -86.667 -30.501 -144c14 -26 29.5 -51.667 46.5 -77s34.167 -47.833 51.5 -67.5
s34.5 -35.5 51.5 -47.5s32.5 -18 46.5 -18c18 0 35.667 8.5 53 25.5s34.333 45.167 51 84.5l68 -50c-9.33301 -30 -22.5 -56.167 -39.5 -78.5s-36.667 -41 -59 -56s-46.833 -26.333 -73.5 -34s-54 -11.5 -82 -11.5c-32 0 -59.667 3.16699 -83 9.5s-44.5 15.333 -63.5 27
s-36.333 25.334 -52 41.001s-31.5 32.5 -47.5 50.5c-27.333 -44 -62.666 -78 -105.999 -102s-96.333 -36 -159 -36c-84.667 0 -154.834 8.66699 -210.501 26s-100 40.833 -133 70.5s-56.167 64.667 -69.5 105s-20 83.5 -20 129.5c0 41.333 7.16699 83.333 21.5 126
s35.333 83.667 63 123s61.667 75.666 102 108.999s86.166 61.333 137.499 84c-27.333 48.667 -47.833 93.5 -61.5 134.5s-20.5 82.833 -20.5 125.5c0 41.333 6.66699 79 20 113s34 63 62 87s63.5 42.667 106.5 56s94.167 20 153.5 20c40 0 76.5 -4.33301 109.5 -13
s61.5 -21.667 85.5 -39s42.667 -39.5 56 -66.5s20 -58.5 20 -94.5c0 -32.667 -7.5 -62.5 -22.5 -89.5s-35 -52.167 -60 -75.5s-54 -45 -87 -65s-67.5 -39.333 -103.5 -58l44.5 -97l45 -99.5c15 -33 30.667 -65.667 47 -98s33.5 -62.833 51.5 -91.5c4 22.667 8 47 12 73
s9 52 15 78s14 51.167 24 75.5s23 45.833 39 64.5s35.833 33.5 59.5 44.5s52.5 16.5 86.5 16.5c19.333 0 37 -2 53 -6zM753.005 170.001l-90.999 127.506c-25.333 37 -48.333 72.5 -69 106.5s-40.334 69 -59.001 105s-39 77.333 -61 124
c-12 -12.667 -23.333 -29.334 -34 -50.001s-20 -43.334 -28 -68.001s-14.167 -50.334 -18.5 -77.001s-6.5 -52.334 -6.5 -77.001c0 -37.333 4.83301 -74 14.5 -110s23.834 -68.167 42.501 -96.5s41.167 -51.166 67.5 -68.499s56.166 -26 89.499 -26
c20.667 0 39 3.16699 55 9.5s30.167 14.666 42.5 24.999s23 22.166 32 35.499s16.833 26.666 23.5 39.999zM756.006 1070.01c0 28.667 -1.33301 52 -4 70s-6.5 31.667 -11.5 41s-11.167 15.666 -18.5 18.999s-15.333 5 -24 5c-25.333 0 -44.5 -15.167 -57.5 -45.5
s-19.5 -70.5 -19.5 -120.5c0 -17.333 0.833008 -35 2.5 -53s4.16699 -35.5 7.5 -52.5s7.33301 -33 12 -48s10 -27.5 16 -37.5c31.333 26.667 55.333 58.834 72 96.501s25 79.5 25 125.5z" />
    <glyph glyph-name="quotesingle" unicode="'" horiz-adv-x="423" 
d="M161 795l-91.001 473c-2 8 -3 15.667 -3 23c0 26 10 44.333 30 55s49.333 16 88 16h53c38.667 0 67.834 -5.33301 87.501 -16s29.5 -29 29.5 -55c0 -3.33301 -0.166992 -7 -0.5 -11s-0.833008 -8 -1.5 -12l-90 -473h-102z" />
    <glyph glyph-name="parenleft" unicode="(" horiz-adv-x="920" 
d="M823 -477c-220.667 133.333 -373 273.665 -457 420.998c-50 87.333 -86.833 176.833 -110.5 268.5s-35.5 186.834 -35.5 285.501c0 190.667 48.667 371.334 146 542.001c82.667 145.333 234 284.333 454 417l33 -64c-110.667 -92 -198 -216.667 -262 -374
c-54 -132 -81 -307.667 -81 -527s27 -395 81 -527c64 -158 150 -283 258 -375z" />
    <glyph glyph-name="parenright" unicode=")" horiz-adv-x="920" 
d="M97.1006 -477c220.64 133.333 372.956 273.665 456.945 420.998c49.9932 87.333 86.8223 176.833 110.486 268.5s35.4961 186.834 35.4961 285.501c0 190.667 -48.6611 371.334 -145.982 542.001c-82.6572 145.333 -233.973 284.333 -453.946 417l-32.9951 -64
c110.653 -92 197.976 -216.667 261.968 -374c53.9932 -132 80.9902 -307.667 80.9902 -527s-26.9971 -395 -80.9902 -527c-63.9922 -158 -149.981 -283 -257.969 -375z" />
    <glyph glyph-name="asterisk" unicode="*" horiz-adv-x="1024" 
d="M519 972l236.998 244.999c13.333 13.333 28.5 21.166 45.5 23.499s30.167 -4.16699 39.5 -19.5l60 -104c8.66699 -15.333 7.66699 -29.666 -3 -42.999s-25 -22.333 -43 -27l-330 -86l330 -85c18 -4.66699 32.333 -13.834 43 -27.501s11.667 -28.167 3 -43.5l-60 -104
c-9.33301 -15.333 -22.333 -21.666 -39 -18.999s-31.667 10.667 -45 24l-238 244l91 -328c5.33301 -18 4.5 -35 -2.5 -51s-19.167 -24 -36.5 -24h-120c-17.333 0 -29.333 8 -36 24s-7.33398 33 -2.00098 51l92 328l-238 -243c-13.333 -13.333 -28.5 -21.166 -45.5 -23.499
s-29.833 4.16699 -38.5 19.5l-60 103c-8 14 -7.16699 28.5 2.5 43.5s23.834 24.5 42.501 28.5l331 83l-330 84c-17.333 4 -31.666 13 -42.999 27s-12.333 28.667 -3 44l60 103c9.33301 15.333 22.333 22 39 20s31.667 -9.66699 45 -23l238 -244l-92 329
c-5.33301 18 -4.66602 35 2.00098 51s18.667 24 36 24h120c17.333 0 29.5 -8 36.5 -24s7.83301 -33 2.5 -51z" />
    <glyph glyph-name="plus" unicode="+" horiz-adv-x="1364" 
d="M1231 422h-515v-513h-104v513h-511v105h511v513h104v-513h515v-105z" />
    <glyph glyph-name="comma" unicode="," horiz-adv-x="540" 
d="M442 7c0 -44 -7.00391 -84.498 -21.0039 -121.498s-35.667 -70.5 -65 -100.5c-57.333 -61.333 -127.333 -104 -210 -128l-18 57c30 8 57.833 18 83.5 30s49.167 26.667 70.5 44c41.333 33.333 62 74.333 62 123c0 19.333 -6.66699 34.666 -20 45.999
s-28.666 17 -45.999 17c-19.333 0 -37 3.5 -53 10.5s-30 16.5 -42 28.5s-21.333 26.167 -28 42.5s-10 34.166 -10 53.499c0 18.667 3.5 36.167 10.5 52.5s16.833 30.5 29.5 42.5s27.334 21.333 44.001 28s34.667 10 54 10c24 0 45.833 -5.5 65.5 -16.5
s36.334 -26.667 50.001 -47s24.334 -45 32.001 -74s11.5 -61.5 11.5 -97.5z" />
    <glyph glyph-name="hyphen" unicode="-" horiz-adv-x="808" 
d="M728 407h-648v106h648v-106z" />
    <glyph glyph-name="period" unicode="." horiz-adv-x="564" 
d="M411 94c0 -18.667 -3.33301 -35.834 -10 -51.501s-15.834 -29.334 -27.501 -41.001s-25.334 -20.667 -41.001 -27s-32.834 -9.5 -51.501 -9.5s-35.834 3.16699 -51.501 9.5s-29.334 15.333 -41.001 27s-20.667 25.334 -27 41.001s-9.5 32.834 -9.5 51.501
s3.16699 35.834 9.5 51.501s15.333 29.334 27 41.001s25.334 20.834 41.001 27.501s32.834 10 51.501 10s35.834 -3.33301 51.501 -10s29.334 -15.834 41.001 -27.501s20.834 -25.334 27.501 -41.001s10 -32.834 10 -51.501z" />
    <glyph glyph-name="slash" unicode="/" horiz-adv-x="960" 
d="M773 1362h128l-682 -1421h-128z" />
    <glyph glyph-name="zero" unicode="0" horiz-adv-x="1024" 
d="M695 637c0 39.333 -0.167969 81.833 -0.500977 127.5s-2 91.334 -5 137.001s-8 89.667 -15 132s-17.333 79.833 -31 112.5s-31.167 58.667 -52.5 78s-47.666 29 -78.999 29c-30 0 -55.167 -9.66699 -75.5 -29s-37.333 -45.333 -51 -78s-24.334 -70.167 -32.001 -112.5
s-13.334 -86.333 -17.001 -132s-6 -91.334 -7 -137.001s-1.5 -88.167 -1.5 -127.5c0 -38.667 0.5 -80.834 1.5 -126.501s3.33301 -91.334 7 -137.001s9.33398 -89.834 17.001 -132.501s18.334 -80.5 32.001 -113.5s30.834 -59.333 51.501 -79s45.667 -29.5 75 -29.5
c31.333 0 57.666 9.83301 78.999 29.5s38.833 46 52.5 79s24 70.833 31 113.5s12 86.834 15 132.501s4.66699 91.334 5 137.001s0.5 87.834 0.5 126.501zM955.999 637c0 -218.667 -36.667 -385 -110 -499s-184.666 -171 -333.999 -171c-150 0 -261.667 57 -335 171
s-110 280.333 -110 499s36.667 384.667 110 498s185 170 335 170c149.333 0 260.666 -56.667 333.999 -170s110 -279.333 110 -498z" />
    <glyph glyph-name="one" unicode="1" horiz-adv-x="1024" 
d="M855 0h-682v48l218 51v1025h-219v46l293 104h172v-1175l218 -51v-48z" />
    <glyph glyph-name="two" unicode="2" horiz-adv-x="1024" 
d="M939 377l-44.999 -377.003h-784l1 53c41.333 50.667 83.333 99 126 145l124.5 135c40.333 44 78.166 88.333 113.499 133s66.166 91 92.499 139s47.166 99 62.499 153s23 112.333 23 175c0 40.667 -4.83301 75.834 -14.5 105.501s-22.667 54.167 -39 73.5
s-35.666 33.666 -57.999 42.999s-46.5 14 -72.5 14c-25.333 0 -51.5 -4.33301 -78.5 -13s-53.833 -22.167 -80.5 -40.5s-52.834 -41.666 -78.501 -69.999s-49.5 -62.166 -71.5 -101.499l-60 35c22 58 48.833 107.333 80.5 148s67 73.834 106 99.501
s80.833 44.167 125.5 55.5s91.334 17 140.001 17c46 0 91.333 -6 136 -18s84.5 -31.667 119.5 -59s63.167 -63 84.5 -107s32 -97.667 32 -161c0 -42 -9 -83.833 -27 -125.5s-41.833 -83.5 -71.5 -125.5s-64 -83.667 -103 -125l-121 -123l-124.5 -120.5
c-41.333 -39.667 -79.666 -78.5 -114.999 -116.5h457l70 159h50z" />
    <glyph glyph-name="three" unicode="3" horiz-adv-x="1024" 
d="M293 627l-18.0029 76.999c56 12 103.667 29.333 143 52s71.5 49 96.5 79s43.167 62.333 54.5 97s17 69.667 17 105c0 46.667 -10.833 80.167 -32.5 100.5s-48.5 30.5 -80.5 30.5c-22 0 -45.167 -4.16699 -69.5 -12.5s-48.5 -20.166 -72.5 -35.499
s-46.667 -33.666 -68 -54.999s-40 -45 -56 -71l-61 55c28 46 58.167 84.833 90.5 116.5s66 57.5 101 77.5s70.5 34.333 106.5 43s71.667 13 107 13c40 0 77.667 -5 113 -15s66.333 -24.5 93 -43.5s47.667 -42 63 -69s23 -57.5 23 -91.5c0 -29.333 -5 -58 -15 -86
s-26 -56 -48 -84s-50.5 -56.333 -85.5 -85s-77.5 -58 -127.5 -88c65.333 -1.33301 121.166 -9.33301 167.499 -24s84.166 -34.334 113.499 -59.001s50.833 -53.334 64.5 -86.001s20.5 -67 20.5 -103c0 -37.333 -6.33301 -75.5 -19 -114.5s-30.667 -76.833 -54 -113.5
s-51.166 -71.5 -83.499 -104.5s-68.166 -61.833 -107.499 -86.5s-81.333 -44.167 -126 -58.5s-91 -21.5 -139 -21.5c-56.667 0 -112.5 11.333 -167.5 34s-106.833 59 -155.5 109l152 193c22 -44.667 44 -81.667 66 -111s43.833 -52.5 65.5 -69.5
s42.834 -28.833 63.501 -35.5s40.667 -10 60 -10c29.333 0 56.333 8.33301 81 25s45.834 38.834 63.501 66.501s31.5 59.667 41.5 96s15 74.166 15 113.499c0 36 -4.5 71 -13.5 105s-23.167 64.167 -42.5 90.5s-44.666 47.5 -75.999 63.5s-69 24 -113 24
c-22.667 0 -46.5 -2.66699 -71.5 -8s-51.5 -13.666 -79.5 -24.999z" />
    <glyph glyph-name="four" unicode="4" horiz-adv-x="1024" 
d="M537 455v576l-337 -576h337zM537 0v353h-479v30l556 940h170v-868h181v-102h-181v-353h-247z" />
    <glyph glyph-name="five" unicode="5" horiz-adv-x="1024" 
d="M847 1274l-19.0039 -208h-543l-24 -315c42.667 30 86.334 51.667 131.001 65s89 20 133 20c53.333 0 104 -9.16699 152 -27.5s90.333 -43.333 127 -75s65.667 -69.167 87 -112.5s32 -90 32 -140c0 -40 -5.66699 -80.5 -17 -121.5s-27.666 -80.667 -48.999 -119
s-47.166 -74.166 -77.499 -107.499s-64.5 -62.333 -102.5 -87s-79.5 -44.167 -124.5 -58.5s-92.5 -21.5 -142.5 -21.5c-56.667 0 -112.5 11.333 -167.5 34s-106.833 59 -155.5 109l152 193c22 -44.667 44 -81.667 66 -111s43.833 -52.5 65.5 -69.5
s42.834 -28.833 63.501 -35.5s40.667 -10 60 -10c32.667 0 61.5 7.66699 86.5 23s45.833 36.166 62.5 62.499s29.167 57 37.5 92s12.5 72.167 12.5 111.5c0 42 -4.83301 83.667 -14.5 125s-24.167 78.5 -43.5 111.5s-43.5 59.833 -72.5 80.5s-63.167 31 -102.5 31
c-32 0 -67.167 -7.5 -105.5 -22.5s-80.5 -39.833 -126.5 -74.5l-53 27l45 631h627z" />
    <glyph glyph-name="six" unicode="6" horiz-adv-x="1024" 
d="M339 463c0 -147.333 15.998 -258.166 47.998 -332.499s79 -111.5 141 -111.5c48 0 86.167 31.5 114.5 94.5s42.5 157.5 42.5 283.5c0 21.333 -1.16699 45.166 -3.5 71.499s-6 53 -11 80s-11.5 53.333 -19.5 79s-17.667 48.5 -29 68.5s-24.666 36.167 -39.999 48.5
s-32.666 18.5 -51.999 18.5c-25.333 0 -49.5 -8.5 -72.5 -25.5s-43.167 -39.5 -60.5 -67.5s-31.333 -60 -42 -96s-16 -73 -16 -111zM77.998 504c0 82.667 10.166 159.664 30.499 230.997s48.333 136.333 84 195s78.167 111 127.5 157s103.166 84.667 161.499 116
s120 55.166 185 71.499s130.833 24.5 197.5 24.5l-9 -53c-33.333 0 -68.166 -6.83301 -104.499 -20.5s-72.333 -32.167 -108 -55.5s-69.834 -50.666 -102.501 -81.999s-62 -64.166 -88 -98.499s-47.333 -69.5 -64 -105.5s-26.667 -70.667 -30 -104
c25.333 13.333 55.333 24.333 90 33s72 13 112 13c56 0 107.5 -10.667 154.5 -32s87.667 -50.666 122 -87.999s61.166 -81 80.499 -131s29 -103.333 29 -160c0 -64 -10.667 -123.333 -32 -178s-50.666 -102 -87.999 -142s-81.833 -71.333 -133.5 -94
s-107.834 -34 -168.501 -34c-77.333 0 -144.166 13.5 -200.499 40.5s-102.666 64.333 -138.999 112s-63.166 104.334 -80.499 170.001s-26 137.167 -26 214.5z" />
    <glyph glyph-name="seven" unicode="7" horiz-adv-x="1024" 
d="M922 1220l-363 -1220h-236l457 1044h-537l-52 -181h-89l31 411h789v-54z" />
    <glyph glyph-name="eight" unicode="8" horiz-adv-x="1024" 
d="M665 1012c0 32 -3.50195 62.498 -10.502 91.498s-17.333 54.667 -31 77s-30.5 40 -50.5 53s-43 19.5 -69 19.5c-25.333 0 -48.166 -5.33301 -68.499 -16s-37.666 -25.667 -51.999 -45s-25.5 -42.166 -33.5 -68.499s-12 -55.5 -12 -87.5
c0 -41.333 6.83301 -76.666 20.5 -105.999s31.167 -54.5 52.5 -75.5s45 -39 71 -54l77 -42.5c34.667 28 61 63.167 79 105.5s27 91.833 27 148.5zM694.998 290.998c0 48 -6.00195 88.502 -18.002 121.502s-28.333 61.5 -49 85.5s-44.834 45.167 -72.501 63.5l-87.5 55.5
c-45.333 -32 -79.666 -73.333 -102.999 -124s-35 -111.334 -35 -182.001c0 -36 3.66699 -71.5 11 -106.5s18.5 -66.333 33.5 -94s34 -49.834 57 -66.501s50.167 -25 81.5 -25c28.667 0 54.334 7.66699 77.001 23s41.834 35.666 57.501 60.999s27.5 54.333 35.5 87
s12 66.334 12 101.001zM934.996 348c0 -58.667 -11.998 -111.499 -35.998 -158.499s-55.833 -87 -95.5 -120s-84.834 -58.333 -135.501 -76s-103 -26.5 -157 -26.5c-70 0 -131.333 11 -184 33s-96.834 49.667 -132.501 83s-62.334 70 -80.001 110s-26.5 78 -26.5 114
c0 44 8.5 83.667 25.5 119s39.667 67.166 68 95.499s60.833 53.666 97.5 75.999s74.667 42.166 114 59.499h-2c-47.333 23.333 -87.5 45.166 -120.5 65.499s-58.5 39.833 -76.5 58.5c-58 60.667 -87 124.667 -87 192c0 50.667 12 96.5 36 137.5s55.167 75.833 93.5 104.5
s81.166 50.834 128.499 66.501s94.333 23.5 141 23.5c45.333 0 91.333 -6 138 -18s88.834 -30.167 126.501 -54.5s68.334 -55 92.001 -92s35.5 -80.5 35.5 -130.5c0 -62.667 -23.167 -117 -69.5 -163s-114.833 -88.333 -205.5 -127h1
c42 -19.333 81.833 -40.666 119.5 -63.999s70.667 -50 99 -80s50.833 -63.667 67.5 -101s25 -79.666 25 -126.999z" />
    <glyph glyph-name="nine" unicode="9" horiz-adv-x="1024" 
d="M685 803c0 147.333 -15.9971 258.166 -47.9971 332.499s-79 111.5 -141 111.5c-48 0 -86.167 -31.5 -114.5 -94.5s-42.5 -157.5 -42.5 -283.5c0 -21.333 1.16699 -45.166 3.5 -71.499s6 -53 11 -80s11.5 -53.333 19.5 -79s17.667 -48.5 29 -68.5
s24.666 -36.167 39.999 -48.5s32.666 -18.5 51.999 -18.5c24.667 0 48.667 8.5 72 25.5s43.666 39.5 60.999 67.5s31.333 60 42 96s16 73 16 111zM946.003 762c0 -82.667 -10.1689 -159.664 -30.502 -230.997s-48.333 -136.333 -84 -195s-78.167 -111 -127.5 -157
s-103.166 -84.667 -161.499 -116s-120 -55.166 -185 -71.499s-130.833 -24.5 -197.5 -24.5l9 53c32.667 0 67.334 6.83301 104.001 20.5s72.834 32.167 108.501 55.5s69.834 50.666 102.501 81.999s62 64.166 88 98.499s47.333 69.5 64 105.5s26.667 70.667 30 104
c-25.333 -13.333 -55.333 -24.333 -90 -33s-72 -13 -112 -13c-56 0 -107.5 10.667 -154.5 32s-87.667 50.666 -122 87.999s-61.166 80.833 -80.499 130.5s-29 103.167 -29 160.5c0 64 10.667 123.333 32 178s50.666 102 87.999 142s81.833 71.333 133.5 94
s107.834 34 168.501 34c77.333 0 144.166 -13.5 200.499 -40.5s102.666 -64.333 138.999 -112s63.166 -104.334 80.499 -170.001s26 -137.167 26 -214.5z" />
    <glyph glyph-name="colon" unicode=":" horiz-adv-x="564" 
d="M411 714c0 -18.667 -3.33301 -35.834 -10 -51.501s-15.834 -29.334 -27.501 -41.001s-25.334 -20.667 -41.001 -27s-32.834 -9.5 -51.501 -9.5s-35.834 3.16699 -51.501 9.5s-29.334 15.333 -41.001 27s-20.667 25.334 -27 41.001s-9.5 32.834 -9.5 51.501
s3.16699 35.834 9.5 51.501s15.333 29.334 27 41.001s25.334 20.834 41.001 27.501s32.834 10 51.501 10s35.834 -3.33301 51.501 -10s29.334 -15.834 41.001 -27.501s20.834 -25.334 27.501 -41.001s10 -32.834 10 -51.501zM411 94c0 -18.667 -3.33301 -35.834 -10 -51.501
s-15.834 -29.334 -27.501 -41.001s-25.334 -20.667 -41.001 -27s-32.834 -9.5 -51.501 -9.5s-35.834 3.16699 -51.501 9.5s-29.334 15.333 -41.001 27s-20.667 25.334 -27 41.001s-9.5 32.834 -9.5 51.501s3.16699 35.834 9.5 51.501s15.333 29.334 27 41.001
s25.334 20.834 41.001 27.501s32.834 10 51.501 10s35.834 -3.33301 51.501 -10s29.334 -15.834 41.001 -27.501s20.834 -25.334 27.501 -41.001s10 -32.834 10 -51.501z" />
    <glyph glyph-name="semicolon" unicode=";" horiz-adv-x="540" 
d="M442 7c0 -44 -7.00391 -84.498 -21.0039 -121.498s-35.667 -70.5 -65 -100.5c-57.333 -61.333 -127.333 -104 -210 -128l-18 57c30 8 57.833 18 83.5 30s49.167 26.667 70.5 44c41.333 33.333 62 74.333 62 123c0 19.333 -6.66699 34.666 -20 45.999
s-28.666 17 -45.999 17c-19.333 0 -37 3.5 -53 10.5s-30 16.5 -42 28.5s-21.333 26.167 -28 42.5s-10 34.166 -10 53.499c0 18.667 3.5 36.167 10.5 52.5s16.833 30.5 29.5 42.5s27.334 21.333 44.001 28s34.667 10 54 10c24 0 45.833 -5.5 65.5 -16.5
s36.334 -26.667 50.001 -47s24.334 -45 32.001 -74s11.5 -61.5 11.5 -97.5zM410.996 714.002c0 -18.667 -3.33301 -35.834 -10 -51.501s-15.834 -29.334 -27.501 -41.001s-25.334 -20.667 -41.001 -27s-32.834 -9.5 -51.501 -9.5s-35.834 3.16699 -51.501 9.5
s-29.334 15.333 -41.001 27s-20.667 25.334 -27 41.001s-9.5 32.834 -9.5 51.501s3.16699 35.834 9.5 51.501s15.333 29.334 27 41.001s25.334 20.834 41.001 27.501s32.834 10 51.501 10s35.834 -3.33301 51.501 -10s29.334 -15.834 41.001 -27.501
s20.834 -25.334 27.501 -41.001s10 -32.834 10 -51.501z" />
    <glyph glyph-name="less" unicode="&#x3c;" horiz-adv-x="1274" 
d="M1105 -60l-937 506v58l937 506v-120l-767 -415l767 -415v-120z" />
    <glyph glyph-name="equal" unicode="=" horiz-adv-x="1471" 
d="M1249 567h-1063v105h1063v-105zM1249 243h-1063v105h1063v-105z" />
    <glyph glyph-name="greater" unicode="&#x3e;" horiz-adv-x="1274" 
d="M168.067 -60l936.942 506v58l-936.942 506v-120l766.953 -415l-766.953 -415v-120z" />
    <glyph glyph-name="question" unicode="?" horiz-adv-x="970" 
d="M386 336c-24.667 32 -42.332 62.168 -52.999 90.501s-16 55.5 -16 81.5c0 35.333 8.33301 68.666 25 99.999s37.5 61.5 62.5 90.5s52 57.333 81 85s56 56 81 85s45.833 58.833 62.5 89.5s25 63.334 25 98.001c0 62.667 -13.167 108.834 -39.5 138.501
s-64.833 44.5 -115.5 44.5c-53.333 0 -95.666 -18.667 -126.999 -56s-47 -95.666 -47 -174.999l-258 57c13.333 41.333 31.333 77.166 54 107.499s51 55.333 85 75s74.167 34.167 120.5 43.5s99.5 14 159.5 14c53.333 0 105.166 -4.33301 155.499 -13
s95.166 -23.834 134.499 -45.501s71 -51.334 95 -89.001s36 -85.5 36 -143.5c0 -40 -6.83301 -74.667 -20.5 -104s-31.5 -55 -53.5 -77s-47.167 -41.333 -75.5 -58s-57.333 -32.667 -87 -48l-87 -46c-28.333 -15.333 -53.5 -32.5 -75.5 -51.5s-39.833 -41.167 -53.5 -66.5
s-20.5 -55.333 -20.5 -90c0 -24.667 5 -47.5 15 -68.5s19.667 -43.833 29 -68.5h-92zM558.002 94.001c0 -18.667 -3.33301 -35.834 -10 -51.501s-15.834 -29.334 -27.501 -41.001s-25.334 -20.667 -41.001 -27s-32.834 -9.5 -51.501 -9.5s-35.834 3.16699 -51.501 9.5
s-29.334 15.333 -41.001 27s-20.667 25.334 -27 41.001s-9.5 32.834 -9.5 51.501s3.16699 35.834 9.5 51.501s15.333 29.334 27 41.001s25.334 20.834 41.001 27.501s32.834 10 51.501 10s35.834 -3.33301 51.501 -10s29.334 -15.834 41.001 -27.501
s20.834 -25.334 27.501 -41.001s10 -32.834 10 -51.501z" />
    <glyph glyph-name="at" unicode="@" horiz-adv-x="1877" 
d="M1651 43c-31.333 -68 -73.1689 -129.172 -125.502 -183.505s-111.333 -100.666 -177 -138.999s-136.167 -67.833 -211.5 -88.5s-151.333 -31 -228 -31c-128 0 -239.167 19.833 -333.5 59.5s-172.833 92.5 -235.5 158.5s-109.334 141.833 -140.001 227.5
s-46 174.5 -46 266.5c0 74 9 146.5 27 217.5s44 137.833 78 200.5s75.667 120.334 125 173.001s105.5 98 168.5 136s132.167 67.667 207.5 89s156.333 32 243 32c90 0 173.667 -12.167 251 -36.5s144.166 -60 200.499 -107s100.666 -105.167 132.999 -174.5
s48.5 -149.333 48.5 -240c0 -50.667 -5.83301 -101.5 -17.5 -152.5s-28.5 -100 -50.5 -147s-48.833 -90.833 -80.5 -131.5s-67.167 -76 -106.5 -106s-82.5 -53.667 -129.5 -71s-96.5 -26 -148.5 -26c-26 0 -49.667 2.83301 -71 8.5s-39.666 14.334 -54.999 26.001
s-27.333 26 -36 43s-13 37.167 -13 60.5c-18 -13.333 -38.333 -27.333 -61 -42s-47.167 -28.334 -73.5 -41.001s-54.166 -23.167 -83.499 -31.5s-59.666 -12.5 -90.999 -12.5c-32 0 -59 7 -81 21s-39.667 32 -53 54s-22.833 46.667 -28.5 74s-8.5 54.333 -8.5 81
c0 56.667 8.5 111.5 25.5 164.5s40.667 102.833 71 149.5s66.333 89.334 108 128.001s87.334 71.834 137.001 99.501s102.167 49.167 157.5 64.5s111.666 23 168.999 23c10.667 0 24.334 -0.5 41.001 -1.5s34.667 -2.83301 54 -5.5s39.833 -5.83398 61.5 -9.50098
s43.167 -7.83398 64.5 -12.501l-158 -593c-3.33301 -10.667 -5.5 -20.167 -6.5 -28.5s-1.5 -16.166 -1.5 -23.499c0 -20 4.33301 -34.667 13 -44s20 -14 34 -14c16 0 34.833 5.66699 56.5 17s44 27.333 67 48s45.667 45.834 68 75.501s42.333 63.167 60 100.5
s31.834 78 42.501 122s16 90.333 16 139c0 66 -12.833 126.667 -38.5 182s-62 102.833 -109 142.5s-103.167 70.5 -168.5 92.5s-137.333 33 -216 33c-74 0 -142.667 -9.83301 -206 -29.5s-121.166 -46.834 -173.499 -81.501s-98.833 -75.667 -139.5 -123
s-74.834 -98.5 -102.501 -153.5s-48.667 -112.667 -63 -173s-21.5 -121.166 -21.5 -182.499c0 -54.667 5.5 -108 16.5 -160s27.667 -101.167 50 -147.5s50.5 -88.833 84.5 -127.5s74 -72.167 120 -100.5s98.167 -50.333 156.5 -66s122.833 -23.5 193.5 -23.5
c58.667 0 119.5 8.33301 182.5 25s124.167 41.334 183.5 74.001s114.5 73.167 165.5 121.5s93.833 104.5 128.5 168.5zM1087 729.995c-58 -3.33301 -112.333 -18.6699 -163 -46.0029s-94.834 -63 -132.501 -107s-67.167 -94.5 -88.5 -151.5s-32 -117.167 -32 -180.5
c0 -36 7 -61.5 21 -76.5s31.667 -22.5 53 -22.5c20.667 0 43 4.83301 67 14.5s47.167 23.334 69.5 41.001s42.333 38.834 60 63.501s30.834 52.334 39.501 83.001z" />
    <glyph glyph-name="A" unicode="A" horiz-adv-x="1487" 
d="M-56 0v48l195 32l540 1194h192l500 -1194l141 -32v-48h-650v49l188 31l-160 387h-473l-155 -387l227 -32v-48h-545zM448 542h411l-207 505z" />
    <glyph glyph-name="B" unicode="B" horiz-adv-x="1479" 
d="M47 0v48l195 32v1114l-195 32v48c34 0 74.667 0.5 122 1.5s98 2 152 3l167.5 3c57.667 1 113.834 1.5 168.501 1.5c94 0 179.667 -5.5 257 -16.5s143.666 -28.333 198.999 -52s98.166 -53.834 128.499 -90.501s45.5 -80.667 45.5 -132
c0 -37.333 -4.33301 -69.166 -13 -95.499s-22.167 -49.5 -40.5 -69.5s-42.166 -37.667 -71.499 -53s-64.333 -31 -105 -47c52.667 -14 98.834 -32.667 138.501 -56s72.5 -49.833 98.5 -79.5s45.5 -62.167 58.5 -97.5s19.5 -72.333 19.5 -111c0 -58 -11 -107.833 -33 -149.5
s-52 -76.667 -90 -105s-81.833 -51 -131.5 -68s-102.167 -30 -157.5 -39s-111.833 -14.833 -169.5 -17.5s-112.834 -4 -165.501 -4h-578zM551 742l111 0.000976562c107.333 0 187.5 17.5 240.5 52.5s79.5 93.167 79.5 174.5c0 45.333 -7.33301 83.666 -22 114.999
s-36.5 56.833 -65.5 76.5s-65 34 -108 43s-92.833 13.5 -149.5 13.5h-86v-475zM551 681.001l-0.00195312 -388.999c0 -48 4.16699 -86.667 12.5 -116s20.5 -52 36.5 -68s35.167 -26.667 57.5 -32s47.5 -8 75.5 -8c48 0 91.333 8.83301 130 26.5s71.834 41 99.501 70
s48.834 62 63.501 99s22 74.833 22 113.5c0 38 -7.83301 75.333 -23.5 112s-40 69.167 -73 97.5s-75.333 51.166 -127 68.499s-113.5 26 -185.5 26h-88z" />
    <glyph glyph-name="C" unicode="C" horiz-adv-x="1610" 
d="M1434 253c-38.667 -54.667 -80.1602 -100.002 -124.493 -136.002s-91 -64.5 -140 -85.5s-100 -35.667 -153 -44s-107.5 -12.5 -163.5 -12.5c-67.333 0 -132.833 6.33301 -196.5 19s-123.834 31.334 -180.501 56.001s-108.834 55.334 -156.501 92.001s-88.667 79 -123 127
s-61.166 101.667 -80.499 161s-29 123.666 -29 192.999s10.333 134.5 31 195.5s49.5 116.833 86.5 167.5s80.667 96 131 136s105.5 73.833 165.5 101.5s123.5 48.834 190.5 63.501s135.167 22 204.5 22c46 0 87.167 -1.33301 123.5 -4s71 -6.5 104 -11.5s65.667 -11 98 -18
l105.5 -22.5l48 -298l-76 4c-22 54 -44.833 97 -68.5 129s-50.834 56.333 -81.501 73s-65.667 27.5 -105 32.5s-85.333 7.5 -138 7.5c-71.333 0 -136.833 -12.833 -196.5 -38.5s-110.834 -62.5 -153.501 -110.5s-75.834 -106.667 -99.501 -176s-35.5 -147.333 -35.5 -234
c0 -86 14.667 -163.5 44 -232.5s68.166 -127.667 116.499 -176s103.666 -85.333 165.999 -111s126.166 -38.5 191.499 -38.5c34.667 0 71 5.83301 109 17.5s75.167 27.5 111.5 47.5s70.833 43.5 103.5 70.5s61 56.167 85 87.5z" />
    <glyph glyph-name="D" unicode="D" horiz-adv-x="1713" 
d="M59 0l-0.00292969 48.002l195 32v1114l-195 32v48c22.667 0 50.334 0.5 83.001 1.5s68.334 2.33301 107.001 4l121.5 5l127 5c42.333 1.66699 83.166 3 122.499 4s75.666 1.5 108.999 1.5c66 0 133.167 -3.16699 201.5 -9.5s134.5 -18 198.5 -35
s124.167 -40.333 180.5 -70s105.5 -67.5 147.5 -113.5s75.167 -101.5 99.5 -166.5s36.5 -141.5 36.5 -229.5c0 -81.333 -11.167 -154.333 -33.5 -219s-52.833 -121.834 -91.5 -171.501s-84.167 -92.167 -136.5 -127.5s-108.666 -64.333 -168.999 -87
s-123.166 -39.334 -188.499 -50.001s-130.666 -16 -195.999 -16h-719zM703.997 1226l-142.998 0.000976562v-1001c0 -29.333 4 -54 12 -74s20.833 -36.333 38.5 -49s40.667 -21.834 69 -27.501s62.833 -8.5 103.5 -8.5c81.333 0 153.166 14.333 215.499 43
s114.666 69 156.999 121s74.333 114.167 96 186.5s32.5 151.833 32.5 238.5c0 86 -13.167 164.167 -39.5 234.5s-64.333 130.333 -114 180s-110.5 88.167 -182.5 115.5s-153.667 41 -245 41z" />
    <glyph glyph-name="E" unicode="E" horiz-adv-x="1382" 
d="M62 0v48l195 32v1114l-195 32v48h1202v-299l-56 -5l-78 214h-568v-498h325l59 153h46v-388h-46l-59 153h-325v-393c0 -28 1.5 -50.167 4.5 -66.5s8.33301 -28.833 16 -37.5s18 -14.167 31 -16.5s29.833 -3.5 50.5 -3.5h483l101 242h60l-29 -329h-1217z" />
    <glyph glyph-name="F" unicode="F" horiz-adv-x="1207" 
d="M785 0h-740v48l195 32v1114l-195 32v48h1072v-299l-56 -5l-79 214h-437v-498h262l72 153h46v-388h-46l-72 153h-262v-524l240 -32v-48z" />
    <glyph glyph-name="G" unicode="G" horiz-adv-x="1672" 
d="M1432 945l-75.9961 4.00098c-18 46.667 -43.167 87.334 -75.5 122.001s-68.666 63.5 -108.999 86.5s-82.833 40.167 -127.5 51.5s-88 17 -130 17c-76.667 0 -145.834 -14.5 -207.501 -43.5s-114.334 -68.667 -158.001 -119s-77.334 -109.5 -101.001 -177.5
s-35.5 -141 -35.5 -219c0 -90.667 12.333 -173.5 37 -248.5s59.667 -139.5 105 -193.5s100 -95.833 164 -125.5s135.333 -44.5 214 -44.5c20 0 40.833 1 62.5 3s43 5 64 9s41.333 8.83301 61 14.5s37.5 12.167 53.5 19.5v326l-193 44v49h618v-48l-116 -45v-333
c-96.667 -40 -198.5 -70.167 -305.5 -90.5s-211.167 -30.5 -312.5 -30.5c-108 0 -209.833 14 -305.5 42s-179 69.5 -250 124.5s-127.167 123.167 -168.5 204.5s-62 175.666 -62 282.999c0 114.667 22.167 214.167 66.5 298.5s104.5 154.166 180.5 209.499
s164.667 96.5 266 123.5s208.666 40.5 321.999 40.5c53.333 0 100.666 -1.33301 141.999 -4s80 -6.5 116 -11.5s71 -11 105 -18l108 -22.5z" />
    <glyph glyph-name="H" unicode="H" horiz-adv-x="1735" 
d="M1157 686v508l-194 32v48h696v-48l-195 -32l2 -1114l195 -33v-47h-698v47l194 33v524h-608v-524l194 -33v-47h-696v47l195 33v1115l-195 31v48h696v-48l-194 -32v-508h608z" />
    <glyph glyph-name="I" unicode="I" horiz-adv-x="791" 
d="M549 99l194 -51v-48h-696v48l195 51v1095l-197 32v48h698v-48l-194 -32v-1095z" />
    <glyph glyph-name="J" unicode="J" horiz-adv-x="780" 
d="M140 -397c25.333 30.667 44.833 63.833 58.5 99.5s23.5 72 29.5 109s9.5 74.167 10.5 111.5s1.5 73 1.5 107v1164l-195 32v48h698v-48l-194 -31v-1175l-376 -497z" />
    <glyph glyph-name="K" unicode="K" horiz-adv-x="1613" 
d="M549 691l598 503l-164 32v48h507v-48l-187 -32l-537 -416l662 -698l138 -32v-48h-409l-608 656v-576l194 -32v-48h-696v48l195 32v1114l-195 32v48h696v-48l-194 -32v-503z" />
    <glyph glyph-name="L" unicode="L" horiz-adv-x="1317" 
d="M603 87h444l159 271h70l-70 -358h-1105v48l195 32v1114l-195 32v48h696v-48l-194 -32v-1107z" />
    <glyph glyph-name="M" unicode="M" horiz-adv-x="1984" 
d="M79 48l167 32l103 1114l-192 32v48h451l413 -922l419 922h416v-48l-155 -32l60 -1114l171 -32v-48h-680v48l206 32l-44 937l-470 -1017h-59l-477 1029l-41 -949l171 -32v-48h-459v48z" />
    <glyph glyph-name="N" unicode="N" horiz-adv-x="1633" 
d="M386 80l167 -32v-48h-489v48l188 32l35 1114l-192 32v50h394l802 -893l-15 811l-207 32v48h489v-48l-150 -32l-54 -1200h-69l-935 1010z" />
    <glyph glyph-name="O" unicode="O" horiz-adv-x="1612" 
d="M796 -33c-106.667 0 -204.332 16.832 -292.999 50.499s-164.834 79.667 -228.501 138s-113.167 126.5 -148.5 204.5s-53 161.667 -53 251c0 62.667 8.66699 123.167 26 181.5s42 112.833 74 163.5s70.5 97.167 115.5 139.5s95 78.5 150 108.5s114.5 53.333 178.5 70
s130.667 25 200 25c105.333 0 202.166 -16.833 290.499 -50.5s164.333 -79.5 228 -137.5s113.334 -126.167 149.001 -204.5s53.5 -162.166 53.5 -251.499c0 -70 -9.83301 -135.667 -29.5 -197s-46.667 -117.5 -81 -168.5s-75 -96.5 -122 -136.5s-98 -73.833 -153 -101.5
s-112.833 -48.667 -173.5 -63s-121.667 -21.5 -183 -21.5zM404.002 686.999c0 -94 9.33301 -180.329 28 -258.996s45.834 -146.334 81.501 -203.001s79.334 -100.834 131.001 -132.501s110.5 -47.5 176.5 -47.5c64.667 0 121 12.667 169 38s88 61.666 120 108.999
s56 104.833 72 172.5s24 144.167 24 229.5c0 90 -9.66699 172.833 -29 248.5s-47.166 141 -83.499 196s-80.333 97.833 -132 128.5s-109.834 46 -174.501 46c-61.333 0 -115.833 -12.5 -163.5 -37.5s-87.834 -60.333 -120.501 -106s-57.334 -100.834 -74.001 -165.501
s-25 -137 -25 -217z" />
    <glyph glyph-name="P" unicode="P" horiz-adv-x="1338" 
d="M572 80l192 -32.001v-48h-696v48l195 32v1114l-195 32v48c4.66699 0 16.834 0.333008 36.501 1s44.167 1.33398 73.5 2.00098s62.166 1.66699 98.499 3s73.333 2.5 111 3.5s74.5 2.16699 110.5 3.5s68.5 2.33301 97.5 3s53.167 1.33398 72.5 2.00098s31 1 35 1
c100.667 0 187.167 -7.83301 259.5 -23.5s131.833 -37.834 178.5 -66.501s81.167 -62.667 103.5 -102s33.5 -83 33.5 -131c0 -56.667 -9.5 -105.667 -28.5 -147s-44.667 -76.333 -77 -105s-69.833 -52 -112.5 -70s-87.334 -32 -134.001 -42s-94.167 -16.667 -142.5 -20
s-94.5 -5 -138.5 -5h-37.5c-12.333 0 -24.166 0.333008 -35.499 1v-502zM572 1212l-0.000976562 -560.002c14.667 -2.66699 28.834 -4.5 42.501 -5.5s27.167 -1.5 40.5 -1.5c56.667 0 107.167 7.83301 151.5 23.5s81.833 37.334 112.5 65.001s53.834 60.334 69.501 98.001
s23.5 78.5 23.5 122.5c0 34 -6.66699 67 -20 99s-34 60.167 -62 84.5s-63.333 44 -106 59s-93.334 22.5 -152.001 22.5c-15.333 0 -31.333 -0.5 -48 -1.5s-34 -2.83301 -52 -5.5z" />
    <glyph glyph-name="Q" unicode="Q" horiz-adv-x="1612" 
d="M796 -33c-106.667 0 -204.332 16.832 -292.999 50.499s-164.834 79.667 -228.501 138s-113.167 126.5 -148.5 204.5s-53 161.667 -53 251c0 62.667 8.66699 123.167 26 181.5s42 112.833 74 163.5s70.5 97.167 115.5 139.5s95 78.5 150 108.5s114.5 53.333 178.5 70
s130.667 25 200 25c105.333 0 202.166 -16.833 290.499 -50.5s164.333 -79.5 228 -137.5s113.334 -126.167 149.001 -204.5s53.5 -162.166 53.5 -251.499c0 -70 -9.83301 -135.667 -29.5 -197s-46.667 -117.5 -81 -168.5s-75 -96.5 -122 -136.5s-98 -73.833 -153 -101.5
s-112.833 -48.667 -173.5 -63s-121.667 -21.5 -183 -21.5zM404.002 686.999c0 -94 9.33301 -180.329 28 -258.996s45.834 -146.334 81.501 -203.001s79.334 -100.834 131.001 -132.501s110.5 -47.5 176.5 -47.5c64.667 0 121 12.667 169 38s88 61.666 120 108.999
s56 104.833 72 172.5s24 144.167 24 229.5c0 90 -9.66699 172.833 -29 248.5s-47.166 141 -83.499 196s-80.333 97.833 -132 128.5s-109.834 46 -174.501 46c-61.333 0 -115.833 -12.5 -163.5 -37.5s-87.834 -60.333 -120.501 -106s-57.334 -100.834 -74.001 -165.501
s-25 -137 -25 -217zM372.002 -279.997c34.667 45.333 69.668 83.1689 105.001 113.502s70.666 54.666 105.999 72.999s70.666 31.333 105.999 39s70.333 11.5 105 11.5c38 0 75.833 -3.66699 113.5 -11s74.834 -16.5 111.501 -27.5s73 -23 109 -36s71.167 -25 105.5 -36
s68 -20.167 101 -27.5s65.167 -11 96.5 -11c42 0 82.333 8.66699 121 26s75 48.666 109 93.999l50 -37l-257 -343c-54.667 16 -111.667 38.667 -171 68l-182 87.5c-62 29 -124.5 54.167 -187.5 75.5s-125.5 32 -187.5 32c-54 0 -105.833 -10 -155.5 -30
s-98.5 -54.333 -146.5 -103z" />
    <glyph glyph-name="R" unicode="R" horiz-adv-x="1520" 
d="M551 77l192.004 -29.001v-49h-696v49l195 32v1114l-195 32v48c173.333 8 315 13.5 425 16.5s190.333 4.5 241 4.5c158.667 0 280.334 -26.167 365.001 -78.5s127 -134.5 127 -246.5c0 -37.333 -6.33301 -72 -19 -104s-31 -61.333 -55 -88s-53 -50.834 -87 -72.501
s-72.333 -41.5 -115 -59.5c33.333 -4 62.666 -15.167 87.999 -33.5s48.166 -41.166 68.499 -68.499s38.833 -58.166 55.5 -92.499l51 -104.5c17.333 -35.333 35.333 -70 54 -104s40.167 -64.833 64.5 -92.5s52.166 -50.667 83.499 -69s67.666 -29.5 108.999 -33.5v-48h-431
c-20.667 38 -40.834 79.833 -60.501 125.5l-62.5 138.5c-22 46.667 -45.5 92 -70.5 136s-52.833 83 -83.5 117s-64.667 61.333 -102 82s-79 31 -125 31h-17v-553zM551.004 1212l-0.000976562 -511.997c14 -2 27.833 -3.33301 41.5 -4s26.834 -1 39.501 -1
c42.667 0 81 5.16699 115 15.5s63 26.166 87 47.499s42.333 48.833 55 82.5s19 73.5 19 119.5c0 44 -5.83301 82.667 -17.5 116s-28.167 61.166 -49.5 83.499s-47 39.166 -77 50.499s-63.333 17 -100 17c-35.333 0 -73 -5 -113 -15z" />
    <glyph glyph-name="S" unicode="S" horiz-adv-x="1188" 
d="M104 378l50.9961 0.00292969c32 -101.333 83.833 -178.5 155.5 -231.5s159.834 -79.5 264.501 -79.5c34.667 0 66.334 4.83301 95.001 14.5s53.334 23.167 74.001 40.5s36.667 38.333 48 63s17 51.667 17 81c0 90.667 -103.333 189 -310 295l-147 76
c-46 24.667 -86 51.667 -120 81s-61 62.666 -81 99.999s-30 82 -30 134c0 50.667 10.5 97.167 31.5 139.5s50.333 78.666 88 108.999s82.5 53.833 134.5 70.5s109.333 25 172 25c62 0 117.667 -3.5 167 -10.5s93 -16 131 -27s71 -23.833 99 -38.5s51.333 -29.334 70 -44.001
v-245l-44 -2c-13.333 44.667 -33 84 -59 118s-56 62.5 -90 85.5s-71.5 40.333 -112.5 52s-83.167 17.5 -126.5 17.5c-31.333 0 -59.666 -3.5 -84.999 -10.5s-47 -16.833 -65 -29.5s-32 -28 -42 -46s-15 -38 -15 -60c0 -23.333 4.5 -44.5 13.5 -63.5s24.167 -37.667 45.5 -56
s49.666 -37.666 84.999 -57.999s79 -43.5 131 -69.5l176.5 -92c53.667 -29.333 99.834 -61 138.501 -95s68.667 -72.667 90 -116s32 -95 32 -155c0 -53.333 -11.833 -102.833 -35.5 -148.5s-56 -85.334 -97 -119.001s-89.667 -60.167 -146 -79.5s-116.833 -29 -181.5 -29
s-122 2.5 -172 7.5s-95.333 12.333 -136 22s-78.167 21.5 -112.5 35.5s-68.5 30.333 -102.5 49v289z" />
    <glyph glyph-name="T" unicode="T" horiz-adv-x="1491" 
d="M592 1183h-345l-117 -265l-50 2l36 354h1258l36 -354l-50 -2l-118 265h-343v-1103l194 -32v-48h-696v48l195 32v1103z" />
    <glyph glyph-name="U" unicode="U" horiz-adv-x="1662" 
d="M1376 530c-3.33301 -97.333 -14.499 -181.001 -33.499 -251.001s-49.667 -127.667 -92 -173s-98.833 -78.833 -169.5 -100.5s-159 -32.5 -265 -32.5c-103.333 0 -190.833 10.5 -262.5 31.5s-129.834 52.667 -174.501 95s-77.167 95.333 -97.5 159
s-30.5 138.5 -30.5 224.5v711l-194 32v48h690v-48l-195 -32v-687c0 -63.333 3.83301 -121 11.5 -173s23.5 -96.5 47.5 -133.5s58.833 -65.5 104.5 -85.5s106.5 -30 182.5 -30c138 0 239.833 39.833 305.5 119.5s95.167 204.834 88.5 375.501l-25 614l-176 32v48h507v-48
l-199 -32z" />
    <glyph glyph-name="V" unicode="V" horiz-adv-x="1549" 
d="M712 -25l-586 1219l-147 32v48h692v-48l-206 -32l424 -887l369 887l-208 32v48h524v-48l-165 -32l-591 -1219h-106z" />
    <glyph glyph-name="W" unicode="W" horiz-adv-x="2019" 
d="M1344 -25l-351 803l-301 -803h-122l-451 1219l-152 32v48h702v-48l-208 -32l278 -880l319 960h65l392 -958l236 878l-209 32v48h524v-48l-187 -32l-413 -1219h-122z" />
    <glyph glyph-name="X" unicode="X" horiz-adv-x="1644" 
d="M-32 0v48l166 32l550 509l-482 605l-195 32v48h836v-48l-252 -32l307 -390l358 390l-211 32v48h559v-48l-175 -32l-486 -448l526 -666l191 -32v-48h-779v48l210 32l-363 454l-419 -454l177 -32v-48h-518z" />
    <glyph glyph-name="Y" unicode="Y" horiz-adv-x="1444" 
d="M567 557l-387 637l-138 32v48h676v-48l-178 -32l285 -541l282 541l-192 32v48h474v-48l-143 -32l-372 -610v-504l197 -32v-48h-698v48l194 31v478z" />
    <glyph glyph-name="Z" unicode="Z" horiz-adv-x="1416" 
d="M80 0v127l802 1049h-612l-97 -253h-47v351h1113v-118l-801 -1058h683l110 311l46 -2v-407h-1197z" />
    <glyph glyph-name="bracketleft" unicode="[" horiz-adv-x="877" 
d="M202 1375h531v-71h-258v-1710h258v-71h-531v1852z" />
    <glyph glyph-name="backslash" unicode="\" horiz-adv-x="942" 
d="M169.095 1362h-127.984l681.916 -1421h127.984z" />
    <glyph glyph-name="bracketright" unicode="]" horiz-adv-x="877" 
d="M733.024 1375h-530.935v-71h257.968v-1710h-257.968v-71h530.935v1852z" />
    <glyph glyph-name="asciicircum" unicode="^" horiz-adv-x="956" 
d="M786 624l-308 570l-309 -570h-101l384 712h51l384 -712h-101z" />
    <glyph glyph-name="underscore" unicode="_" horiz-adv-x="1024" 
d="M1039 -294h-1054v96h1054v-96z" />
    <glyph glyph-name="grave" unicode="`" horiz-adv-x="641" 
d="M66 1304c0 6.66699 3.66602 12.501 10.999 17.501s19 7.5 35 7.5h184c17.333 0 30.5 -1.33301 39.5 -4s17.5 -9.33398 25.5 -20.001l200 -272c5.33301 -6.66699 7 -13.667 5 -21s-11 -11 -27 -11c-12 0 -24.333 4 -37 12l-412 261
c-9.33301 5.33301 -15.666 10.833 -18.999 16.5s-5 10.167 -5 13.5z" />
    <glyph glyph-name="a" unicode="a" horiz-adv-x="1049" 
d="M144 524l0.00195312 166.003c20.667 25.333 45.334 47.166 74.001 65.499s59.167 33.333 91.5 45s65.666 20.167 99.999 25.5s67.5 8 99.5 8c49.333 0 96.166 -4 140.499 -12s83.333 -22 117 -42s60.5 -47.167 80.5 -81.5s30 -77.5 30 -129.5v-489l107 -32v-48h-295
c-29.333 0 -50.833 7.5 -64.5 22.5s-20.834 31.5 -21.501 49.5c-38.667 -36.667 -79 -62 -121 -76s-88 -21 -138 -21c-80.667 0 -143.5 19.5 -188.5 58.5s-67.5 93.5 -67.5 163.5c0 40 8.33301 74.167 25 102.5s38.834 52.166 66.501 71.499s59.5 35.333 95.5 48
s73.167 24 111.5 34s76.333 19.333 114 28s72.167 18.667 103.5 30v78c0 30.667 -4.5 57.167 -13.5 79.5s-20.333 40.5 -34 54.5s-28.167 24.333 -43.5 31s-29.333 10 -42 10c-31.333 0 -58.5 -6.33301 -81.5 -19s-42.5 -29.834 -58.5 -51.501s-28.833 -47 -38.5 -76
s-16.834 -60.167 -21.501 -93.5h-127zM604.002 429.003c-46 -5.33301 -85.835 -15.499 -119.502 -30.499s-61.5 -32.5 -83.5 -52.5s-38.333 -41.5 -49 -64.5s-16 -45.5 -16 -67.5c0 -16 2.83301 -31.333 8.5 -46s14.334 -27.334 26.001 -38.001s25.834 -19.167 42.501 -25.5
s36 -9.5 58 -9.5c22.667 0 45 8 67 24s44 37 66 63v247z" />
    <glyph glyph-name="b" unicode="b" horiz-adv-x="1143" 
d="M726 834c51.333 0 98.667 -8.16699 142 -24.5s80.666 -40.833 111.999 -73.5s55.833 -73.334 73.5 -122.001s26.5 -105 26.5 -169c0 -68 -12.833 -130.667 -38.5 -188s-61.834 -107 -108.501 -149s-102.667 -74.667 -168 -98s-137.666 -35 -216.999 -35
c-56 0 -118.167 2.83301 -186.5 8.5s-140.166 16.5 -215.499 32.5v1210h-129v48l338 88h65v-644c22.667 20 47.167 37.167 73.5 51.5s52.833 26.333 79.5 36s53 16.834 79 21.501s50.667 7 74 7zM589.001 59c72.667 0 127.666 25.332 164.999 75.999s56 125.334 56 224.001
c0 115.333 -18 198.833 -54 250.5s-89 77.5 -159 77.5c-32 0 -63.667 -7.66699 -95 -23s-58.666 -40 -81.999 -74v-327c0 -136 56.333 -204 169 -204z" />
    <glyph glyph-name="c" unicode="c" horiz-adv-x="1057" 
d="M836 549l-42.4951 63.5039c-16.333 23.667 -35.333 46 -57 67s-46.167 38.833 -73.5 53.5s-58.333 22 -93 22c-32.667 0 -60.834 -7.83301 -84.501 -23.5s-43.334 -37.5 -59.001 -65.5s-27.167 -60.833 -34.5 -98.5s-11 -78.5 -11 -122.5c0 -51.333 6 -98.333 18 -141
s29.333 -79.667 52 -111s50.167 -55.666 82.5 -72.999s69.166 -26 110.499 -26s80.166 10.667 116.499 32s76.166 54.666 119.499 99.999l67 -38c-28 -36 -56.667 -67.333 -86 -94s-60.666 -48.834 -93.999 -66.501s-69.166 -30.834 -107.499 -39.501s-80.5 -13 -126.5 -13
c-66.667 0 -127.334 10.333 -182.001 31s-101.5 49 -140.5 85s-69.167 78.5 -90.5 127.5s-32 102.167 -32 159.5c0 64 13.167 123.667 39.5 179s63.166 103.5 110.499 144.5s103.5 73.333 168.5 97s136.5 35.5 214.5 35.5c43.333 0 83.333 -4.33301 120 -13
s69.167 -19.834 97.5 -33.501s51.833 -28.334 70.5 -44.001s32 -30.5 40 -44.5z" />
    <glyph glyph-name="d" unicode="d" horiz-adv-x="1206" 
d="M734 813v413.001h-129v48l338 88h65v-1282l132 -32v-48h-406v75c-50.667 -33.333 -100.667 -58.333 -150 -75s-100 -25 -152 -25c-53.333 0 -101.833 8.83301 -145.5 26.5s-81 43 -112 76s-55 73.5 -72 121.5s-25.5 102 -25.5 162c0 74.667 12.667 141.334 38 200.001
s60.166 108.167 104.499 148.5s96.333 71.166 156 92.499s124.167 32 193.5 32c20.667 0 43.334 -1.33301 68.001 -4s57 -8.33398 97 -17.001zM569 748.001c-34 0 -64.668 -6.16699 -92.001 -18.5s-50.666 -31 -69.999 -56s-34.333 -56.167 -45 -93.5s-16 -81.333 -16 -132
c0 -57.333 5 -106.5 15 -147.5s24.5 -74.5 43.5 -100.5s42.167 -45.167 69.5 -57.5s58.333 -18.5 93 -18.5c26 0 52.333 3.5 79 10.5s56 18.833 88 35.5v520c-28.667 19.333 -57.5 33.833 -86.5 43.5s-55.167 14.5 -78.5 14.5z" />
    <glyph glyph-name="e" unicode="e" horiz-adv-x="1044" 
d="M365 485l327.001 0.00195312c-0.666992 83.333 -15.834 146.166 -45.501 188.499s-70.5 63.5 -122.5 63.5c-54 0 -94 -22.333 -120 -67s-39 -106.334 -39 -185.001zM944.001 198.002c-65.333 -75.333 -131.997 -131.333 -199.997 -168s-142.333 -55 -223 -55
c-64 0 -123.167 10.333 -177.5 31s-101.333 49.5 -141 86.5s-70.5 81 -92.5 132s-33 106.5 -33 166.5c0 68.667 12.333 130.5 37 185.5s58.5 101.5 101.5 139.5s93.667 67.167 152 87.5s121.5 30.5 189.5 30.5c66 0 123 -10.833 171 -32.5s87.667 -51.5 119 -89.5
s54.666 -82.667 69.999 -134s23.666 -107 24.999 -167h-577c5.33301 -100 32.666 -175.167 81.999 -225.5s116.333 -75.5 201 -75.5c24 0 46.667 2.5 68 7.5s42 12.5 62 22.5s40 23 60 39s41 35 63 57z" />
    <glyph glyph-name="f" unicode="f" horiz-adv-x="750" 
d="M796 1344v-150c-56.667 21.333 -106 32 -148 32c-58 0 -102 -20.167 -132 -60.5s-45 -102.5 -45 -186.5v-168h221v-103h-221v-628l177 -32v-48h-580v48l129 32v628h-154v103h154c0.666992 38.667 3.5 71.667 8.5 99s15.5 51.333 31.5 72l239 304
c12.667 16.667 28.5 30 47.5 40s39.5 17.667 61.5 23s45.333 8.83301 70 10.5s49 2.5 73 2.5c28 0 53.667 -5 77 -15z" />
    <glyph glyph-name="g" unicode="g" horiz-adv-x="1121" 
d="M1080 833l0.00390625 -198.997l-164 24c22.667 -38.667 34 -75.334 34 -110.001c0 -92 -44.333 -163.333 -133 -214s-222.334 -76 -401.001 -76c-20.667 -9.33301 -37.334 -17.5 -50.001 -24.5s-22.5 -13.5 -29.5 -19.5s-11.667 -12 -14 -18s-3.5 -13 -3.5 -21
c0 -20.667 22.167 -36.834 66.5 -48.501s110.166 -17.5 197.499 -17.5c84.667 0 158.667 -4.33301 222 -13s115.833 -22.5 157.5 -41.5s72.834 -43.667 93.501 -74s31 -67.5 31 -111.5c0 -52.667 -14.5 -100.334 -43.5 -143.001s-70 -79 -123 -109
s-117.333 -53.167 -193 -69.5s-159.834 -24.5 -252.501 -24.5c-62.667 0 -120.5 5 -173.5 15s-98.833 24 -137.5 42s-68.834 39.167 -90.501 63.5s-32.5 50.833 -32.5 79.5c0 16 2.66699 31 8 45s15.333 28.5 30 43.5s35.167 31.5 61.5 49.5s60.166 39 101.499 63
c-119.333 48.667 -179 108.667 -179 180c0 20 4.16699 38.167 12.5 54.5s22.5 31.333 42.5 45s46.5 26.667 79.5 39s74.5 24.833 124.5 37.5c-80 28 -141 64.667 -183 110s-63 97.333 -63 156c0 40.667 11.333 78.5 34 113.5s53.834 65.5 93.501 91.5
s86.167 46.333 139.5 61s111 22 173 22c30.667 0 62 -1.66699 94 -5s63.167 -8.83301 93.5 -16.5s59.333 -17.5 87 -29.5s52.5 -27 74.5 -45zM352.004 -97.9971c-28 -17.333 -48.332 -35.332 -60.999 -53.999s-19 -39 -19 -61c0 -25.333 7.5 -48.333 22.5 -69
s36.167 -38.334 63.5 -53.001s60 -26.167 98 -34.5s80 -12.5 126 -12.5c48 0 91.167 4 129.5 12s71.166 19 98.499 33s48.333 30.833 63 50.5s22 41.167 22 64.5c0 22 -4.83301 39.833 -14.5 53.5s-24.167 24.5 -43.5 32.5s-43.333 13.5 -72 16.5s-61.667 4.5 -99 4.5
c-64 0 -122 1.66699 -174 5s-98.667 7.33301 -140 12zM504.005 757.004c-50 0 -88.5 -15.834 -115.5 -47.501s-40.5 -77.167 -40.5 -136.5c0 -75.333 13.833 -132.166 41.5 -170.499s68.5 -57.5 122.5 -57.5c52.667 0 93.167 16.167 121.5 48.5s42.5 78.833 42.5 139.5
c0 73.333 -14.5 129 -43.5 167s-71.833 57 -128.5 57z" />
    <glyph glyph-name="h" unicode="h" horiz-adv-x="1252" 
d="M458 80l127 -32.001v-48h-530v48l129 32v1146h-129v48l338 88h65v-640c32 17.333 62.5 33 91.5 47s58.667 25.833 89 35.5s61.833 17 94.5 22s68.334 7.5 107.001 7.5s73.5 -5.66699 104.5 -17s57.167 -27.666 78.5 -48.999s37.833 -47.333 49.5 -78s17.5 -65 17.5 -103
v-507l127 -32v-48h-530v48l129 32v399c0 44.667 -3.5 82.167 -10.5 112.5s-16.5 54.833 -28.5 73.5s-26.333 32 -43 40s-34.667 12 -54 12c-32 0 -66.833 -9 -104.5 -27s-76.834 -39 -117.501 -63v-547z" />
    <glyph glyph-name="i" unicode="i" horiz-adv-x="647" 
d="M469 80l127 -32v-48h-530v48l129 32v650h-129v48l338 66h65v-764zM181 1129c0 20.667 3.83301 40.165 11.5 58.498s18.334 34.166 32.001 47.499s29.5 23.833 47.5 31.5s37.333 11.5 58 11.5c21.333 0 41.166 -4 59.499 -12s34.333 -18.667 48 -32
s24.5 -29.166 32.5 -47.499s12 -37.5 12 -57.5c0 -20.667 -4 -40.167 -12 -58.5s-18.833 -34.5 -32.5 -48.5s-29.667 -25 -48 -33s-38.166 -12 -59.499 -12c-20.667 0 -40 3.83301 -58 11.5s-33.833 18.334 -47.5 32.001s-24.334 29.834 -32.001 48.501
s-11.5 38.667 -11.5 60z" />
    <glyph glyph-name="j" unicode="j" horiz-adv-x="610" 
d="M180 730h-128.999v48l338 56h65v-834l-275 -483l-82 35c18.667 30.667 33.667 58.667 45 84s19.666 51.5 24.999 78.5s8.83301 56.333 10.5 88s2.5 69.167 2.5 112.5v815zM170.001 1129c0 20.667 3.83301 40.165 11.5 58.498s18.334 34.166 32.001 47.499
s29.5 23.833 47.5 31.5s37.333 11.5 58 11.5c21.333 0 41.166 -4 59.499 -12s34.333 -18.667 48 -32s24.5 -29.166 32.5 -47.499s12 -37.5 12 -57.5c0 -20.667 -4 -40.167 -12 -58.5s-18.833 -34.5 -32.5 -48.5s-29.667 -25 -48 -33s-38.166 -12 -59.499 -12
c-20.667 0 -40 3.83301 -58 11.5s-33.833 18.334 -47.5 32.001s-24.334 29.834 -32.001 48.501s-11.5 38.667 -11.5 60z" />
    <glyph glyph-name="k" unicode="k" horiz-adv-x="1206" 
d="M458 80l127.001 -32v-48h-530v48l129 32v1146h-129v48h7l331 88h65v-884l348 252l-140 33v48h456v-48l-170 -33l-262 -195c15.333 -6.66699 28.666 -15.5 39.999 -26.5s22 -22.5 32 -34.5l317 -394l132 -32v-48h-394l-299 391c-8 10 -16.5 19.667 -25.5 29
s-20.5 17 -34.5 23v-363z" />
    <glyph glyph-name="l" unicode="l" horiz-adv-x="638" 
d="M461 80l127 -32v-48h-530v48l129 32v1146h-129v48l338 88h65v-1282z" />
    <glyph glyph-name="m" unicode="m" horiz-adv-x="1927" 
d="M461 80l127.003 -32v-48h-530v48l129 32v650h-129v48l338 56h65v-112c32 17.333 62.5 33 91.5 47s58.667 25.833 89 35.5s61.833 17 94.5 22s68.334 7.5 107.001 7.5c54 0 100.167 -10.833 138.5 -32.5s67.166 -52.5 86.499 -92.5c34.667 19.333 67.667 36.666 99 51.999
s63 28.5 95 39.5s65.167 19.333 99.5 25s72.166 8.5 113.499 8.5c38.667 0 73.5 -5.66699 104.5 -17s57.167 -27.666 78.5 -48.999s37.833 -47.333 49.5 -78s17.5 -65 17.5 -103v-507l127 -32v-48h-530v48l129 32v399c0 44.667 -3.5 82.167 -10.5 112.5
s-16.5 54.833 -28.5 73.5s-26.333 32 -43 40s-34.667 12 -54 12c-32 0 -66.833 -9 -104.5 -27s-76.834 -39 -117.501 -63v-547l127 -32v-48h-530v48l129 32v399c0 44.667 -3.5 82.167 -10.5 112.5s-16.5 54.833 -28.5 73.5s-26.333 32 -43 40s-34.667 12 -54 12
c-32 0 -66.833 -9 -104.5 -27s-76.834 -39 -117.501 -63v-547z" />
    <glyph glyph-name="n" unicode="n" horiz-adv-x="1249" 
d="M455 80l127 -32.001v-48h-530v48l129 32v650h-129v48l338 56h65v-112c32 17.333 62.5 33 91.5 47s58.667 25.833 89 35.5s61.833 17 94.5 22s68.334 7.5 107.001 7.5s73.5 -5.66699 104.5 -17s57.167 -27.666 78.5 -48.999s37.833 -47.333 49.5 -78s17.5 -65 17.5 -103
v-507l127 -32v-48h-530v48l129 32v399c0 44.667 -3.5 82.167 -10.5 112.5s-16.5 54.833 -28.5 73.5s-26.333 32 -43 40s-34.667 12 -54 12c-32 0 -66.833 -9 -104.5 -27s-76.834 -39 -117.501 -63v-547z" />
    <glyph glyph-name="o" unicode="o" horiz-adv-x="1121" 
d="M74 401c0 66.667 12.667 126.834 38 180.501s60.333 99.167 105 136.5s97.667 66.166 159 86.499s128 30.5 200 30.5c71.333 0 136.5 -9.66699 195.5 -29s109.5 -47.166 151.5 -83.499s74.5 -80.333 97.5 -132s34.5 -109.834 34.5 -174.501c0 -66 -12.333 -126 -37 -180
s-59.334 -100.167 -104.001 -138.5s-97.667 -68.166 -159 -89.499s-128.666 -32 -201.999 -32c-71.333 0 -136.333 9.83301 -195 29.5s-109 48 -151 85s-74.667 81.667 -98 134s-35 111.166 -35 176.499zM600 47c62 0 107.832 21.168 137.499 63.501
s44.5 103.833 44.5 184.5c0 72.667 -6.16699 138.334 -18.5 197.001s-29.666 108.5 -51.999 149.5s-49.5 72.5 -81.5 94.5s-67.333 33 -106 33c-58.667 0 -103.834 -20.333 -135.501 -61s-47.5 -95 -47.5 -163c0 -78 6 -147.833 18 -209.5s29.333 -113.834 52 -156.501
s49.834 -75.334 81.501 -98.001s67.5 -34 107.5 -34z" />
    <glyph glyph-name="p" unicode="p" horiz-adv-x="1223" 
d="M166 730l-129.001 -0.00195312v48l338 56h65v-127c22.667 20 48.167 37.833 76.5 53.5s57.333 28.834 87 39.501s58.667 18.834 87 24.501s53.5 8.83398 75.5 9.50098c51.333 -0.666992 98.666 -10.834 141.999 -30.501s80.833 -47 112.5 -82s56.334 -76.5 74.001 -124.5
s26.5 -100.667 26.5 -158c0 -63.333 -13.167 -123 -39.5 -179s-61.666 -105.167 -105.999 -147.5s-95.333 -75.833 -153 -100.5s-117.834 -37 -180.501 -37c-29.333 0 -61.166 2.33301 -95.499 7s-69.833 11.667 -106.5 21v-400l127 -32v-48h-530v48l129 32v1127z
M628.999 55.998c34 0 64.668 6.66992 92.001 20.0029s50.833 32.666 70.5 57.999s34.667 56.166 45 92.499s15.5 77.166 15.5 122.499c0 52 -5 98.5 -15 139.5s-24.5 75.833 -43.5 104.5s-42.167 50.5 -69.5 65.5s-58.333 22.5 -93 22.5
c-30.667 0 -61.834 -4.83301 -93.501 -14.5s-64.167 -28.167 -97.5 -55.5v-479c72 -50.667 135 -76 189 -76z" />
    <glyph glyph-name="q" unicode="q" horiz-adv-x="1174" 
d="M762 -397v484.002c-32 -21.333 -61.5 -39 -88.5 -53s-53.333 -25.5 -79 -34.5s-51.167 -15.333 -76.5 -19s-52.666 -5.5 -81.999 -5.5c-51.333 0 -98.833 9.5 -142.5 28.5s-81.167 45.667 -112.5 80s-55.833 75.166 -73.5 122.499s-26.5 99.333 -26.5 156
c0 76.667 13.333 144.5 40 203.5s63 108.333 109 148s100.167 69.667 162.5 90s129.166 30.5 200.499 30.5c31.333 0 59.333 -1.83301 84 -5.5s48.667 -8.83398 72 -15.501s47.333 -14.5 72 -23.5s52.667 -18.5 84 -28.5l77 73h54v-1231l127 -32v-48h-530v48zM762 540.002
c0 27.333 -2.49902 54 -7.49902 80s-14.167 49 -27.5 69s-31.5 36.167 -54.5 48.5s-52.833 18.5 -89.5 18.5c-72.667 0 -129.334 -26.333 -170.001 -79s-61 -126.334 -61 -221.001c0 -51.333 5 -97.5 15 -138.5s24.5 -75.667 43.5 -104s42.333 -50.166 70 -65.499
s59.167 -23 94.5 -23c37.333 0 71 4.83301 101 14.5s58.667 29.5 86 59.5v341z" />
    <glyph glyph-name="r" unicode="r" horiz-adv-x="896" 
d="M456 80l127.001 -32v-48h-530v48l129 32v650h-129v48l338 66h65v-252c28.667 53.333 53.5 95.833 74.5 127.5s39.667 56 56 73s30.833 28.167 43.5 33.5s25 8 37 8c17.333 0 35 -2 53 -6s39 -10.667 63 -20l93 -39l-108 -216c-48.667 20.667 -85.334 34.5 -110.001 41.5
s-43.667 10.5 -57 10.5c-17.333 0 -38.833 -10.167 -64.5 -30.5s-52.5 -51.5 -80.5 -93.5v-401z" />
    <glyph glyph-name="s" unicode="s" horiz-adv-x="809" 
d="M682 582l-54 2.00195c-8 24.667 -20 47.167 -36 67.5s-33.833 37.666 -53.5 51.999s-40.667 25.333 -63 33s-43.833 11.5 -64.5 11.5c-30 0 -54.333 -7.83301 -73 -23.5s-28 -35.5 -28 -59.5c0 -40 52.333 -89 157 -147c46 -24 85.667 -46.667 119 -68
s60.666 -43 81.999 -65s37.166 -45.5 47.499 -70.5s15.5 -53.167 15.5 -84.5c0 -39.333 -7.33301 -74.666 -22 -105.999s-35.5 -58 -62.5 -80s-59.667 -39 -98 -51s-81.5 -18 -129.5 -18c-31.333 0 -61 0.666992 -89 2s-54.667 3.83301 -80 7.5
s-50.166 8.16699 -74.499 13.5s-48.5 12 -72.5 20l-15 206l54 -4c10.667 -26 24.334 -48.667 41.001 -68s35.167 -35.333 55.5 -48s42.333 -22.167 66 -28.5s48.167 -9.5 73.5 -9.5c36 0 64.833 7.5 86.5 22.5s32.5 35.833 32.5 62.5c0 36 -46 81 -138 135
c-48 27.333 -88.833 52.666 -122.5 75.999s-61 46.166 -82 68.499s-36.333 45.5 -46 69.5s-14.5 50.667 -14.5 80c0 38.667 8 73.667 24 105s38.667 58 68 80s65 39 107 51s88.667 18 140 18c72 0 153 -14.333 243 -43z" />
    <glyph glyph-name="t" unicode="t" horiz-adv-x="783" 
d="M707 707h-265.002v-372c0 -34 2.66699 -65.333 8 -94s13.333 -53.5 24 -74.5s23.834 -37.5 39.501 -49.5s33.834 -18 54.501 -18c14 0 29.333 3.16699 46 9.5s34.667 16.833 54 31.5l42 -55c-44 -36 -87.5 -63.333 -130.5 -82s-90.5 -28 -142.5 -28
c-41.333 0 -78.5 5.66699 -111.5 17s-61.167 27.5 -84.5 48.5s-41.333 46.667 -54 77s-19 64.5 -19 102.5v487h-117v127h117v214l274 107v-321h265v-127z" />
    <glyph glyph-name="u" unicode="u" horiz-adv-x="1237" 
d="M166 324l-0.00195312 406.001h-129v48l338 66h65v-477c0 -48 3 -88 9 -120s15 -57.5 27 -76.5s26.833 -32.333 44.5 -40s37.834 -11.5 60.501 -11.5c32.667 0 66.667 9.33301 102 28s69 42 101 70v513h-129v49l338 65h65v-764l132 -32v-48h-406v123
c-40 -26.667 -76.5 -49.334 -109.5 -68.001s-64.167 -34 -93.5 -46s-58.166 -20.667 -86.499 -26s-58.5 -8 -90.5 -8c-44 0 -81.167 7.83301 -111.5 23.5s-54.833 38.5 -73.5 68.5s-32.167 66.667 -40.5 110s-12.5 92.333 -12.5 147z" />
    <glyph glyph-name="v" unicode="v" horiz-adv-x="1042" 
d="M449 -25l-354 755l-124 33v48h543v-49l-130 -32l224 -478l227 478l-152 32v49h392v-49l-132 -32l-349 -755h-145z" />
    <glyph glyph-name="w" unicode="w" horiz-adv-x="1572" 
d="M910 822l235 -570l196 478l-181 32v49h422v-49l-146 -32l-315 -755h-135l-203 494l-199 -494h-145l-307 755l-131 33v48h543v-49l-127 -32l185 -493l237 585h71z" />
    <glyph glyph-name="x" unicode="x" horiz-adv-x="1112" 
d="M-1 0v48l109 32l316 279l-322 371l-114 32v49h536v-49l-98 -32l179 -205l190 205l-130 32v49h402l-2 -49l-124 -32l-298 -247l349 -403l121 -32v-48h-571v48l117 32l-192 231l-202 -231l124 -32v-48h-390z" />
    <glyph glyph-name="y" unicode="y" horiz-adv-x="1016" 
d="M598 294l228.999 436l-176 32v49h424v-49l-141 -32l-480 -927c-14.667 -28 -33.667 -57.833 -57 -89.5s-49 -61.167 -77 -88.5s-57.5 -50.5 -88.5 -69.5s-61.5 -29.833 -91.5 -32.5l-111 180c12.667 -4 27.667 -6 45 -6c26 0 54.5 4.83301 85.5 14.5
s61.333 23.334 91 41.001s57.334 39.167 83.001 64.5s46.167 53.666 61.5 84.999l51 103l-363 725l-135 32v49h560v-49l-141 -32z" />
    <glyph glyph-name="z" unicode="z" horiz-adv-x="1001" 
d="M106 0v74l511 657h-359l-82 -192h-64l24 272h778v-63l-529 -650h359l121 184l63 -2l-58 -280h-764z" />
    <glyph glyph-name="braceleft" unicode="{" horiz-adv-x="1039" 
d="M902 -477c-89.333 2 -166.836 5.99902 -232.503 11.999s-120.167 20.5 -163.5 43.5s-75.666 57.333 -96.999 103s-32 108.5 -32 188.5v263c0 45.333 -1.33301 83.166 -4 113.499s-7.66699 55.333 -15 75s-17.333 35 -30 46s-29.5 19.833 -50.5 26.5
s-46.333 12.167 -76 16.5s-64.834 9.83301 -105.501 16.5v45c40.667 6.66699 76 12.167 106 16.5s55.333 9.66602 76 15.999s37.5 15 50.5 26s23 26.333 30 46s11.833 44.667 14.5 75s4 68.166 4 113.499v263c0 80 10.667 142.833 32 188.5s53.666 80 96.999 103
s97.833 37.5 163.5 43.5s143.167 10 232.5 12v-41c-58 -4 -103.5 -9.5 -136.5 -16.5s-57.667 -19.667 -74 -38s-26.333 -44.666 -30 -78.999s-5.5 -81.5 -5.5 -141.5v-193c0 -68 -5.66699 -125.667 -17 -173s-30.666 -87.166 -57.999 -119.499
s-63.666 -58.166 -108.999 -77.499s-101.666 -35 -168.999 -47c66.667 -12 122.5 -27.833 167.5 -47.5s81.333 -45.5 109 -77.5s47.334 -71.667 59.001 -119s17.5 -105 17.5 -173v-193c0 -60 1.83301 -107.167 5.5 -141.5s13.5 -60.666 29.5 -78.999s40.5 -31 73.5 -38
s78.833 -12.5 137.5 -16.5v-41z" />
    <glyph glyph-name="bar" unicode="|" horiz-adv-x="1030" 
d="M562 -476h-118v1791h118v-1791z" />
    <glyph glyph-name="braceright" unicode="}" horiz-adv-x="1039" 
d="M96.1104 -477c89.3223 2 166.815 5.99902 232.475 11.999c65.6582 6 120.151 20.5 163.479 43.5s75.6572 57.333 96.9883 103s31.9961 108.5 31.9961 188.5v263c0 45.333 1.33301 83.166 4 113.499c2.66602 30.333 7.66504 55.333 14.998 75
c7.33203 19.667 17.3311 35 29.9961 46s29.4961 19.833 50.4932 26.5s46.3271 12.167 75.9902 16.5s64.8252 9.83301 105.486 16.5v45c-40.6611 6.66699 -75.9902 12.167 -105.987 16.5c-29.9961 4.33301 -55.3262 9.66602 -75.9902 15.999s-37.4951 15 -50.4941 26
c-12.998 11 -22.9971 26.333 -29.9961 46s-11.832 44.667 -14.498 75c-2.66699 30.333 -4 68.166 -4 113.499v263c0 80 -10.665 142.833 -31.9961 188.5s-53.6602 80 -96.9883 103s-97.8213 37.5 -163.479 43.5c-65.6592 6 -143.149 10 -232.472 12v-41
c57.9932 -4 103.487 -9.5 136.483 -16.5s57.6592 -19.667 73.9902 -38s26.3301 -44.666 29.9971 -78.999c3.66602 -34.333 5.49902 -81.5 5.49902 -141.5v-193c0 -68 5.66602 -125.667 16.998 -173s30.6631 -87.166 57.9932 -119.499s63.6592 -58.166 108.986 -77.499
s101.653 -35 168.979 -47c-66.6592 -12 -122.485 -27.833 -167.479 -47.5c-44.9951 -19.667 -81.3242 -45.5 -108.987 -77.5s-47.3271 -71.667 -58.9922 -119s-17.498 -105 -17.498 -173v-193c0 -60 -1.83301 -107.167 -5.49902 -141.5
c-3.66699 -34.333 -13.499 -60.666 -29.4971 -78.999s-40.4951 -31 -73.4902 -38c-32.9961 -7 -78.8242 -12.5 -137.483 -16.5v-41z" />
    <glyph glyph-name="asciitilde" unicode="~" horiz-adv-x="1227" 
d="M64 330c4.66699 50 16.001 94.8311 34.001 134.498s41.167 73.334 69.5 101.001s61 48.834 98 63.501s77.167 22 120.5 22c86 0 174 -31 264 -93c42 -30 80.667 -51.833 116 -65.5s70.666 -20.5 105.999 -20.5c52 0 93.167 15.667 123.5 47s50.5 75.333 60.5 132h78
c-6 -52.667 -17.5 -99 -34.5 -139s-38 -73.5 -63 -100.5s-53.333 -47.333 -85 -61s-65.5 -20.5 -101.5 -20.5c-85.333 0 -175.333 30.667 -270 92c-46 29.333 -88.667 51.333 -128 66s-77 22 -113 22c-26 0 -50.333 -4.83301 -73 -14.5s-42.5 -22.667 -59.5 -39
s-31 -35.5 -42 -57.5s-17.833 -45 -20.5 -69h-80z" />
    <glyph glyph-name="nonbreakingspace" unicode="&#xa0;" horiz-adv-x="502" 
 />
    <glyph glyph-name="exclamdown" unicode="&#xa1;" horiz-adv-x="583" 
d="M266 434.046l-100.999 -878.893c-2 -16.665 -2 -31.8301 0 -45.4951s7.16699 -24.9971 15.5 -33.9961s20.166 -15.998 35.499 -20.9971s35 -7.49902 59 -7.49902h96c24.667 0 44.667 2.5 60 7.49902s27 11.998 35 20.9971s13 20.3311 15 33.9961s2 28.8301 0 45.4951
l-101 878.893h-114zM443.001 715.012c0 18.6641 -3.33301 35.8281 -10 51.4932s-15.834 29.3301 -27.501 40.9951s-25.334 20.6641 -41.001 26.9971s-32.834 9.49902 -51.501 9.49902s-35.834 -3.16602 -51.501 -9.49902s-29.334 -15.332 -41.001 -26.9971
s-20.667 -25.3301 -27 -40.9951s-9.5 -32.8291 -9.5 -51.4932c0 -18.665 3.16699 -35.8301 9.5 -51.4951s15.333 -29.3301 27 -40.9951s25.334 -20.8301 41.001 -27.4961s32.834 -9.99902 51.501 -9.99902s35.834 3.33301 51.501 9.99902s29.334 15.8311 41.001 27.4961
s20.834 25.3301 27.501 40.9951s10 32.8301 10 51.4951z" />
    <glyph glyph-name="cent" unicode="&#xa2;" horiz-adv-x="1057" 
d="M817 573c-11.333 7.33301 -22.668 17.999 -34.001 31.999c-13.333 16.667 -25.666 32.834 -36.999 48.501s-23.166 29.834 -35.499 42.501s-25.666 23.667 -39.999 33s-31.166 16.333 -50.499 21v-655c4 -0.666992 8 -1 12 -1h12c20.667 0 40.5 2.66699 59.5 8
s38 13.5 57 24.5s38.167 24.667 57.5 41s40 35.833 62 58.5l67 -38c-46.667 -60 -95.834 -107.167 -147.501 -141.5s-111.5 -56.166 -179.5 -65.499v-118h-40v114c-7.33301 -0.666992 -15 -1.16699 -23 -1.5s-16 -0.5 -24 -0.5c-66.667 0 -127.334 10.333 -182.001 31
s-101.5 49 -140.5 85s-69.167 78.5 -90.5 127.5s-32 102.167 -32 159.5c0 60.667 12 117.667 36 171s57.667 100.166 101 140.499s95.166 73.166 155.499 98.499s126.833 40 199.5 44v114h40v-112h1c54.667 0 104.5 -6.5 149.5 -19.5s82.5 -28.833 112.5 -47.5
c24 -14.667 42.333 -29.667 55 -45zM569.998 754.999c-32.667 0 -60.832 -7.83301 -84.499 -23.5s-43.334 -37.5 -59.001 -65.5s-27.167 -60.833 -34.5 -98.5s-11 -78.5 -11 -122.5s4.5 -85 13.5 -123s22 -72 39 -102s37.833 -55.167 62.5 -75.5s52.667 -34.5 84 -42.5v653
h-10z" />
    <glyph glyph-name="sterling" unicode="&#xa3;" horiz-adv-x="1024" 
d="M700 670l0.00585938 -72.001h-233c-6 -74 -13 -135.167 -21 -183.5s-19.333 -86.5 -34 -114.5c7.33301 2.66699 14.666 4.16699 21.999 4.5s14.666 0.5 21.999 0.5c20 0 39.667 -5 59 -15s38.333 -22.667 57 -38s37 -31.833 55 -49.5s35.667 -34.167 53 -49.5
s34.166 -28 50.499 -38s32.166 -15 47.499 -15s27.333 5.5 36 16.5s13 26.167 13 45.5c0 20 -4.16699 39 -12.5 57s-18 34.833 -29 50.5s-22 29.834 -33 42.501s-18.833 24 -23.5 34l196 64c26 -15.333 39 -46.333 39 -93c0 -18.667 -3.5 -40.167 -10.5 -64.5
s-16.667 -49.166 -29 -74.499s-27 -50.166 -44 -74.499s-35.333 -46 -55 -65s-40.334 -34.333 -62.001 -46s-43.5 -17.5 -65.5 -17.5c-39.333 0 -73.166 9.5 -101.499 28.5s-54.333 42 -78 69s-46.167 55.167 -67.5 84.5s-44.333 54.666 -69 75.999
c-7.33301 -23.333 -17 -49.833 -29 -79.5s-25.833 -57.834 -41.5 -84.501s-32.834 -49 -51.501 -67s-38 -27 -58 -27c-42 0 -75 10.167 -99 30.5s-36 45.833 -36 76.5c0 25.333 8.66699 48.5 26 69.5s38.833 40 64.5 57s53.5 32 83.5 45s57.667 24.167 83 33.5
c-9.33301 24 -17.833 48 -25.5 72s-14.334 48.833 -20.001 74.5s-10.5 52 -14.5 79s-7 55.5 -9 85.5h-198v72h197c0.666992 46.667 3.5 95 8.5 145s13.333 98.833 25 146.5s26.834 91.834 45.501 132.501s41.5 76 68.5 106s58.333 53.333 94 70s76.5 25 122.5 25
c23.333 0 48.5 -2.5 75.5 -7.5s54 -12.167 81 -21.5s53.167 -21.333 78.5 -36s48 -31.334 68 -50.001l-169 -156c-6 22 -13.833 46.167 -23.5 72.5s-21.334 50.833 -35.001 73.5s-29.167 41.667 -46.5 57s-36.666 23 -57.999 23c-13.333 0 -24.833 -8.16699 -34.5 -24.5
s-18.334 -38.833 -26.001 -67.5s-14.334 -62.167 -20.001 -100.5s-10.667 -79.833 -15 -124.5s-8.16602 -89.5 -11.499 -134.5s-6.33301 -87.833 -9 -128.5h227z" />
    <glyph glyph-name="currency" unicode="&#xa4;" horiz-adv-x="1338" 
d="M1095 596c0 -54 -8.33301 -103.834 -25 -149.501s-41 -88.5 -73 -128.5l62.5 -40l59.5 -39l-109 -109l-79 122c-80 -66 -172.667 -99 -278 -99s-198 33 -278 99l-22 -34l-24 -36.5l-23.5 -36l-20.5 -30.5l-96 125l119 78c-64.667 78.667 -97 171.334 -97 278.001
c0 52 8.16699 101.333 24.5 148s40.5 90 72.5 130l-62 40l-59 38l110 110l78 -122c40 32 82.833 56.333 128.5 73s95.5 25 149.5 25c106.667 0 199 -32 277 -96l40.5 60.5l38.5 57.5l125 -97l-137 -90c32 -40 56.333 -83 73 -129s25 -95.333 25 -148zM940 595.999
c0 42.667 -6.83398 81.665 -20.501 116.998s-33 65.5 -58 90.5s-55.167 44.333 -90.5 58s-74.666 20.5 -117.999 20.5s-82.5 -6.66699 -117.5 -20s-65 -32.5 -90 -57.5s-44.333 -55.167 -58 -90.5s-20.5 -74.666 -20.5 -117.999s6.83301 -82.666 20.5 -117.999
s33 -65.5 58 -90.5s55 -44.333 90 -58s74.167 -20.5 117.5 -20.5c44 0 83.667 6.83301 119 20.5s65.5 33.167 90.5 58.5s44.167 55.5 57.5 90.5s20 74.167 20 117.5z" />
    <glyph glyph-name="yen" unicode="&#xa5;" horiz-adv-x="1024" 
d="M968 423l-369 -0.000976562v-208c0 -76.667 12 -123.667 36 -141s80 -26 168 -26v-48h-578v48c88 0 144 8.66699 168 26s36 64.333 36 141v208h-365v49h365v129l-17 30h-348v50h321l-218 402c-28 54 -53.167 91.333 -75.5 112s-57.833 31 -106.5 31v48h452v-48
c-44 0 -76 -2.66699 -96 -8s-30 -16.333 -30 -33c0 -17.333 9.66699 -42.666 29 -75.999l221 -406l196 387c23.333 44 35 75.333 35 94c0 17.333 -9.33301 28.666 -28 33.999s-50 8 -94 8v48h346v-48c-54.667 0 -92.5 -13.167 -113.5 -39.5s-42.833 -63.166 -65.5 -110.499
l-204 -395h335v-50h-361l-8 -16v-143h369v-49z" />
    <glyph glyph-name="brokenbar" unicode="&#xa6;" horiz-adv-x="949" 
d="M535 -455h-122v803h122v-803zM535 534h-122v802h122v-802z" />
    <glyph glyph-name="section" unicode="&#xa7;" horiz-adv-x="1195" 
d="M970 61c0 -54 -10.3359 -100.333 -31.0029 -139s-48.167 -70.167 -82.5 -94.5s-73.833 -42.166 -118.5 -53.499s-90.667 -17 -138 -17c-41.333 0 -82.333 3.83301 -123 11.5s-79 18.667 -115 33s-68.667 31.666 -98 51.999s-53 43.166 -71 68.499l203 109
c4 -28 14.333 -55 31 -81s37 -49 61 -69s50.667 -36.167 80 -48.5s59 -18.5 89 -18.5c22.667 0 44.834 3.5 66.501 10.5s40.667 17.833 57 32.5s29.5 33.167 39.5 55.5s15 48.833 15 79.5c0 35.333 -10 66 -30 92s-46.5 49.167 -79.5 69.5s-70.333 39.333 -112 57l-128.5 54
c-44 18.333 -86.833 38.166 -128.5 59.499s-79 46.5 -112 75.5s-59.5 62.667 -79.5 101s-30 83.5 -30 135.5c0 32.667 4.66699 62.167 14 88.5s22.666 50 39.999 71s38.166 39.833 62.499 56.5s51.5 31.667 81.5 45c-32.667 28 -58.834 60.667 -78.501 98
s-29.5 83 -29.5 137s10.333 100.333 31 139s48.167 70.167 82.5 94.5s73.833 42.166 118.5 53.499s90.667 17 138 17c40.667 0 81.5 -3.83301 122.5 -11.5s79.5 -18.667 115.5 -33s68.667 -31.666 98 -51.999s53 -43.166 71 -68.499l-222 -111c-4 28 -12.167 55 -24.5 81
s-28.666 49.333 -48.999 70s-44.666 37.167 -72.999 49.5s-60.166 18.5 -95.499 18.5c-23.333 0 -45.666 -3.5 -66.999 -10.5s-40.166 -17.833 -56.499 -32.5s-29.5 -33.167 -39.5 -55.5s-15 -48.833 -15 -79.5c0 -35.333 10 -66 30 -92s46.5 -49.167 79.5 -69.5
s70.333 -39.333 112 -57l128.5 -54c44 -18.333 86.833 -38.166 128.5 -59.499s79 -46.5 112 -75.5s59.5 -62.667 79.5 -101s30 -83.5 30 -135.5c0 -32.667 -4.66699 -62.167 -14 -88.5s-22.833 -50.166 -40.5 -71.499s-38.667 -40.333 -63 -57s-51.5 -31.334 -81.5 -44.001
c32.667 -28 59 -60.667 79 -98s30 -83 30 -137zM268.997 718c0 -38.667 8.5 -72 25.5 -100s39.667 -52.667 68 -74s61 -40.333 98 -57s75.333 -32.667 115 -48l119.5 -47.5c40 -16.333 77.333 -35.166 112 -56.499c34 15.333 62.333 35.333 85 60s34 51.334 34 80.001
c0 38.667 -8.5 72 -25.5 100s-39.667 52.5 -68 73.5s-61 39.667 -98 56s-75.333 32.166 -115 47.499l-119.5 48c-40 16.667 -77.333 36 -112 58c-34.667 -15.333 -63.167 -35.333 -85.5 -60s-33.5 -51.334 -33.5 -80.001z" />
    <glyph glyph-name="dieresis" unicode="&#xa8;" horiz-adv-x="928" 
d="M96 1129c0 20.667 3.83301 40.165 11.5 58.498s18.334 34.166 32.001 47.499s29.5 23.833 47.5 31.5s37.333 11.5 58 11.5c21.333 0 41.166 -4 59.499 -12s34.333 -18.667 48 -32s24.5 -29.166 32.5 -47.499s12 -37.5 12 -57.5c0 -20.667 -4 -40.167 -12 -58.5
s-18.833 -34.5 -32.5 -48.5s-29.667 -25 -48 -33s-38.166 -12 -59.499 -12c-20.667 0 -40 3.83301 -58 11.5s-33.833 18.334 -47.5 32.001s-24.334 29.834 -32.001 48.501s-11.5 38.667 -11.5 60zM531 1129c0 20.667 3.83301 40.165 11.5 58.498
s18.334 34.166 32.001 47.499s29.5 23.833 47.5 31.5s37.333 11.5 58 11.5c21.333 0 41.166 -4 59.499 -12s34.333 -18.667 48 -32s24.5 -29.166 32.5 -47.499s12 -37.5 12 -57.5c0 -20.667 -4 -40.167 -12 -58.5s-18.833 -34.5 -32.5 -48.5s-29.667 -25 -48 -33
s-38.166 -12 -59.499 -12c-20.667 0 -40 3.83301 -58 11.5s-33.833 18.334 -47.5 32.001s-24.334 29.834 -32.001 48.501s-11.5 38.667 -11.5 60z" />
    <glyph glyph-name="copyright" unicode="&#xa9;" horiz-adv-x="1556" 
d="M1179 371c-26 -38.667 -53.9971 -70.3359 -83.9971 -95.0029s-61.5 -44.167 -94.5 -58.5s-67.167 -24.333 -102.5 -30s-71.333 -8.5 -108 -8.5c-66 0 -129.667 9.33301 -191 28s-115.5 46.334 -162.5 83.001s-84.5 81.667 -112.5 135s-42 114.666 -42 183.999
c0 68.667 15 131 45 187s69.833 103.833 119.5 143.5s106.667 70.334 171 92.001s130.833 32.5 199.5 32.5c26.667 0 51 -0.833008 73 -2.5s43 -4 63 -7s39.333 -6.33301 58 -10l57 -11.5c5.33301 -1.33301 11.666 -2.33301 18.999 -3s13.333 -1.66699 18 -3l34 -213l-67 4
c-14.667 34.667 -29.667 62.5 -45 83.5s-32.5 36.833 -51.5 47.5s-40.833 17.667 -65.5 21s-53.667 5 -87 5c-44.667 0 -85.667 -8.16699 -123 -24.5s-69.333 -39.666 -96 -69.999s-47.5 -67.5 -62.5 -111.5s-22.5 -93.333 -22.5 -148s9.16699 -103.667 27.5 -147
s42.833 -80.166 73.5 -110.499s65.667 -53.666 105 -69.999s79.666 -24.5 120.999 -24.5c20.667 0 43.167 3.66699 67.5 11s48.333 17.666 72 30.999s46.167 29 67.5 47s39.666 37.667 54.999 59zM66.0029 621.998c0 64.667 8.33105 126.831 24.998 186.498
s40.334 115.5 71.001 167.5s67.334 99.333 110.001 142s90 79.167 142 109.5s107.833 53.833 167.5 70.5s121.834 25 186.501 25s126.834 -8.33301 186.501 -25s115.5 -40.167 167.5 -70.5s99.5 -66.833 142.5 -109.5s79.833 -90 110.5 -142s54.334 -107.833 71.001 -167.5
s25 -121.834 25 -186.501c0 -96.667 -18.5 -187.5 -55.5 -272.5s-87.333 -159.167 -151 -222.5s-138.167 -113.333 -223.5 -150s-176.333 -55 -273 -55c-64.667 0 -126.834 8.33301 -186.501 25s-115.5 40.167 -167.5 70.5s-99.333 66.833 -142 109.5
s-79.334 89.834 -110.001 141.501s-54.334 107.334 -71.001 167.001s-25 121.834 -25 186.501zM164.001 621.995c0 -83.333 15.668 -161.501 47.001 -234.501s74.333 -136.833 129 -191.5s118.5 -97.667 191.5 -129s151.167 -47 234.5 -47s161.666 15.667 234.999 47
s137.166 74.333 191.499 129s97.333 118.5 129 191.5s47.5 151.167 47.5 234.5c0 55.333 -7.16699 108.666 -21.5 159.999s-34.666 99.333 -60.999 144s-57.833 85.334 -94.5 122.001s-77.334 68.167 -122.001 94.5s-92.667 46.666 -144 60.999s-104.666 21.5 -159.999 21.5
c-83.333 0 -161.5 -15.833 -234.5 -47.5s-136.833 -74.667 -191.5 -129s-97.667 -118.166 -129 -191.499s-47 -151.666 -47 -234.999z" />
    <glyph glyph-name="ordfeminine" unicode="&#xaa;" horiz-adv-x="820" 
d="M142 714h525v-72h-525v72zM174 1159l0.000976562 100c12.667 14.667 27.5 27.5 44.5 38.5s35.333 20 55 27s39.667 12.167 60 15.5s40.166 5 59.499 5c29.333 0 57.333 -2.33301 84 -7s50.167 -13 70.5 -25s36.5 -28.333 48.5 -49s18 -46.667 18 -78v-293l64 -19v-29
h-177c-17.333 0 -30.166 4.5 -38.499 13.5s-12.833 18.833 -13.5 29.5c-22.667 -22 -46.667 -37.167 -72 -45.5s-53 -12.5 -83 -12.5c-48 0 -85.5 11.667 -112.5 35s-40.5 56 -40.5 98c0 24 5 44.5 15 61.5s23.167 31.333 39.5 43s35.333 21.334 57 29.001s44 14.5 67 20.5
s45.833 11.5 68.5 16.5s43.334 10.833 62.001 17.5v47c0 18.667 -2.66699 34.667 -8 48s-12.166 24.166 -20.499 32.499s-17 14.5 -26 18.5s-17.5 6 -25.5 6c-18.667 0 -34.834 -3.83301 -48.501 -11.5s-25.334 -18 -35.001 -31s-17.334 -28.167 -23.001 -45.5
s-10.167 -36 -13.5 -56h-76zM450.001 1102c-27.333 -3.33301 -51.167 -9.49805 -71.5 -18.498s-37 -19.5 -50 -31.5s-22.833 -24.833 -29.5 -38.5s-10 -27.167 -10 -40.5c0 -9.33301 1.83301 -18.333 5.5 -27s9 -16.334 16 -23.001s15.5 -11.834 25.5 -15.501
s21.333 -5.5 34 -5.5c14 0 27.5 4.83301 40.5 14.5s26.167 22.167 39.5 37.5v148z" />
    <glyph glyph-name="guillemotleft" unicode="&#xab;" horiz-adv-x="851" 
d="M774 70h-36l-333 345l333 344h36l-155 -344zM507 36h-36l-394 379l394 378h36l-216 -378z" />
    <glyph glyph-name="logicalnot" unicode="&#xac;" horiz-adv-x="1366" 
d="M1199 356h-127v331h-937v124h1064v-455z" />
    <glyph glyph-name="softhyphen" unicode="&#xad;" horiz-adv-x="808" 
d="M728 407h-648v106h648v-106z" />
    <glyph glyph-name="registered" unicode="&#xae;" horiz-adv-x="1556" 
d="M1205 591l-236 0.00195312c-12.667 23.333 -25.167 48.666 -37.5 75.999l-38.5 83.5c-13.333 28.333 -27.5 56 -42.5 83s-31.833 50.833 -50.5 71.5s-39.334 37.167 -62.001 49.5s-48 18.5 -76 18.5h-10v-335l116 -18v-30h-405v33l101 17v675l-101 17v32
c93.333 5.33301 173.5 9 240.5 11s115.833 3 146.5 3c96.667 0 170.834 -16 222.501 -48s77.5 -82 77.5 -150c0 -23.333 -4.16699 -44.5 -12.5 -63.5s-19.666 -36.667 -33.999 -53s-31.833 -31 -52.5 -44s-44 -25.167 -70 -36.5c20.667 -2 38.667 -8.66699 54 -20
s29.166 -25.333 41.499 -42s23.5 -35.334 33.5 -56.001l31 -63.5l32.5 -63c11 -20.333 24 -39.5 39 -57.5s30.5 -31.833 46.5 -41.5s31.333 -16.167 46 -19.5v-29zM652 1327v-310.999l25 -2c8.66699 -0.666992 16.667 -1 24 -1c26 0 49.167 3.16699 69.5 9.5
s37.833 16 52.5 29s26 29.667 34 50s12 44.5 12 72.5c0 26.667 -3.66699 50.167 -11 70.5s-17.5 37.166 -30.5 50.499s-28.667 23.5 -47 30.5s-38.5 10.5 -60.5 10.5c-21.333 0 -44 -3 -68 -9zM66 953.003c0 64.667 8.33105 126.831 24.998 186.498
s40.334 115.5 71.001 167.5s67.334 99.333 110.001 142s90 79.167 142 109.5s107.833 53.833 167.5 70.5s121.834 25 186.501 25s126.834 -8.33301 186.501 -25s115.5 -40.167 167.5 -70.5s99.5 -66.833 142.5 -109.5s79.833 -90 110.5 -142s54.334 -107.833 71.001 -167.5
s25 -121.834 25 -186.501c0 -96.667 -18.5 -187.5 -55.5 -272.5s-87.333 -159.167 -151 -222.5s-138.167 -113.333 -223.5 -150s-176.333 -55 -273 -55c-64.667 0 -126.834 8.33301 -186.501 25s-115.5 40.167 -167.5 70.5s-99.333 66.833 -142 109.5
s-79.334 89.834 -110.001 141.501s-54.334 107.334 -71.001 167.001s-25 121.834 -25 186.501zM163.998 953c0 -83.333 15.668 -161.501 47.001 -234.501s74.333 -136.833 129 -191.5s118.5 -97.667 191.5 -129s151.167 -47 234.5 -47s161.666 15.667 234.999 47
s137.166 74.333 191.499 129s97.333 118.5 129 191.5s47.5 151.167 47.5 234.5c0 55.333 -7.16699 108.666 -21.5 159.999s-34.666 99.333 -60.999 144s-57.833 85.334 -94.5 122.001s-77.334 68.167 -122.001 94.5s-92.667 46.666 -144 60.999s-104.666 21.5 -159.999 21.5
c-83.333 0 -161.5 -15.833 -234.5 -47.5s-136.833 -74.667 -191.5 -129s-97.667 -118.166 -129 -191.499s-47 -151.666 -47 -234.999z" />
    <glyph glyph-name="macron" unicode="&#xaf;" horiz-adv-x="1086" 
d="M246 1159h594v-112h-594v112z" />
    <glyph glyph-name="degree" unicode="&#xb0;" horiz-adv-x="811" 
d="M396 1286c44 0 85.001 -8.33301 123.001 -25s71 -39.5 99 -68.5s50 -62.667 66 -101s24 -79.5 24 -123.5c0 -42 -8.33301 -81.5 -25 -118.5s-39.334 -69.5 -68.001 -97.5s-61.834 -50.167 -99.501 -66.5s-77.5 -24.5 -119.5 -24.5c-44 0 -85 8.33301 -123 25
s-71 39.5 -99 68.5s-50 62.833 -66 101.5s-24 79.667 -24 123c0 42 8.5 81.667 25.5 119s39.833 69.833 68.5 97.5s61.834 49.667 99.501 66s77.167 24.5 118.5 24.5zM395.001 1157c-28 0 -53.165 -4.83398 -75.498 -14.501s-41.333 -23 -57 -40
s-27.834 -37.167 -36.501 -60.5s-13 -49 -13 -77c0 -24 4.5 -46.667 13.5 -68s21.333 -40 37 -56s34.167 -28.5 55.5 -37.5s44.333 -13.5 69 -13.5c28 0 53.667 4.33301 77 13s43.5 20.834 60.5 36.501s30.167 34.667 39.5 57s14 47.5 14 75.5
c0 27.333 -4.5 52.333 -13.5 75s-21.667 42.167 -38 58.5s-35.833 29 -58.5 38s-47.334 13.5 -74.001 13.5z" />
    <glyph glyph-name="plusminus" unicode="&#xb1;" horiz-adv-x="1140" 
d="M1043 664h-425v-370h-124v370h-423v115h423v370h124v-370h425v-115zM1043 88h-972v112h972v-112z" />
    <glyph glyph-name="twosuperior" unicode="&#xb2;" horiz-adv-x="820" 
d="M661 786l-29 -240h-477l1 44c36 44.667 72.833 86.167 110.5 124.5s71.834 77.166 102.501 116.499s55.667 80.833 75 124.5s29 92.5 29 146.5c0 44.667 -9.5 77.167 -28.5 97.5s-42.167 30.5 -69.5 30.5c-28 0 -57.667 -10.667 -89 -32s-60.666 -56 -87.999 -104l-51 29
c14 36.667 30.833 67.834 50.5 93.501s41.334 46.5 65.001 62.5s49.167 27.667 76.5 35s55.666 11 84.999 11c28 0 55.667 -3.66699 83 -11s51.666 -19.333 72.999 -36s38.5 -38.5 51.5 -65.5s19.5 -59.833 19.5 -98.5c0 -36.667 -10.667 -73.167 -32 -109.5
s-48 -72 -80 -107s-66.333 -69.667 -103 -104s-70.334 -67.833 -101.001 -100.5h239l41 93h46z" />
    <glyph glyph-name="threesuperior" unicode="&#xb3;" horiz-adv-x="820" 
d="M257 990c32.667 6.66699 60.6699 16.6641 84.0029 29.9971s42.5 28.333 57.5 45s25.833 34.667 32.5 54s10 38.666 10 57.999c0 24 -5.5 41.167 -16.5 51.5s-24.167 15.5 -39.5 15.5c-12 0 -25 -2.66699 -39 -8s-28 -12.666 -42 -21.999s-27.333 -20.666 -40 -33.999
s-24 -28 -34 -44l-49 46c17.333 29.333 36 54 56 74s40.833 36.333 62.5 49s43.5 21.667 65.5 27s43.667 8 65 8c24.667 0 48 -3.16699 70 -9.5s41.167 -15.5 57.5 -27.5s29.333 -26.5 39 -43.5s14.5 -36.167 14.5 -57.5c0 -33.333 -10.833 -65.5 -32.5 -96.5
s-57.5 -63.167 -107.5 -96.5c33.333 -3.33301 62.166 -10 86.499 -20s44.333 -22.5 60 -37.5s27.334 -31.833 35.001 -50.5s11.5 -38.334 11.5 -59.001c0 -33.333 -8.5 -67.666 -25.5 -102.999s-40.167 -67.666 -69.5 -96.999s-63.333 -53.5 -102 -72.5
s-79.667 -28.5 -123 -28.5c-34 0 -68.167 7.16699 -102.5 21.5s-67.166 37.5 -98.499 69.5l103 132c14 -27.333 27.5 -50 40.5 -68s25.667 -32.333 38 -43s24.166 -18 35.499 -22s22.333 -6 33 -6c16 0 30.667 4.5 44 13.5s24.666 21.167 33.999 36.5s16.666 33 21.999 53
s8 41 8 63c0 20 -2.33301 39.333 -7 58s-12.334 35.334 -23.001 50.001s-24.5 26.334 -41.5 35.001s-37.833 13 -62.5 13c-12 0 -26 -1.83301 -42 -5.5s-33.667 -9.83398 -53 -18.501z" />
    <glyph glyph-name="acute" unicode="&#xb4;" horiz-adv-x="641" 
d="M571 1304c0 -3.33301 -1.66895 -7.83398 -5.00195 -13.501s-9.66602 -11.167 -18.999 -16.5l-412 -261c-13.333 -8 -25.666 -12 -36.999 -12c-16 0 -25 3.66699 -27 11s-0.333008 14.333 5 21l200 272c8 10.667 16.5 17.334 25.5 20.001s22.167 4 39.5 4h184
c16 0 27.667 -2.5 35 -7.5s11 -10.833 11 -17.5z" />
    <glyph glyph-name="mu" unicode="&#xb5;" horiz-adv-x="1245" 
d="M1058 80l132.001 -31.999v-48h-406v123c-40 -26.667 -75.333 -49.334 -106 -68.001s-59.5 -34 -86.5 -46s-53.667 -20.667 -80 -26s-55.5 -8 -87.5 -8c-16 0 -31.333 2 -46 6s-28.167 9.16699 -40.5 15.5s-23.333 13.166 -33 20.499s-17.5 14.333 -23.5 21v-93
c0 -34.667 5.83301 -67.5 17.5 -98.5s26 -59.667 43 -86s34.833 -49.833 53.5 -70.5s34.667 -37.667 48 -51l-220 -116c-16.667 28 -30.334 66.333 -41.001 115s-16 106.334 -16 173.001v920h-129v47l338 66h65v-477c0 -46 3.66699 -84.833 11 -116.5
s17.333 -57.167 30 -76.5s27.5 -33.333 44.5 -42s35.5 -13 55.5 -13c32.667 0 66.667 9.33301 102 28s69 42 101 70v514h-129v47l338 66h65v-764z" />
    <glyph glyph-name="paragraph" unicode="&#xb6;" horiz-adv-x="1079" 
d="M1011 1274v-55h-131v-1696h-74v1696h-186v-1696h-74v995c-159.333 0 -279 32.833 -359 98.5s-120 159.167 -120 280.5s40 214.5 120 279.5s190 97.5 330 97.5h494z" />
    <glyph glyph-name="middledot" unicode="&#xb7;" horiz-adv-x="240" 
d="M225 739c0 -30 -10 -55 -30 -75s-45 -30 -75 -30s-55 10 -75 30s-30 45 -30 75s10 55 30 75s45 30 75 30s55 -10 75 -30s30 -45 30 -75z" />
    <glyph glyph-name="cedilla" unicode="&#xb8;" horiz-adv-x="739" 
d="M467 17l-62.002 -104.002c29.333 -6 55.666 -13.333 78.999 -22s43.333 -20.667 60 -36s29.334 -34.666 38.001 -57.999s13 -52.333 13 -87c0 -25.333 -5.16699 -49.333 -15.5 -72s-26.666 -42.5 -48.999 -59.5s-51 -30.5 -86 -40.5s-76.833 -15 -125.5 -15
c-24.667 0 -47.667 1.66699 -69 5s-40 8.16602 -56 14.499s-28.5 14.5 -37.5 24.5s-13.5 22 -13.5 36c0 15.333 5 28.833 15 40.5s23 17.5 39 17.5c24.667 0 45.167 -3.83301 61.5 -11.5s31.333 -16.167 45 -25.5s26.834 -17.833 39.501 -25.5s27.334 -11.5 44.001 -11.5
c14.667 0 28.167 2.5 40.5 7.5s23 11.667 32 20s16 17.833 21 28.5s7.5 21.667 7.5 33c0 28.667 -19.833 52.834 -59.5 72.501s-93.834 33.834 -162.501 42.501l138 226h63z" />
    <glyph glyph-name="onesuperior" unicode="&#xb9;" horiz-adv-x="820" 
d="M615 559h-409v49l131 30v575h-132v48l176 62h103v-685l131 -30v-49z" />
    <glyph glyph-name="ordmasculine" unicode="&#xba;" horiz-adv-x="820" 
d="M137 714h539v-72h-539v72zM115 1084c0 40 7.66797 76.1689 23.001 108.502s36.5 59.666 63.5 81.999s58.833 39.666 95.5 51.999s76.667 18.5 120 18.5c42.667 0 81.667 -5.83301 117 -17.5s65.666 -28.5 90.999 -50.5s44.833 -48.333 58.5 -79s20.5 -65.667 20.5 -105
s-7.33301 -75.166 -22 -107.499s-35.334 -60 -62.001 -83s-58.5 -40.833 -95.5 -53.5s-77.5 -19 -121.5 -19c-42.667 0 -81.667 5.83301 -117 17.5s-65.666 28.667 -90.999 51s-45 49.166 -59 80.499s-21 66.333 -21 105zM431.001 872.002
c37.333 0 64.999 12.6709 82.999 38.0039s27 62.333 27 111c0 43.333 -3.83301 82.666 -11.5 117.999s-18.167 65.166 -31.5 89.499s-29.666 43.166 -48.999 56.499s-40.333 20 -63 20c-35.333 0 -62.5 -12.167 -81.5 -36.5s-28.5 -56.833 -28.5 -97.5
c0 -46.667 3.5 -88.5 10.5 -125.5s17.333 -68.333 31 -94s30 -45.334 49 -59.001s40.5 -20.5 64.5 -20.5z" />
    <glyph glyph-name="guillemotright" unicode="&#xbb;" horiz-adv-x="671" 
d="M-113.905 70h35.9951l332.96 345l-332.96 344h-35.9951l154.98 -344zM153.062 36h35.9961l393.952 379l-393.952 378h-35.9961l215.974 -378z" />
    <glyph glyph-name="onequarter" unicode="&#xbc;" horiz-adv-x="1616" 
d="M1191 274v291l-171 -291h171zM1191 -11v206h-280v31l329 557h115v-509h106v-79h-106v-206h-164zM1266 1362h102l-932 -1421h-102zM584 559h-409v49l131 30v575h-132v48l176 62h103v-685l131 -30v-49z" />
    <glyph glyph-name="onehalf" unicode="&#xbd;" horiz-adv-x="1616" 
d="M1197 1362h102l-932 -1421h-102zM545 559h-409v49l131 30v575h-132v48l176 62h103v-685l131 -30v-49zM1483 229l-29 -240h-477l1 44c36 44.667 72.833 86.167 110.5 124.5s71.834 77.166 102.501 116.499s55.667 80.833 75 124.5s29 92.5 29 146.5
c0 44.667 -9.5 77.167 -28.5 97.5s-42.167 30.5 -69.5 30.5c-28 0 -57.667 -10.667 -89 -32s-60.666 -56 -87.999 -104l-51 29c14 36.667 30.833 67.834 50.5 93.501s41.334 46.5 65.001 62.5s49.167 27.667 76.5 35s55.666 11 84.999 11c28 0 55.667 -3.66699 83 -11
s51.666 -19.333 72.999 -36s38.5 -38.5 51.5 -65.5s19.5 -59.833 19.5 -98.5c0 -36.667 -10.667 -73.167 -32 -109.5s-48 -72 -80 -107s-66.333 -69.667 -103 -104s-70.334 -67.833 -101.001 -100.5h239l41 93h46z" />
    <glyph glyph-name="threequarters" unicode="&#xbe;" horiz-adv-x="1616" 
d="M1294 1362h102l-932 -1421h-102zM1217 274v291l-171 -291h171zM1217 -11v206h-280v31l329 557h115v-509h106v-79h-106v-206h-164zM251 990c32.667 6.66699 60.6699 16.6641 84.0029 29.9971s42.5 28.333 57.5 45s25.833 34.667 32.5 54s10 38.666 10 57.999
c0 24 -5.5 41.167 -16.5 51.5s-24.167 15.5 -39.5 15.5c-12 0 -25 -2.66699 -39 -8s-28 -12.666 -42 -21.999s-27.333 -20.666 -40 -33.999s-24 -28 -34 -44l-49 46c17.333 29.333 36 54 56 74s40.833 36.333 62.5 49s43.5 21.667 65.5 27s43.667 8 65 8
c24.667 0 48 -3.16699 70 -9.5s41.167 -15.5 57.5 -27.5s29.333 -26.5 39 -43.5s14.5 -36.167 14.5 -57.5c0 -33.333 -10.833 -65.5 -32.5 -96.5s-57.5 -63.167 -107.5 -96.5c33.333 -3.33301 62.166 -10 86.499 -20s44.333 -22.5 60 -37.5s27.334 -31.833 35.001 -50.5
s11.5 -38.334 11.5 -59.001c0 -33.333 -8.5 -67.666 -25.5 -102.999s-40.167 -67.666 -69.5 -96.999s-63.333 -53.5 -102 -72.5s-79.667 -28.5 -123 -28.5c-34 0 -68.167 7.16699 -102.5 21.5s-67.166 37.5 -98.499 69.5l103 132c14 -27.333 27.5 -50 40.5 -68
s25.667 -32.333 38 -43s24.166 -18 35.499 -22s22.333 -6 33 -6c16 0 30.667 4.5 44 13.5s24.666 21.167 33.999 36.5s16.666 33 21.999 53s8 41 8 63c0 20 -2.33301 39.333 -7 58s-12.334 35.334 -23.001 50.001s-24.5 26.334 -41.5 35.001s-37.833 13 -62.5 13
c-12 0 -26 -1.83301 -42 -5.5s-33.667 -9.83398 -53 -18.501z" />
    <glyph glyph-name="questiondown" unicode="&#xbf;" horiz-adv-x="970" 
d="M578.023 440.021c24.665 -31.998 42.333 -62.1621 52.999 -90.4932c10.666 -28.332 15.999 -55.4971 15.999 -81.4951c0 -35.3311 -8.33301 -68.6621 -24.999 -99.9932c-16.665 -31.3311 -37.4971 -61.4961 -62.4961 -90.4941
c-24.998 -28.999 -51.9961 -57.3311 -80.9951 -84.9961c-28.998 -27.665 -55.9961 -55.9971 -80.9951 -84.9961c-24.998 -28.998 -45.8301 -58.8291 -62.4961 -89.4941c-16.665 -30.665 -24.998 -63.3301 -24.998 -97.9951c0 -62.6631 13.166 -108.827 39.4971 -138.492
c26.332 -29.665 64.8301 -44.4971 115.493 -44.4971c53.3301 0 95.6611 18.665 126.992 55.9961s46.9971 95.6611 46.9971 174.99l257.984 -56.9971c-13.333 -41.3311 -31.332 -77.1621 -53.9971 -107.493s-50.9971 -55.3291 -84.9951 -74.9941
s-74.1621 -34.1641 -120.493 -43.4971c-46.3301 -9.33301 -99.4932 -13.999 -159.49 -13.999c-53.3301 0 -105.16 4.33301 -155.49 12.999s-95.1611 23.832 -134.492 45.4971s-70.9961 51.3301 -94.9951 88.9941c-23.998 37.665 -35.9971 85.4951 -35.9971 143.491
c0 39.998 6.83301 74.6631 20.498 103.994c13.666 29.3311 31.498 54.9961 53.4971 76.9951s47.1641 41.3311 75.4951 57.9961c28.332 16.666 57.3301 32.665 86.9951 47.9971l86.9941 45.998c28.332 15.332 53.4971 32.4971 75.4961 51.4961
s39.8311 41.1641 53.4961 66.4951c13.666 25.332 20.499 55.3301 20.499 89.9951c0 24.665 -5 47.4971 -14.999 68.4961s-19.665 43.8311 -28.998 68.4961h91.9941zM406.036 682.007c0 18.665 3.33301 35.8311 9.99902 51.4971
c6.66699 15.665 15.833 29.3311 27.498 40.9971c11.666 11.666 25.332 20.665 40.998 26.998c15.665 6.33301 32.8311 9.5 51.4971 9.5c18.665 0 35.8311 -3.16699 51.4971 -9.5c15.665 -6.33301 29.3311 -15.332 40.9971 -26.998s20.665 -25.332 26.998 -40.9971
c6.33301 -15.666 9.5 -32.832 9.5 -51.4971s-3.16699 -35.8311 -9.5 -51.4971c-6.33301 -15.665 -15.332 -29.3311 -26.998 -40.9971s-25.332 -20.832 -40.9971 -27.499c-15.666 -6.66602 -32.832 -9.99902 -51.4971 -9.99902c-18.666 0 -35.832 3.33301 -51.4971 9.99902
c-15.666 6.66699 -29.332 15.833 -40.998 27.499c-11.665 11.666 -20.8311 25.332 -27.498 40.9971c-6.66602 15.666 -9.99902 32.832 -9.99902 51.4971z" />
    <glyph glyph-name="Acircumflex" unicode="&#xc2;" horiz-adv-x="1487" 
d="M-56 0v48l195 32l540 1194h192l500 -1194l141 -32v-48h-650v49l188 31l-160 387h-473l-155 -387l227 -32v-48h-545zM448 542h411l-207 505zM482 1416c-6.66699 -3.33301 -12 -5.00195 -16 -5.00195c-4.66699 0 -9.66699 1.5 -15 4.5s-6.33301 6.16699 -3 9.5l237 290
c8.66699 10.667 16.5 17.334 23.5 20.001s16.5 4 28.5 4h97c11.333 0 20.833 -1.16699 28.5 -3.5s15.5 -9.16602 23.5 -20.499l216 -290c3.33301 -4 2.5 -7.33301 -2.5 -10s-9.83301 -4 -14.5 -4c-6 0 -11.333 1.66699 -16 5l-284 176z" />
    <glyph glyph-name="Adieresis" unicode="&#xc4;" horiz-adv-x="1487" 
d="M-56 0v48l195 32l540 1194h192l500 -1194l141 -32v-48h-650v49l188 31l-160 387h-473l-155 -387l227 -32v-48h-545zM448 542h411l-207 505zM411 1507c0 20.667 3.83301 40.165 11.5 58.498s18.334 34.166 32.001 47.499s29.5 23.833 47.5 31.5s37.333 11.5 58 11.5
c21.333 0 41.166 -4 59.499 -12s34.333 -18.667 48 -32s24.5 -29.166 32.5 -47.499s12 -37.5 12 -57.5c0 -20.667 -4 -40.167 -12 -58.5s-18.833 -34.5 -32.5 -48.5s-29.667 -25 -48 -33s-38.166 -12 -59.499 -12c-20.667 0 -40 3.83301 -58 11.5
s-33.833 18.334 -47.5 32.001s-24.334 29.834 -32.001 48.501s-11.5 38.667 -11.5 60zM846 1507c0 20.667 3.83301 40.165 11.5 58.498s18.334 34.166 32.001 47.499s29.5 23.833 47.5 31.5s37.333 11.5 58 11.5c21.333 0 41.166 -4 59.499 -12s34.333 -18.667 48 -32
s24.5 -29.166 32.5 -47.499s12 -37.5 12 -57.5c0 -20.667 -4 -40.167 -12 -58.5s-18.833 -34.5 -32.5 -48.5s-29.667 -25 -48 -33s-38.166 -12 -59.499 -12c-20.667 0 -40 3.83301 -58 11.5s-33.833 18.334 -47.5 32.001s-24.334 29.834 -32.001 48.501
s-11.5 38.667 -11.5 60z" />
    <glyph glyph-name="Aring" unicode="&#xc5;" horiz-adv-x="1487" 
d="M866 1558c0 25.333 -8.16699 46.333 -24.5 63s-37.166 25 -62.499 25c-26 0 -47.5 -8.33301 -64.5 -25s-25.5 -37.667 -25.5 -63s8.5 -46.5 25.5 -63.5s38.5 -25.5 64.5 -25.5c25.333 0 46.166 8.5 62.499 25.5s24.5 38.167 24.5 63.5zM963 1558
c0 -26 -4.50098 -50.167 -13.501 -72.5s-21.667 -41.5 -38 -57.5s-35.833 -28.667 -58.5 -38s-47.334 -14 -74.001 -14s-51.167 4.5 -73.5 13.5s-41.666 21.5 -57.999 37.5s-29 35.167 -38 57.5s-13.5 46.833 -13.5 73.5c0 26 4.66699 50.333 14 73s22.333 42.167 39 58.5
s36 29.166 58 38.499s46 14 72 14c26.667 0 51.334 -4.66699 74.001 -14s42.167 -22.166 58.5 -38.499s29 -35.833 38 -58.5s13.5 -47 13.5 -73zM-56.001 0v48l195 32l540 1194h192l500 -1194l141 -32v-48h-650v49l188 31l-160 387h-473l-155 -387l227 -32v-48h-545z
M447.999 542h411l-207 505z" />
    <glyph glyph-name="AE" unicode="&#xc6;" horiz-adv-x="1987" 
d="M572 1274h1252v-299l-56 -5l-78 214h-518v-498h275l59 153h46v-388h-46l-59 153h-275v-393c0 -28 1.5 -50.167 4.5 -66.5s8.33301 -28.833 16 -37.5s18 -14.167 31 -16.5s29.833 -3.5 50.5 -3.5h433l101 242h60l-29 -329h-1147v48l175 32v387h-407l-176 -387l246 -32v-48
h-575v48l223 32l531 1104l-137 42v48zM867 542v599l-76 22l-295 -621h371z" />
    <glyph glyph-name="Ccedilla" unicode="&#xc7;" horiz-adv-x="1610" 
d="M1434 253c-38.667 -54.667 -80.1602 -100.002 -124.493 -136.002s-91 -64.5 -140 -85.5s-100 -35.667 -153 -44s-107.5 -12.5 -163.5 -12.5c-67.333 0 -132.833 6.33301 -196.5 19s-123.834 31.334 -180.501 56.001s-108.834 55.334 -156.501 92.001s-88.667 79 -123 127
s-61.166 101.667 -80.499 161s-29 123.666 -29 192.999s10.333 134.5 31 195.5s49.5 116.833 86.5 167.5s80.667 96 131 136s105.5 73.833 165.5 101.5s123.5 48.834 190.5 63.501s135.167 22 204.5 22c46 0 87.167 -1.33301 123.5 -4s71 -6.5 104 -11.5s65.667 -11 98 -18
l105.5 -22.5l48 -298l-76 4c-22 54 -44.833 97 -68.5 129s-50.834 56.333 -81.501 73s-65.667 27.5 -105 32.5s-85.333 7.5 -138 7.5c-71.333 0 -136.833 -12.833 -196.5 -38.5s-110.834 -62.5 -153.501 -110.5s-75.834 -106.667 -99.501 -176s-35.5 -147.333 -35.5 -234
c0 -86 14.667 -163.5 44 -232.5s68.166 -127.667 116.499 -176s103.666 -85.333 165.999 -111s126.166 -38.5 191.499 -38.5c34.667 0 71 5.83301 109 17.5s75.167 27.5 111.5 47.5s70.833 43.5 103.5 70.5s61 56.167 85 87.5zM887.007 16.998l-62.002 -104.002
c29.333 -6 55.666 -13.333 78.999 -22s43.333 -20.667 60 -36s29.334 -34.666 38.001 -57.999s13 -52.333 13 -87c0 -25.333 -5.16699 -49.333 -15.5 -72s-26.666 -42.5 -48.999 -59.5s-51 -30.5 -86 -40.5s-76.833 -15 -125.5 -15c-24.667 0 -47.667 1.66699 -69 5
s-40 8.16602 -56 14.499s-28.5 14.5 -37.5 24.5s-13.5 22 -13.5 36c0 15.333 5 28.833 15 40.5s23 17.5 39 17.5c24.667 0 45.167 -3.83301 61.5 -11.5s31.333 -16.167 45 -25.5s26.834 -17.833 39.501 -25.5s27.334 -11.5 44.001 -11.5c14.667 0 28.167 2.5 40.5 7.5
s23 11.667 32 20s16 17.833 21 28.5s7.5 21.667 7.5 33c0 28.667 -19.833 52.834 -59.5 72.501s-93.834 33.834 -162.501 42.501l138 226h63z" />
    <glyph glyph-name="Ecircumflex" unicode="&#xca;" horiz-adv-x="1382" 
d="M62 0v48l195 32v1114l-195 32v48h1202v-299l-56 -5l-78 214h-568v-498h325l59 153h46v-388h-46l-59 153h-325v-393c0 -28 1.5 -50.167 4.5 -66.5s8.33301 -28.833 16 -37.5s18 -14.167 31 -16.5s29.833 -3.5 50.5 -3.5h483l101 242h60l-29 -329h-1217zM446 1417
c-6.66699 -3.33301 -12 -5.00195 -16 -5.00195c-4.66699 0 -9.66699 1.5 -15 4.5s-6.33301 6.16699 -3 9.5l237 290c8.66699 10.667 16.5 17.334 23.5 20.001s16.5 4 28.5 4h97c11.333 0 20.833 -1.16699 28.5 -3.5s15.5 -9.16602 23.5 -20.499l216 -290
c3.33301 -4 2.5 -7.33301 -2.5 -10s-9.83301 -4 -14.5 -4c-6 0 -11.333 1.66699 -16 5l-284 176z" />
    <glyph glyph-name="Edieresis" unicode="&#xcb;" horiz-adv-x="1382" 
d="M62 0v48l195 32v1114l-195 32v48h1202v-299l-56 -5l-78 214h-568v-498h325l59 153h46v-388h-46l-59 153h-325v-393c0 -28 1.5 -50.167 4.5 -66.5s8.33301 -28.833 16 -37.5s18 -14.167 31 -16.5s29.833 -3.5 50.5 -3.5h483l101 242h60l-29 -329h-1217zM429 1507
c0 20.667 3.83301 40.165 11.5 58.498s18.334 34.166 32.001 47.499s29.5 23.833 47.5 31.5s37.333 11.5 58 11.5c21.333 0 41.166 -4 59.499 -12s34.333 -18.667 48 -32s24.5 -29.166 32.5 -47.499s12 -37.5 12 -57.5c0 -20.667 -4 -40.167 -12 -58.5
s-18.833 -34.5 -32.5 -48.5s-29.667 -25 -48 -33s-38.166 -12 -59.499 -12c-20.667 0 -40 3.83301 -58 11.5s-33.833 18.334 -47.5 32.001s-24.334 29.834 -32.001 48.501s-11.5 38.667 -11.5 60zM864 1507c0 20.667 3.83301 40.165 11.5 58.498
s18.334 34.166 32.001 47.499s29.5 23.833 47.5 31.5s37.333 11.5 58 11.5c21.333 0 41.166 -4 59.499 -12s34.333 -18.667 48 -32s24.5 -29.166 32.5 -47.499s12 -37.5 12 -57.5c0 -20.667 -4 -40.167 -12 -58.5s-18.833 -34.5 -32.5 -48.5s-29.667 -25 -48 -33
s-38.166 -12 -59.499 -12c-20.667 0 -40 3.83301 -58 11.5s-33.833 18.334 -47.5 32.001s-24.334 29.834 -32.001 48.501s-11.5 38.667 -11.5 60z" />
    <glyph glyph-name="Icircumflex" unicode="&#xce;" horiz-adv-x="791" 
d="M549 99l194 -51v-48h-696v48l195 51v1095l-197 32v48h698v-48l-194 -32v-1095zM101 1417c-6.66699 -3.33301 -12 -5.00195 -16 -5.00195c-4.66699 0 -9.66699 1.5 -15 4.5s-6.33301 6.16699 -3 9.5l237 290c8.66699 10.667 16.5 17.334 23.5 20.001s16.5 4 28.5 4h97
c11.333 0 20.833 -1.16699 28.5 -3.5s15.5 -9.16602 23.5 -20.499l216 -290c3.33301 -4 2.5 -7.33301 -2.5 -10s-9.83301 -4 -14.5 -4c-6 0 -11.333 1.66699 -16 5l-284 176z" />
    <glyph glyph-name="Idieresis" unicode="&#xcf;" horiz-adv-x="791" 
d="M549 99l194 -51v-48h-696v48l195 51v1095l-197 32v48h698v-48l-194 -32v-1095zM25 1507c0 20.667 3.83301 40.165 11.5 58.498s18.334 34.166 32.001 47.499s29.5 23.833 47.5 31.5s37.333 11.5 58 11.5c21.333 0 41.166 -4 59.499 -12s34.333 -18.667 48 -32
s24.5 -29.166 32.5 -47.499s12 -37.5 12 -57.5c0 -20.667 -4 -40.167 -12 -58.5s-18.833 -34.5 -32.5 -48.5s-29.667 -25 -48 -33s-38.166 -12 -59.499 -12c-20.667 0 -40 3.83301 -58 11.5s-33.833 18.334 -47.5 32.001s-24.334 29.834 -32.001 48.501
s-11.5 38.667 -11.5 60zM460 1507c0 20.667 3.83301 40.165 11.5 58.498s18.334 34.166 32.001 47.499s29.5 23.833 47.5 31.5s37.333 11.5 58 11.5c21.333 0 41.166 -4 59.499 -12s34.333 -18.667 48 -32s24.5 -29.166 32.5 -47.499s12 -37.5 12 -57.5
c0 -20.667 -4 -40.167 -12 -58.5s-18.833 -34.5 -32.5 -48.5s-29.667 -25 -48 -33s-38.166 -12 -59.499 -12c-20.667 0 -40 3.83301 -58 11.5s-33.833 18.334 -47.5 32.001s-24.334 29.834 -32.001 48.501s-11.5 38.667 -11.5 60z" />
    <glyph glyph-name="Eth" unicode="&#xd0;" horiz-adv-x="1713" 
d="M1593 671c0 -81.333 -11.1719 -154.331 -33.5049 -218.998s-52.833 -121.834 -91.5 -171.501s-84.167 -92.167 -136.5 -127.5s-108.666 -64.333 -168.999 -87s-123.166 -39.334 -188.499 -50.001s-130.666 -16 -195.999 -16h-719v48l195 32v535l-184 -21l35 135l149 -18
v483l-195 32v48c22.667 0 50.334 0.5 83.001 1.5s68.334 2.33301 107.001 4s100.334 4.16699 185.001 7.5s146.667 5.5 186 6.5s75.666 1.5 108.999 1.5c66 0 133.167 -3.16699 201.5 -9.5s134.5 -18 198.5 -35s124.167 -40.333 180.5 -70s105.5 -67.5 147.5 -113.5
s75.167 -101.5 99.5 -166.5s36.5 -141.5 36.5 -229.5zM703.995 1226l-142.998 0.000976562v-517l175 19l-36 -134l-139 18v-387c0 -29.333 4 -54 12 -74s20.833 -36.333 38.5 -49s40.667 -21.834 69 -27.501s62.833 -8.5 103.5 -8.5c81.333 0 153.166 14.333 215.499 43
s114.666 69 156.999 121s74.333 114.167 96 186.5s32.5 151.833 32.5 238.5c0 86 -13.167 164.167 -39.5 234.5s-64.333 130.333 -114 180s-110.5 88.167 -182.5 115.5s-153.667 41 -245 41z" />
    <glyph glyph-name="Ocircumflex" unicode="&#xd4;" horiz-adv-x="1757" 
d="M799 -33c-106.667 0 -204.332 16.832 -292.999 50.499s-164.834 79.667 -228.501 138s-113.167 126.5 -148.5 204.5s-53 161.667 -53 251c0 62.667 8.66699 123.167 26 181.5s42 112.833 74 163.5s70.5 97.167 115.5 139.5s95 78.5 150 108.5s114.5 53.333 178.5 70
s130.667 25 200 25c105.333 0 202.166 -16.833 290.499 -50.5s164.333 -79.5 228 -137.5s113.334 -126.167 149.001 -204.5s53.5 -162.166 53.5 -251.499c0 -70 -9.83301 -135.667 -29.5 -197s-46.667 -117.5 -81 -168.5s-75 -96.5 -122 -136.5s-98 -73.833 -153 -101.5
s-112.833 -48.667 -173.5 -63s-121.667 -21.5 -183 -21.5zM407.002 686.999c0 -94 9.33301 -180.329 28 -258.996s45.834 -146.334 81.501 -203.001s79.334 -100.834 131.001 -132.501s110.5 -47.5 176.5 -47.5c64.667 0 121 12.667 169 38s88 61.666 120 108.999
s56 104.833 72 172.5s24 144.167 24 229.5c0 90 -9.66699 172.833 -29 248.5s-47.166 141 -83.499 196s-80.333 97.833 -132 128.5s-109.834 46 -174.501 46c-61.333 0 -115.833 -12.5 -163.5 -37.5s-87.834 -60.333 -120.501 -106s-57.334 -100.834 -74.001 -165.501
s-25 -137 -25 -217zM524.002 1417c-6.66699 -3.33301 -12 -5.00195 -16 -5.00195c-4.66699 0 -9.66699 1.5 -15 4.5s-6.33301 6.16699 -3 9.5l237 290c8.66699 10.667 16.5 17.334 23.5 20.001s16.5 4 28.5 4h97c11.333 0 20.833 -1.16699 28.5 -3.5
s15.5 -9.16602 23.5 -20.499l216 -290c3.33301 -4 2.5 -7.33301 -2.5 -10s-9.83301 -4 -14.5 -4c-6 0 -11.333 1.66699 -16 5l-284 176z" />
    <glyph glyph-name="Odieresis" unicode="&#xd6;" horiz-adv-x="1757" 
d="M799 -33c-106.667 0 -204.332 16.832 -292.999 50.499s-164.834 79.667 -228.501 138s-113.167 126.5 -148.5 204.5s-53 161.667 -53 251c0 62.667 8.66699 123.167 26 181.5s42 112.833 74 163.5s70.5 97.167 115.5 139.5s95 78.5 150 108.5s114.5 53.333 178.5 70
s130.667 25 200 25c105.333 0 202.166 -16.833 290.499 -50.5s164.333 -79.5 228 -137.5s113.334 -126.167 149.001 -204.5s53.5 -162.166 53.5 -251.499c0 -70 -9.83301 -135.667 -29.5 -197s-46.667 -117.5 -81 -168.5s-75 -96.5 -122 -136.5s-98 -73.833 -153 -101.5
s-112.833 -48.667 -173.5 -63s-121.667 -21.5 -183 -21.5zM407.002 686.999c0 -94 9.33301 -180.329 28 -258.996s45.834 -146.334 81.501 -203.001s79.334 -100.834 131.001 -132.501s110.5 -47.5 176.5 -47.5c64.667 0 121 12.667 169 38s88 61.666 120 108.999
s56 104.833 72 172.5s24 144.167 24 229.5c0 90 -9.66699 172.833 -29 248.5s-47.166 141 -83.499 196s-80.333 97.833 -132 128.5s-109.834 46 -174.501 46c-61.333 0 -115.833 -12.5 -163.5 -37.5s-87.834 -60.333 -120.501 -106s-57.334 -100.834 -74.001 -165.501
s-25 -137 -25 -217zM447.002 1507c0 20.667 3.83301 40.165 11.5 58.498s18.334 34.166 32.001 47.499s29.5 23.833 47.5 31.5s37.333 11.5 58 11.5c21.333 0 41.166 -4 59.499 -12s34.333 -18.667 48 -32s24.5 -29.166 32.5 -47.499s12 -37.5 12 -57.5
c0 -20.667 -4 -40.167 -12 -58.5s-18.833 -34.5 -32.5 -48.5s-29.667 -25 -48 -33s-38.166 -12 -59.499 -12c-20.667 0 -40 3.83301 -58 11.5s-33.833 18.334 -47.5 32.001s-24.334 29.834 -32.001 48.501s-11.5 38.667 -11.5 60zM882.002 1507
c0 20.667 3.83301 40.165 11.5 58.498s18.334 34.166 32.001 47.499s29.5 23.833 47.5 31.5s37.333 11.5 58 11.5c21.333 0 41.166 -4 59.499 -12s34.333 -18.667 48 -32s24.5 -29.166 32.5 -47.499s12 -37.5 12 -57.5c0 -20.667 -4 -40.167 -12 -58.5
s-18.833 -34.5 -32.5 -48.5s-29.667 -25 -48 -33s-38.166 -12 -59.499 -12c-20.667 0 -40 3.83301 -58 11.5s-33.833 18.334 -47.5 32.001s-24.334 29.834 -32.001 48.501s-11.5 38.667 -11.5 60z" />
    <glyph glyph-name="multiply" unicode="&#xd7;" horiz-adv-x="1364" 
d="M1073 11l-391 391l-390 -390l-74 75l390 389l-388 388l73 74l389 -388l389 390l74 -75l-390 -389l391 -391z" />
    <glyph glyph-name="Oslash" unicode="&#xd8;" horiz-adv-x="1757" 
d="M357 -81l99.001 135.001c-58.667 28 -111.5 61.5 -158.5 100.5s-86.833 82.5 -119.5 130.5s-57.834 99.5 -75.501 154.5s-26.5 112.167 -26.5 171.5c0 62.667 9.5 123.167 28.5 181.5s46 112.833 81 163.5s77.167 97.167 126.5 139.5s104.166 78.5 164.499 108.5
s125.5 53.333 195.5 70s143 25 219 25c78.667 0 152.667 -7.83301 222 -23.5s133.666 -37.834 192.999 -66.501l101 137l60 -34l-100 -136c48.667 -29.333 92.5 -62.833 131.5 -100.5s72 -78.667 99 -123s47.667 -91.5 62 -141.5s21.5 -102 21.5 -156
c0 -70 -10.667 -135.667 -32 -197s-50.833 -117.5 -88.5 -168.5s-82.167 -96.5 -133.5 -136.5s-107.166 -73.833 -167.499 -101.5s-123.833 -48.667 -190.5 -63s-133.667 -21.5 -201 -21.5c-64 0 -124.667 5.16699 -182 15.5s-111.666 24.833 -162.999 43.5l-107 -145z
M408.001 687.001c0 -102 13.498 -194.499 40.498 -277.499s65.167 -153.167 114.5 -210.5l631 857c-43.333 50 -93.333 88.667 -150 116s-118.667 41 -186 41s-128.666 -12.5 -183.999 -37.5s-102.666 -60.333 -141.999 -106s-69.833 -100.834 -91.5 -165.501
s-32.5 -137 -32.5 -217zM894.999 45.002c70.667 0 133.999 12.6689 189.999 38.002s103.5 61.666 142.5 108.999s68.833 104.833 89.5 172.5s31 144.167 31 229.5c0 80 -9.66699 154.167 -29 222.5s-46.666 129.166 -81.999 182.499l-624 -850
c39.333 -34 82.5 -59.833 129.5 -77.5s97.833 -26.5 152.5 -26.5z" />
    <glyph glyph-name="Ucircumflex" unicode="&#xdb;" horiz-adv-x="1662" 
d="M1376 530c-3.33301 -97.333 -14.499 -181.001 -33.499 -251.001s-49.667 -127.667 -92 -173s-98.833 -78.833 -169.5 -100.5s-159 -32.5 -265 -32.5c-103.333 0 -190.833 10.5 -262.5 31.5s-129.834 52.667 -174.501 95s-77.167 95.333 -97.5 159
s-30.5 138.5 -30.5 224.5v711l-194 32v48h690v-48l-195 -32v-687c0 -63.333 3.83301 -121 11.5 -173s23.5 -96.5 47.5 -133.5s58.833 -65.5 104.5 -85.5s106.5 -30 182.5 -30c138 0 239.833 39.833 305.5 119.5s95.167 204.834 88.5 375.501l-25 614l-176 32v48h507v-48
l-199 -32zM586.001 1417c-6.66699 -3.33301 -12 -5.00195 -16 -5.00195c-4.66699 0 -9.66699 1.5 -15 4.5s-6.33301 6.16699 -3 9.5l237 290c8.66699 10.667 16.5 17.334 23.5 20.001s16.5 4 28.5 4h97c11.333 0 20.833 -1.16699 28.5 -3.5s15.5 -9.16602 23.5 -20.499
l216 -290c3.33301 -4 2.5 -7.33301 -2.5 -10s-9.83301 -4 -14.5 -4c-6 0 -11.333 1.66699 -16 5l-284 176z" />
    <glyph glyph-name="Udieresis" unicode="&#xdc;" horiz-adv-x="1662" 
d="M1376 530c-3.33301 -97.333 -14.499 -181.001 -33.499 -251.001s-49.667 -127.667 -92 -173s-98.833 -78.833 -169.5 -100.5s-159 -32.5 -265 -32.5c-103.333 0 -190.833 10.5 -262.5 31.5s-129.834 52.667 -174.501 95s-77.167 95.333 -97.5 159
s-30.5 138.5 -30.5 224.5v711l-194 32v48h690v-48l-195 -32v-687c0 -63.333 3.83301 -121 11.5 -173s23.5 -96.5 47.5 -133.5s58.833 -65.5 104.5 -85.5s106.5 -30 182.5 -30c138 0 239.833 39.833 305.5 119.5s95.167 204.834 88.5 375.501l-25 614l-176 32v48h507v-48
l-199 -32zM555.001 1507c0 20.667 3.83301 40.165 11.5 58.498s18.334 34.166 32.001 47.499s29.5 23.833 47.5 31.5s37.333 11.5 58 11.5c21.333 0 41.166 -4 59.499 -12s34.333 -18.667 48 -32s24.5 -29.166 32.5 -47.499s12 -37.5 12 -57.5
c0 -20.667 -4 -40.167 -12 -58.5s-18.833 -34.5 -32.5 -48.5s-29.667 -25 -48 -33s-38.166 -12 -59.499 -12c-20.667 0 -40 3.83301 -58 11.5s-33.833 18.334 -47.5 32.001s-24.334 29.834 -32.001 48.501s-11.5 38.667 -11.5 60zM990.001 1507
c0 20.667 3.83301 40.165 11.5 58.498s18.334 34.166 32.001 47.499s29.5 23.833 47.5 31.5s37.333 11.5 58 11.5c21.333 0 41.166 -4 59.499 -12s34.333 -18.667 48 -32s24.5 -29.166 32.5 -47.499s12 -37.5 12 -57.5c0 -20.667 -4 -40.167 -12 -58.5
s-18.833 -34.5 -32.5 -48.5s-29.667 -25 -48 -33s-38.166 -12 -59.499 -12c-20.667 0 -40 3.83301 -58 11.5s-33.833 18.334 -47.5 32.001s-24.334 29.834 -32.001 48.501s-11.5 38.667 -11.5 60z" />
    <glyph glyph-name="Thorn" unicode="&#xde;" horiz-adv-x="1385" 
d="M558 99l194.003 -51v-48h-696v48l195 51v1095l-197 32v48h698v-48l-194 -32v-172c19.333 0.666992 35.166 1.16699 47.499 1.5s20.166 0.5 23.499 0.5c110.667 0 200 -6 268 -18c62 -10 117 -26.333 165 -49s88.667 -50.5 122 -83.5s58.666 -70.333 75.999 -112
s26 -86.5 26 -134.5c0 -56 -12.667 -107.5 -38 -154.5s-60.666 -87.5 -105.999 -121.5s-99.333 -60.333 -162 -79s-131.334 -28 -206.001 -28c-24.667 0 -56 1.16699 -94 3.5s-78.667 5.5 -122 9.5v-158zM645.003 339c104 0 183 25.334 237 76.001s81 123.667 81 219
c0 97.333 -27 171.666 -81 222.999s-131.667 77 -233 77c-12.667 0 -26.5 -0.5 -41.5 -1.5s-31.5 -2.16699 -49.5 -3.5v-584c19.333 -2 35.833 -3.5 49.5 -4.5s26.167 -1.5 37.5 -1.5z" />
    <glyph glyph-name="germandbls" unicode="&#xdf;" horiz-adv-x="1268" 
d="M556 48c20 0 43.0029 1.83398 69.0029 5.50098s52.667 10 80 19s54.166 21 80.499 36s50 34.333 71 58s37.833 51.667 50.5 84s19 70.166 19 113.499c0 58 -6.66699 109 -20 153s-34.666 81 -63.999 111s-67.5 52.667 -114.5 68s-104.167 23.333 -171.5 24v53
c50 2 90.667 9.83301 122 23.5s55.833 33 73.5 58s29.834 55.667 36.501 92s10 78.166 10 125.499c0 80 -11.5 138.5 -34.5 175.5s-58.167 55.5 -105.5 55.5c-29.333 0 -56.333 -7.16699 -81 -21.5s-46 -35.333 -64 -63s-32 -61.667 -42 -102s-15 -86.166 -15 -137.499v-979
h-403v48l129 31v732c0 72 6.66699 136 20 192s31.833 104.833 55.5 146.5s51.834 77 84.501 106s68.167 52.333 106.5 70s78.666 30.5 120.999 38.5s85.5 12 129.5 12c48.667 0 95.5 -5.83301 140.5 -17.5s84.667 -29.167 119 -52.5s61.666 -52.5 81.999 -87.5
s30.5 -75.833 30.5 -122.5c0 -44.667 -7.33301 -85 -22 -121s-34.834 -67.833 -60.501 -95.5s-55.834 -51.5 -90.501 -71.5s-72.334 -36.333 -113.001 -49h-14c58 -3.33301 113.5 -13.833 166.5 -31.5s99.5 -42.167 139.5 -73.5s72 -69.666 96 -114.999s36 -97.333 36 -156
c0 -53.333 -9.66699 -99.833 -29 -139.5s-45.333 -73.834 -78 -102.501s-70.834 -52 -114.501 -70s-89.667 -32.333 -138 -43s-97.666 -18 -147.999 -22s-98.833 -6 -145.5 -6v48z" />
    <glyph glyph-name="acircumflex" unicode="&#xe2;" horiz-adv-x="1049" 
d="M144 524l0.00195312 166.003c20.667 25.333 45.334 47.166 74.001 65.499s59.167 33.333 91.5 45s65.666 20.167 99.999 25.5s67.5 8 99.5 8c49.333 0 96.166 -4 140.499 -12s83.333 -22 117 -42s60.5 -47.167 80.5 -81.5s30 -77.5 30 -129.5v-489l107 -32v-48h-295
c-29.333 0 -50.833 7.5 -64.5 22.5s-20.834 31.5 -21.501 49.5c-38.667 -36.667 -79 -62 -121 -76s-88 -21 -138 -21c-80.667 0 -143.5 19.5 -188.5 58.5s-67.5 93.5 -67.5 163.5c0 40 8.33301 74.167 25 102.5s38.834 52.166 66.501 71.499s59.5 35.333 95.5 48
s73.167 24 111.5 34s76.333 19.333 114 28s72.167 18.667 103.5 30v78c0 30.667 -4.5 57.167 -13.5 79.5s-20.333 40.5 -34 54.5s-28.167 24.333 -43.5 31s-29.333 10 -42 10c-31.333 0 -58.5 -6.33301 -81.5 -19s-42.5 -29.834 -58.5 -51.501s-28.833 -47 -38.5 -76
s-16.834 -60.167 -21.501 -93.5h-127zM604.002 429.003c-46 -5.33301 -85.835 -15.499 -119.502 -30.499s-61.5 -32.5 -83.5 -52.5s-38.333 -41.5 -49 -64.5s-16 -45.5 -16 -67.5c0 -16 2.83301 -31.333 8.5 -46s14.334 -27.334 26.001 -38.001s25.834 -19.167 42.501 -25.5
s36 -9.5 58 -9.5c22.667 0 45 8 67 24s44 37 66 63v247zM198 1006c-6.66699 -3.33301 -12 -5.00195 -16 -5.00195c-4.66699 0 -9.66699 1.5 -15 4.5s-6.33301 6.16699 -3 9.5l237 290c8.66699 10.667 16.5 17.334 23.5 20.001s16.5 4 28.5 4h97
c11.333 0 20.833 -1.16699 28.5 -3.5s15.5 -9.16602 23.5 -20.499l216 -290c3.33301 -4 2.5 -7.33301 -2.5 -10s-9.83301 -4 -14.5 -4c-6 0 -11.333 1.66699 -16 5l-284 176z" />
    <glyph glyph-name="adieresis" unicode="&#xe4;" horiz-adv-x="1049" 
d="M144 524l0.00195312 166.003c20.667 25.333 45.334 47.166 74.001 65.499s59.167 33.333 91.5 45s65.666 20.167 99.999 25.5s67.5 8 99.5 8c49.333 0 96.166 -4 140.499 -12s83.333 -22 117 -42s60.5 -47.167 80.5 -81.5s30 -77.5 30 -129.5v-489l107 -32v-48h-295
c-29.333 0 -50.833 7.5 -64.5 22.5s-20.834 31.5 -21.501 49.5c-38.667 -36.667 -79 -62 -121 -76s-88 -21 -138 -21c-80.667 0 -143.5 19.5 -188.5 58.5s-67.5 93.5 -67.5 163.5c0 40 8.33301 74.167 25 102.5s38.834 52.166 66.501 71.499s59.5 35.333 95.5 48
s73.167 24 111.5 34s76.333 19.333 114 28s72.167 18.667 103.5 30v78c0 30.667 -4.5 57.167 -13.5 79.5s-20.333 40.5 -34 54.5s-28.167 24.333 -43.5 31s-29.333 10 -42 10c-31.333 0 -58.5 -6.33301 -81.5 -19s-42.5 -29.834 -58.5 -51.501s-28.833 -47 -38.5 -76
s-16.834 -60.167 -21.501 -93.5h-127zM604.002 429.003c-46 -5.33301 -85.835 -15.499 -119.502 -30.499s-61.5 -32.5 -83.5 -52.5s-38.333 -41.5 -49 -64.5s-16 -45.5 -16 -67.5c0 -16 2.83301 -31.333 8.5 -46s14.334 -27.334 26.001 -38.001s25.834 -19.167 42.501 -25.5
s36 -9.5 58 -9.5c22.667 0 45 8 67 24s44 37 66 63v247zM158 1129c0 20.667 3.83301 40.165 11.5 58.498s18.334 34.166 32.001 47.499s29.5 23.833 47.5 31.5s37.333 11.5 58 11.5c21.333 0 41.166 -4 59.499 -12s34.333 -18.667 48 -32s24.5 -29.166 32.5 -47.499
s12 -37.5 12 -57.5c0 -20.667 -4 -40.167 -12 -58.5s-18.833 -34.5 -32.5 -48.5s-29.667 -25 -48 -33s-38.166 -12 -59.499 -12c-20.667 0 -40 3.83301 -58 11.5s-33.833 18.334 -47.5 32.001s-24.334 29.834 -32.001 48.501s-11.5 38.667 -11.5 60zM593 1129
c0 20.667 3.83301 40.165 11.5 58.498s18.334 34.166 32.001 47.499s29.5 23.833 47.5 31.5s37.333 11.5 58 11.5c21.333 0 41.166 -4 59.499 -12s34.333 -18.667 48 -32s24.5 -29.166 32.5 -47.499s12 -37.5 12 -57.5c0 -20.667 -4 -40.167 -12 -58.5
s-18.833 -34.5 -32.5 -48.5s-29.667 -25 -48 -33s-38.166 -12 -59.499 -12c-20.667 0 -40 3.83301 -58 11.5s-33.833 18.334 -47.5 32.001s-24.334 29.834 -32.001 48.501s-11.5 38.667 -11.5 60z" />
    <glyph glyph-name="aring" unicode="&#xe5;" horiz-adv-x="1049" 
d="M609 1131c0 25.333 -8.16699 46.333 -24.5 63s-37.166 25 -62.499 25c-26 0 -47.5 -8.33301 -64.5 -25s-25.5 -37.667 -25.5 -63s8.5 -46.5 25.5 -63.5s38.5 -25.5 64.5 -25.5c25.333 0 46.166 8.5 62.499 25.5s24.5 38.167 24.5 63.5zM706 1131
c0 -26 -4.50098 -50.167 -13.501 -72.5s-21.667 -41.5 -38 -57.5s-35.833 -28.667 -58.5 -38s-47.334 -14 -74.001 -14s-51.167 4.5 -73.5 13.5s-41.666 21.5 -57.999 37.5s-29 35.167 -38 57.5s-13.5 46.833 -13.5 73.5c0 26 4.66699 50.333 14 73s22.333 42.167 39 58.5
s36 29.166 58 38.499s46 14 72 14c26.667 0 51.334 -4.66699 74.001 -14s42.167 -22.166 58.5 -38.499s29 -35.833 38 -58.5s13.5 -47 13.5 -73zM143.999 524l0.00195312 166.003c20.667 25.333 45.334 47.166 74.001 65.499s59.167 33.333 91.5 45
s65.666 20.167 99.999 25.5s67.5 8 99.5 8c49.333 0 96.166 -4 140.499 -12s83.333 -22 117 -42s60.5 -47.167 80.5 -81.5s30 -77.5 30 -129.5v-489l107 -32v-48h-295c-29.333 0 -50.833 7.5 -64.5 22.5s-20.834 31.5 -21.501 49.5c-38.667 -36.667 -79 -62 -121 -76
s-88 -21 -138 -21c-80.667 0 -143.5 19.5 -188.5 58.5s-67.5 93.5 -67.5 163.5c0 40 8.33301 74.167 25 102.5s38.834 52.166 66.501 71.499s59.5 35.333 95.5 48s73.167 24 111.5 34s76.333 19.333 114 28s72.167 18.667 103.5 30v78c0 30.667 -4.5 57.167 -13.5 79.5
s-20.333 40.5 -34 54.5s-28.167 24.333 -43.5 31s-29.333 10 -42 10c-31.333 0 -58.5 -6.33301 -81.5 -19s-42.5 -29.834 -58.5 -51.501s-28.833 -47 -38.5 -76s-16.834 -60.167 -21.501 -93.5h-127zM604.001 429.003c-46 -5.33301 -85.835 -15.499 -119.502 -30.499
s-61.5 -32.5 -83.5 -52.5s-38.333 -41.5 -49 -64.5s-16 -45.5 -16 -67.5c0 -16 2.83301 -31.333 8.5 -46s14.334 -27.334 26.001 -38.001s25.834 -19.167 42.501 -25.5s36 -9.5 58 -9.5c22.667 0 45 8 67 24s44 37 66 63v247z" />
    <glyph glyph-name="ae" unicode="&#xe6;" horiz-adv-x="1446" 
d="M1351 198c-30 -41.333 -58.833 -76.167 -86.5 -104.5s-56.667 -51.333 -87 -69s-63.166 -30.334 -98.499 -38.001s-75.666 -11.5 -120.999 -11.5c-40 0 -75.833 2.83301 -107.5 8.5s-60.834 14.834 -87.501 27.501s-51.167 29.167 -73.5 49.5s-43.833 45.5 -64.5 75.5
l-51.5 -60c-16.333 -19.333 -35 -36.5 -56 -51.5s-46.167 -27 -75.5 -36s-65.666 -13.5 -108.999 -13.5c-80.667 0 -143.5 19.667 -188.5 59s-67.5 93.666 -67.5 162.999c0 38.667 7.66699 71.667 23 99s35.666 50.666 60.999 69.999s54.666 35.5 87.999 48.5
s68 24.833 104 35.5s72.167 20.667 108.5 30s70.166 19.666 101.499 30.999v132c0 16.667 -2.66699 32.334 -8 47.001s-13 27.5 -23 38.5s-21.833 19.5 -35.5 25.5s-28.834 9 -45.501 9c-26.667 0 -46.334 -2.83301 -59.001 -8.5s-21.167 -13.167 -25.5 -22.5
s-6 -19.833 -5 -31.5s1.5 -23.167 1.5 -34.5c0 -6 0.166992 -12.167 0.5 -18.5s0.5 -12.166 0.5 -17.499c0 -13.333 -2 -25.5 -6 -36.5s-13.667 -18.833 -29 -23.5l-155 -47c-12 -3.33301 -22 -3 -30 1s-14.5 10.333 -19.5 19s-8.5 19 -10.5 31s-3 24.667 -3 38
c0 74.667 30.5 130.334 91.5 167.001s151.5 55 271.5 55c36.667 0 67.167 -1.66699 91.5 -5s45.333 -8.5 63 -15.5s33.5 -15.667 47.5 -26s28.667 -22.166 44 -35.499c36.667 29.333 79.334 50.333 128.001 63s97.334 19 146.001 19c64.667 0 119.5 -10.333 164.5 -31
s81.667 -49.667 110 -87s48.833 -81.833 61.5 -133.5s19 -108.834 19 -171.501h-527c2.66699 -50 9.5 -93.833 20.5 -131.5s27 -69 48 -94s47.5 -43.833 79.5 -56.5s70.333 -19 115 -19c22.667 0 43.334 2.16699 62.001 6.5s36.5 11.333 53.5 21s34 22.5 51 38.5
s35.833 36 56.5 60zM822 484.999h277.002c0 46.667 -2.33301 86.167 -7 118.5s-12.334 58.333 -23.001 78s-24.834 33.834 -42.501 42.501s-39.5 13 -65.5 13c-26.667 0 -49 -5.83301 -67 -17.5s-32.333 -28.334 -43 -50.001s-18.167 -48 -22.5 -79
s-6.5 -66.167 -6.5 -105.5zM563.002 428.999c-48.667 -14 -87.665 -27.499 -116.998 -40.499s-52 -27.167 -68 -42.5s-26.5 -32.666 -31.5 -51.999s-7.5 -42.333 -7.5 -69c0 -38.667 7.83301 -70 23.5 -94s41.5 -36 77.5 -36c20 0 37.667 4.66699 53 14
s28.166 21.166 38.499 35.499s18.166 30.166 23.499 47.499s8 34 8 50v187z" />
    <glyph glyph-name="ccedilla" unicode="&#xe7;" horiz-adv-x="1057" 
d="M836 549l-42.4951 63.5039c-16.333 23.667 -35.333 46 -57 67s-46.167 38.833 -73.5 53.5s-58.333 22 -93 22c-32.667 0 -60.834 -7.83301 -84.501 -23.5s-43.334 -37.5 -59.001 -65.5s-27.167 -60.833 -34.5 -98.5s-11 -78.5 -11 -122.5c0 -51.333 6 -98.333 18 -141
s29.333 -79.667 52 -111s50.167 -55.666 82.5 -72.999s69.166 -26 110.499 -26s80.166 10.667 116.499 32s76.166 54.666 119.499 99.999l67 -38c-28 -36 -56.667 -67.333 -86 -94s-60.666 -48.834 -93.999 -66.501s-69.166 -30.834 -107.499 -39.501s-80.5 -13 -126.5 -13
c-66.667 0 -127.334 10.333 -182.001 31s-101.5 49 -140.5 85s-69.167 78.5 -90.5 127.5s-32 102.167 -32 159.5c0 64 13.167 123.667 39.5 179s63.166 103.5 110.499 144.5s103.5 73.333 168.5 97s136.5 35.5 214.5 35.5c43.333 0 83.333 -4.33301 120 -13
s69.167 -19.834 97.5 -33.501s51.833 -28.334 70.5 -44.001s32 -30.5 40 -44.5zM602.005 17.0039l-62.002 -104.002c29.333 -6 55.666 -13.333 78.999 -22s43.333 -20.667 60 -36s29.334 -34.666 38.001 -57.999s13 -52.333 13 -87c0 -25.333 -5.16699 -49.333 -15.5 -72
s-26.666 -42.5 -48.999 -59.5s-51 -30.5 -86 -40.5s-76.833 -15 -125.5 -15c-24.667 0 -47.667 1.66699 -69 5s-40 8.16602 -56 14.499s-28.5 14.5 -37.5 24.5s-13.5 22 -13.5 36c0 15.333 5 28.833 15 40.5s23 17.5 39 17.5c24.667 0 45.167 -3.83301 61.5 -11.5
s31.333 -16.167 45 -25.5s26.834 -17.833 39.501 -25.5s27.334 -11.5 44.001 -11.5c14.667 0 28.167 2.5 40.5 7.5s23 11.667 32 20s16 17.833 21 28.5s7.5 21.667 7.5 33c0 28.667 -19.833 52.834 -59.5 72.501s-93.834 33.834 -162.501 42.501l138 226h63z" />
    <glyph glyph-name="ecircumflex" unicode="&#xea;" horiz-adv-x="1044" 
d="M366 485l327.001 0.00195312c-0.666992 83.333 -15.834 146.166 -45.501 188.499s-70.5 63.5 -122.5 63.5c-54 0 -94 -22.333 -120 -67s-39 -106.334 -39 -185.001zM945.001 198.002c-65.333 -75.333 -131.997 -131.333 -199.997 -168s-142.333 -55 -223 -55
c-64 0 -123.167 10.333 -177.5 31s-101.333 49.5 -141 86.5s-70.5 81 -92.5 132s-33 106.5 -33 166.5c0 68.667 12.333 130.5 37 185.5s58.5 101.5 101.5 139.5s93.667 67.167 152 87.5s121.5 30.5 189.5 30.5c66 0 123 -10.833 171 -32.5s87.667 -51.5 119 -89.5
s54.666 -82.667 69.999 -134s23.666 -107 24.999 -167h-577c5.33301 -100 32.666 -175.167 81.999 -225.5s116.333 -75.5 201 -75.5c24 0 46.667 2.5 68 7.5s42 12.5 62 22.5s40 23 60 39s41 35 63 57zM216.004 1006c-6.66699 -3.33301 -12 -5.00195 -16 -5.00195
c-4.66699 0 -9.66699 1.5 -15 4.5s-6.33301 6.16699 -3 9.5l237 290c8.66699 10.667 16.5 17.334 23.5 20.001s16.5 4 28.5 4h97c11.333 0 20.833 -1.16699 28.5 -3.5s15.5 -9.16602 23.5 -20.499l216 -290c3.33301 -4 2.5 -7.33301 -2.5 -10s-9.83301 -4 -14.5 -4
c-6 0 -11.333 1.66699 -16 5l-284 176z" />
    <glyph glyph-name="edieresis" unicode="&#xeb;" horiz-adv-x="1044" 
d="M366 485l327.001 0.00195312c-0.666992 83.333 -15.834 146.166 -45.501 188.499s-70.5 63.5 -122.5 63.5c-54 0 -94 -22.333 -120 -67s-39 -106.334 -39 -185.001zM945.001 198.002c-65.333 -75.333 -131.997 -131.333 -199.997 -168s-142.333 -55 -223 -55
c-64 0 -123.167 10.333 -177.5 31s-101.333 49.5 -141 86.5s-70.5 81 -92.5 132s-33 106.5 -33 166.5c0 68.667 12.333 130.5 37 185.5s58.5 101.5 101.5 139.5s93.667 67.167 152 87.5s121.5 30.5 189.5 30.5c66 0 123 -10.833 171 -32.5s87.667 -51.5 119 -89.5
s54.666 -82.667 69.999 -134s23.666 -107 24.999 -167h-577c5.33301 -100 32.666 -175.167 81.999 -225.5s116.333 -75.5 201 -75.5c24 0 46.667 2.5 68 7.5s42 12.5 62 22.5s40 23 60 39s41 35 63 57zM164.004 1129c0 20.667 3.83301 40.165 11.5 58.498
s18.334 34.166 32.001 47.499s29.5 23.833 47.5 31.5s37.333 11.5 58 11.5c21.333 0 41.166 -4 59.499 -12s34.333 -18.667 48 -32s24.5 -29.166 32.5 -47.499s12 -37.5 12 -57.5c0 -20.667 -4 -40.167 -12 -58.5s-18.833 -34.5 -32.5 -48.5s-29.667 -25 -48 -33
s-38.166 -12 -59.499 -12c-20.667 0 -40 3.83301 -58 11.5s-33.833 18.334 -47.5 32.001s-24.334 29.834 -32.001 48.501s-11.5 38.667 -11.5 60zM599.004 1129c0 20.667 3.83301 40.165 11.5 58.498s18.334 34.166 32.001 47.499s29.5 23.833 47.5 31.5
s37.333 11.5 58 11.5c21.333 0 41.166 -4 59.499 -12s34.333 -18.667 48 -32s24.5 -29.166 32.5 -47.499s12 -37.5 12 -57.5c0 -20.667 -4 -40.167 -12 -58.5s-18.833 -34.5 -32.5 -48.5s-29.667 -25 -48 -33s-38.166 -12 -59.499 -12c-20.667 0 -40 3.83301 -58 11.5
s-33.833 18.334 -47.5 32.001s-24.334 29.834 -32.001 48.501s-11.5 38.667 -11.5 60z" />
    <glyph glyph-name="igrave" unicode="&#xec;" horiz-adv-x="647" 
d="M469 80l127 -32v-48h-530v48l129 32v650h-129v48l338 66h65v-764zM-30 1304c0 6.66699 3.66602 12.501 10.999 17.501s19 7.5 35 7.5h184c17.333 0 30.5 -1.33301 39.5 -4s17.5 -9.33398 25.5 -20.001l200 -272c5.33301 -6.66699 7 -13.667 5 -21s-11 -11 -27 -11
c-12 0 -24.333 4 -37 12l-412 261c-9.33301 5.33301 -15.666 10.833 -18.999 16.5s-5 10.167 -5 13.5z" />
    <glyph glyph-name="iacute" unicode="&#xed;" horiz-adv-x="647" 
d="M469 80l127 -32v-48h-530v48l129 32v650h-129v48l338 66h65v-764zM694 1304c0 -3.33301 -1.66895 -7.83398 -5.00195 -13.501s-9.66602 -11.167 -18.999 -16.5l-412 -261c-13.333 -8 -25.666 -12 -36.999 -12c-16 0 -25 3.66699 -27 11s-0.333008 14.333 5 21l200 272
c8 10.667 16.5 17.334 25.5 20.001s22.167 4 39.5 4h184c16 0 27.667 -2.5 35 -7.5s11 -10.833 11 -17.5z" />
    <glyph glyph-name="icircumflex" unicode="&#xee;" horiz-adv-x="647" 
d="M469 80l127 -32v-48h-530v48l129 32v650h-129v48l338 66h65v-764zM32 1006c-6.66699 -3.33301 -12 -5.00195 -16 -5.00195c-4.66699 0 -9.66699 1.5 -15 4.5s-6.33301 6.16699 -3 9.5l237 290c8.66699 10.667 16.5 17.334 23.5 20.001s16.5 4 28.5 4h97
c11.333 0 20.833 -1.16699 28.5 -3.5s15.5 -9.16602 23.5 -20.499l216 -290c3.33301 -4 2.5 -7.33301 -2.5 -10s-9.83301 -4 -14.5 -4c-6 0 -11.333 1.66699 -16 5l-284 176z" />
    <glyph glyph-name="idieresis" unicode="&#xef;" horiz-adv-x="647" 
d="M469 80l127 -32v-48h-530v48l129 32v650h-129v48l338 66h65v-764zM-37 1129c0 20.667 3.83301 40.165 11.5 58.498s18.334 34.166 32.001 47.499s29.5 23.833 47.5 31.5s37.333 11.5 58 11.5c21.333 0 41.166 -4 59.499 -12s34.333 -18.667 48 -32
s24.5 -29.166 32.5 -47.499s12 -37.5 12 -57.5c0 -20.667 -4 -40.167 -12 -58.5s-18.833 -34.5 -32.5 -48.5s-29.667 -25 -48 -33s-38.166 -12 -59.499 -12c-20.667 0 -40 3.83301 -58 11.5s-33.833 18.334 -47.5 32.001s-24.334 29.834 -32.001 48.501
s-11.5 38.667 -11.5 60zM398 1129c0 20.667 3.83301 40.165 11.5 58.498s18.334 34.166 32.001 47.499s29.5 23.833 47.5 31.5s37.333 11.5 58 11.5c21.333 0 41.166 -4 59.499 -12s34.333 -18.667 48 -32s24.5 -29.166 32.5 -47.499s12 -37.5 12 -57.5
c0 -20.667 -4 -40.167 -12 -58.5s-18.833 -34.5 -32.5 -48.5s-29.667 -25 -48 -33s-38.166 -12 -59.499 -12c-20.667 0 -40 3.83301 -58 11.5s-33.833 18.334 -47.5 32.001s-24.334 29.834 -32.001 48.501s-11.5 38.667 -11.5 60z" />
    <glyph glyph-name="eth" unicode="&#xf0;" horiz-adv-x="1162" 
d="M261 1309l26 46c72.667 -10 140.667 -27.333 204 -52s122 -55.334 176 -92.001c74 39.333 140.333 87.333 199 144c4.66699 4.66699 9.66699 7 15 7s9.66602 -1.66699 12.999 -5s5 -8.33301 5 -15v-81c0 -7.33301 -2.33301 -13 -7 -17s-13.5 -8.66699 -26.5 -14
l-53.5 -21.5c-22.667 -9 -52.334 -21.833 -89.001 -38.5c116.667 -93.333 206.334 -197.5 269.001 -312.5s94 -244.5 94 -388.5c0 -70 -12.167 -135 -36.5 -195s-58.333 -112.167 -102 -156.5s-96 -79.166 -157 -104.499s-128.5 -38 -202.5 -38
c-78 0 -148.5 11.167 -211.5 33.5s-116.833 52.666 -161.5 90.999s-79.167 83.333 -103.5 135s-36.5 106.5 -36.5 164.5c0 64.667 13 123.834 39 177.501s61.833 99.5 107.5 137.5s99.334 67.5 161.001 88.5s128.167 31.5 199.5 31.5c47.333 0 92.333 -4.66699 135 -14
c-1.33301 46.667 -15.5 93.667 -42.5 141s-60.167 92 -99.5 134c-80 -44 -156.333 -100.333 -229 -169c-4.66699 -4.66699 -9 -7 -13 -7s-7 2.33301 -9 7s-3 9.66699 -3 15l-1 90c0 9.33301 3 16.333 9 21s17 10 33 16l65 24.5c27.333 10.333 62 26.166 104 47.499
c-26 24 -52.5 46.167 -79.5 66.5s-52.5 38 -76.5 53s-46 26.833 -66 35.5s-36 13.334 -48 14.001zM796 352c0 57.333 -6.00195 111.997 -18.002 163.997s-28.833 97.833 -50.5 137.5s-47.334 71.334 -77.001 95.001s-62.167 35.5 -97.5 35.5c-26 0 -50.5 -8.33301 -73.5 -25
s-43 -39.167 -60 -67.5s-30.333 -61.666 -40 -99.999s-14.5 -79.166 -14.5 -122.499c0 -58 5.83301 -113.833 17.5 -167.5s28.334 -101 50.001 -142s47.5 -73.667 77.5 -98s63.333 -36.5 100 -36.5c26 0 50.333 8 73 24s42.334 38.5 59.001 67.5s29.834 63.5 39.501 103.5
s14.5 84 14.5 132z" />
    <glyph glyph-name="ocircumflex" unicode="&#xf4;" horiz-adv-x="1130" 
d="M74 401c0 66.667 12.667 126.834 38 180.501s60.333 99.167 105 136.5s97.667 66.166 159 86.499s128 30.5 200 30.5c71.333 0 136.5 -9.66699 195.5 -29s109.5 -47.166 151.5 -83.499s74.5 -80.333 97.5 -132s34.5 -109.834 34.5 -174.501c0 -66 -12.333 -126 -37 -180
s-59.334 -100.167 -104.001 -138.5s-97.667 -68.166 -159 -89.499s-128.666 -32 -201.999 -32c-71.333 0 -136.333 9.83301 -195 29.5s-109 48 -151 85s-74.667 81.667 -98 134s-35 111.166 -35 176.499zM600 47c62 0 107.832 21.168 137.499 63.501
s44.5 103.833 44.5 184.5c0 72.667 -6.16699 138.334 -18.5 197.001s-29.666 108.5 -51.999 149.5s-49.5 72.5 -81.5 94.5s-67.333 33 -106 33c-58.667 0 -103.834 -20.333 -135.501 -61s-47.5 -95 -47.5 -163c0 -78 6 -147.833 18 -209.5s29.333 -113.834 52 -156.501
s49.834 -75.334 81.501 -98.001s67.5 -34 107.5 -34zM268.999 1006c-6.66699 -3.33301 -12 -5.00195 -16 -5.00195c-4.66699 0 -9.66699 1.5 -15 4.5s-6.33301 6.16699 -3 9.5l237 290c8.66699 10.667 16.5 17.334 23.5 20.001s16.5 4 28.5 4h97
c11.333 0 20.833 -1.16699 28.5 -3.5s15.5 -9.16602 23.5 -20.499l216 -290c3.33301 -4 2.5 -7.33301 -2.5 -10s-9.83301 -4 -14.5 -4c-6 0 -11.333 1.66699 -16 5l-284 176z" />
    <glyph glyph-name="odieresis" unicode="&#xf6;" horiz-adv-x="1130" 
d="M74 401c0 66.667 12.667 126.834 38 180.501s60.333 99.167 105 136.5s97.667 66.166 159 86.499s128 30.5 200 30.5c71.333 0 136.5 -9.66699 195.5 -29s109.5 -47.166 151.5 -83.499s74.5 -80.333 97.5 -132s34.5 -109.834 34.5 -174.501c0 -66 -12.333 -126 -37 -180
s-59.334 -100.167 -104.001 -138.5s-97.667 -68.166 -159 -89.499s-128.666 -32 -201.999 -32c-71.333 0 -136.333 9.83301 -195 29.5s-109 48 -151 85s-74.667 81.667 -98 134s-35 111.166 -35 176.499zM600 47c62 0 107.832 21.168 137.499 63.501
s44.5 103.833 44.5 184.5c0 72.667 -6.16699 138.334 -18.5 197.001s-29.666 108.5 -51.999 149.5s-49.5 72.5 -81.5 94.5s-67.333 33 -106 33c-58.667 0 -103.834 -20.333 -135.501 -61s-47.5 -95 -47.5 -163c0 -78 6 -147.833 18 -209.5s29.333 -113.834 52 -156.501
s49.834 -75.334 81.501 -98.001s67.5 -34 107.5 -34zM199.999 1129c0 20.667 3.83301 40.165 11.5 58.498s18.334 34.166 32.001 47.499s29.5 23.833 47.5 31.5s37.333 11.5 58 11.5c21.333 0 41.166 -4 59.499 -12s34.333 -18.667 48 -32s24.5 -29.166 32.5 -47.499
s12 -37.5 12 -57.5c0 -20.667 -4 -40.167 -12 -58.5s-18.833 -34.5 -32.5 -48.5s-29.667 -25 -48 -33s-38.166 -12 -59.499 -12c-20.667 0 -40 3.83301 -58 11.5s-33.833 18.334 -47.5 32.001s-24.334 29.834 -32.001 48.501s-11.5 38.667 -11.5 60zM634.999 1129
c0 20.667 3.83301 40.165 11.5 58.498s18.334 34.166 32.001 47.499s29.5 23.833 47.5 31.5s37.333 11.5 58 11.5c21.333 0 41.166 -4 59.499 -12s34.333 -18.667 48 -32s24.5 -29.166 32.5 -47.499s12 -37.5 12 -57.5c0 -20.667 -4 -40.167 -12 -58.5
s-18.833 -34.5 -32.5 -48.5s-29.667 -25 -48 -33s-38.166 -12 -59.499 -12c-20.667 0 -40 3.83301 -58 11.5s-33.833 18.334 -47.5 32.001s-24.334 29.834 -32.001 48.501s-11.5 38.667 -11.5 60z" />
    <glyph glyph-name="divide" unicode="&#xf7;" horiz-adv-x="1364" 
d="M1285 422h-1206v105h1206v-105zM562 812c0 16.667 3 32.334 9 47.001s14.333 27.334 25 38.001s23.167 19 37.5 25s30.166 9 47.499 9c16.667 0 32.334 -3 47.001 -9s27.334 -14.333 38.001 -25s19 -23.334 25 -38.001s9 -30.334 9 -47.001
c0 -17.333 -3 -33.166 -9 -47.499s-14.333 -26.833 -25 -37.5s-23.334 -19 -38.001 -25s-30.334 -9 -47.001 -9c-17.333 0 -33.166 3 -47.499 9s-26.833 14.333 -37.5 25s-19 23.167 -25 37.5s-9 30.166 -9 47.499zM562 137c0 16.667 3 32.334 9 47.001
s14.333 27.334 25 38.001s23.167 19 37.5 25s30.166 9 47.499 9c16.667 0 32.334 -3 47.001 -9s27.334 -14.333 38.001 -25s19 -23.334 25 -38.001s9 -30.334 9 -47.001c0 -17.333 -3 -33.166 -9 -47.499s-14.333 -26.833 -25 -37.5s-23.334 -19 -38.001 -25
s-30.334 -9 -47.001 -9c-17.333 0 -33.166 3 -47.499 9s-26.833 14.333 -37.5 25s-19 23.167 -25 37.5s-9 30.166 -9 47.499z" />
    <glyph glyph-name="oslash" unicode="&#xf8;" horiz-adv-x="1130" 
d="M941 842l-63.001 -85.9971c16 -10 38 -27.167 66 -51.5s53.5 -62.333 76.5 -114s34.5 -109.834 34.5 -174.501c0 -66 -12.333 -126 -37 -180s-59.334 -100.167 -104.001 -138.5s-97.667 -68.166 -159 -89.499s-128.666 -32 -201.999 -32
c-71.333 0 -123.666 5.5 -156.999 16.5s-53.666 17.833 -60.999 20.5l-83 -113l-63 33l82 111c-23.333 13.333 -50.333 33.666 -81 60.999s-57.667 67.166 -81 119.499s-35 111.166 -35 176.499c0 66.667 12.667 126.834 38 180.501s60.333 99.167 105 136.5
s97.667 66.166 159 86.499s128 30.5 200 30.5c71.333 0 125.666 -6.16699 162.999 -18.5s63.333 -21.833 78 -28.5l63 87zM709.999 643.003c-22 40 -48.8311 71 -80.498 93s-66.834 33 -105.501 33c-58.667 0 -103.834 -20.333 -135.501 -61s-47.5 -95 -47.5 -163
c0 -78 5.16699 -144 15.5 -198s22.833 -98.667 37.5 -134zM600.001 47.0029c62 0 107.833 21.166 137.5 63.499s44.5 103.833 44.5 184.5c0 72.667 -6.33301 138.334 -19 197.001c-6 28 -13 54 -21 78l-311 -425c18 -26.667 40.667 -49.667 68 -69s61 -29 101 -29z" />
    <glyph glyph-name="ucircumflex" unicode="&#xfb;" horiz-adv-x="1237" 
d="M166 324l-0.00195312 406.001h-129v48l338 66h65v-477c0 -48 3 -88 9 -120s15 -57.5 27 -76.5s26.833 -32.333 44.5 -40s37.834 -11.5 60.501 -11.5c32.667 0 66.667 9.33301 102 28s69 42 101 70v513h-129v49l338 65h65v-764l132 -32v-48h-406v123
c-40 -26.667 -76.5 -49.334 -109.5 -68.001s-64.167 -34 -93.5 -46s-58.166 -20.667 -86.499 -26s-58.5 -8 -90.5 -8c-44 0 -81.167 7.83301 -111.5 23.5s-54.833 38.5 -73.5 68.5s-32.167 66.667 -40.5 110s-12.5 92.333 -12.5 147zM312.998 1006
c-6.66699 -3.33301 -12 -5.00195 -16 -5.00195c-4.66699 0 -9.66699 1.5 -15 4.5s-6.33301 6.16699 -3 9.5l237 290c8.66699 10.667 16.5 17.334 23.5 20.001s16.5 4 28.5 4h97c11.333 0 20.833 -1.16699 28.5 -3.5s15.5 -9.16602 23.5 -20.499l216 -290
c3.33301 -4 2.5 -7.33301 -2.5 -10s-9.83301 -4 -14.5 -4c-6 0 -11.333 1.66699 -16 5l-284 176z" />
    </font>
</defs>
</svg>
